<svg width="110" height="156" viewBox="0 0 110 156" fill="none" xmlns="http://www.w3.org/2000/svg">
<path d="M5.75 24.0772C5.75 18.8939 7.66667 14.5466 11.5 11.0354C15.3333 7.35692 20.5833 4.59808 27.25 2.75885C33.9167 0.919617 41.6667 0 50.5 0C63 0 73.5 2.00643 82 6.01929C90.6667 9.86495 97.1667 15.299 101.5 22.3215C106 29.1768 108.25 37.0354 108.25 45.8971C108.25 54.7588 105.75 63.4534 100.75 71.9807C95.75 80.3408 88 88.9518 77.5 97.8135L42.75 126.907H106.25C107.083 128.244 107.917 130.251 108.75 132.926C109.583 135.434 110 138.193 110 141.203C110 146.386 108.833 150.148 106.5 152.489C104.167 154.83 101.083 156 97.25 156H10C6.83333 153.826 4.33333 150.984 2.5 147.473C0.833333 143.961 0 140.032 0 135.685C0 130.669 1 126.489 3 123.145C5.16667 119.633 7.5 116.707 10 114.367L47 81.5113C56 73.6527 62.1667 67.2154 65.5 62.1994C68.8333 57.1833 70.5 52.418 70.5 47.9035C70.5 42.3859 68.4167 38.0386 64.25 34.8617C60.25 31.5177 54.4167 29.8457 46.75 29.8457C39.9167 29.8457 33.75 31.0161 28.25 33.3569C22.9167 35.5305 18.5 37.7878 15 40.1286C12.5 38.4566 10.3333 36.283 8.5 33.6077C6.66667 30.9325 5.75 27.7556 5.75 24.0772Z" fill="#00A39C" fill-opacity="0.1"/>
</svg>
