<svg width="298" height="247" viewBox="0 0 298 247" fill="none" xmlns="http://www.w3.org/2000/svg">
<path fill-rule="evenodd" clip-rule="evenodd" d="M260.286 123.293L219.361 149.645C216.97 151.061 214.828 152.689 212.52 154.01L207.997 156.427C205.742 157.811 206.845 157.799 205.154 157.292C205.292 155.162 206.277 155.432 207.825 154.568L224.811 144.322C226.041 143.54 227.089 142.794 228.236 142.143C229.52 141.417 230.549 140.966 231.74 140.07C232.902 139.2 233.749 138.818 234.965 138.047C236.048 137.365 237.508 136.707 238.483 135.987C238.964 135.63 239.297 135.242 239.831 134.841L243.193 132.587C243.83 132.111 244.305 131.898 244.884 131.472C246.844 130.025 249.162 128.303 251.401 127.095C252.582 126.462 257.488 123.444 258.042 122.473C256.846 121.74 255.199 121.227 253.754 120.588C248.618 118.315 242.928 114.764 236.43 112.409C230.133 110.13 225.541 107.055 218.817 104.199L205.277 98.15C200.018 95.7953 201.327 95.7264 196.813 98.7136C194.182 100.455 191.746 102.546 189.017 104.312C187.723 105.158 186.556 106.053 185.341 106.992C182.518 109.153 172.57 116.298 171.164 119.185C170.62 120.294 170.095 123.738 170.277 125.642C170.894 132.155 174.119 134.666 178.176 138.517C179.196 139.482 180.911 140.377 182.18 141.179L189.904 146.877C192.486 148.869 191.398 147.742 193.275 149.94L201.204 155.375C202.915 156.302 204.331 156.121 204.831 158.525C203.199 158.475 200.504 156.878 199.396 156.045C197.705 154.78 196.191 153.929 194.353 152.664C193.074 151.787 193.246 151.443 192.192 150.503C191.496 149.877 190.457 149.138 189.771 148.687C188.85 148.08 188.164 147.798 187.301 146.927L177.485 139.807C173.859 137.24 168.929 131.979 168.929 126.162C168.929 117.094 169.36 118.077 175.476 112.403L190.193 101.306C191.354 100.574 191.81 100.16 192.868 99.4087C201.93 92.9773 199.724 93.9792 204.63 96.1084L223.625 104.606C227.834 106.523 231.721 109.021 235.994 110.506C237.542 111.05 237.724 111.238 239.032 111.952C240.238 112.616 241.1 112.572 242.296 113.104C244.246 113.981 246.471 115.077 248.569 116.154L257.87 120.651C259.311 121.352 260.159 121.321 260.286 123.293ZM210.922 46.2851C214.833 46.2851 221.586 46.0096 225.58 45.3583C226.702 45.1767 228.814 44.6506 230.157 44.6506C229.868 40.2419 223.566 36.8227 220.704 35.8332C218.768 35.1632 218.812 35.6579 216.097 34.349C211.697 32.2136 207.717 31.1928 201.494 28.0241C197.607 26.0452 196.387 25.0369 192.888 22.6384C190.928 21.292 185.616 19.9895 183.185 19.4697L161.877 18.0231C162.695 20.1961 163.641 23.4901 164.239 26.0639C165.528 31.6312 163.548 30.3975 171.771 33.6414C180.602 37.1233 202.665 46.2851 210.922 46.2851ZM231.76 45.4647C231.76 46.5043 228.893 46.473 226.776 46.8863C224.276 47.3685 211.569 48.5396 209.815 48.1137C207.188 47.475 197.073 45.089 194.726 44.0432C193.3 43.4107 194.353 43.4357 192.663 42.9911L185.13 40.7367C179.049 38.8078 172.614 35.3009 166.611 33.2782C165.033 32.7459 164.69 32.7772 163.901 31.0049C162.989 28.9509 163.156 26.0702 162.196 23.3523C161.583 21.6114 160.97 19.6701 160.598 17.616C161.142 17.2465 160.73 17.4219 161.358 16.9522C163.401 15.4117 168.591 16.7894 171.183 16.7831L184.88 18.1233C185.449 18.2235 186.507 18.6305 187.198 18.8497C196.191 21.6803 195.985 23.7406 204.15 27.498L217.646 33.1905C221.022 34.3929 222.821 34.2739 226.447 37.092C228.623 38.7828 231.76 41.3754 231.76 45.4647ZM74.3668 65.1285C73.3818 66.0491 73.8522 64.8655 73.7297 66.7693L74.999 67.2264L75.0088 68.4038C72.6369 68.3411 73.6611 67.3767 71.8038 67.1763C70.9706 69.4746 72.3134 67.3392 71.4852 69.6374C69.3535 67.8088 70.2454 68.4413 64.84 71.3846C62.2966 72.7749 60.3608 74.0336 57.8174 75.5303C54.2106 77.6595 53.4755 72.4555 44.1202 68.5541C41.2877 67.3705 34.7306 65.4291 31.7168 65.1536C25.8409 64.6088 27.9776 64.9532 22.435 65.1223C15.7457 65.3227 10.3305 68.5353 9.61991 65.1285L27.8992 63.062C32.9615 63.1684 40.2242 64.8843 45.0072 67.0135C50.3979 69.4183 51.0105 71.1216 54.6908 73.4951C57.2293 75.1295 60.2873 71.798 65.3546 69.174L70.5394 65.9677C71.7498 65.2788 71.4215 65.9426 72.1223 64.7215C71.1716 63.0557 61.0371 57.2129 58.1163 55.1714L50.8635 50.5122C43.8899 46.0033 30.7072 51.0382 22.4595 52.4535C16.7748 53.4367 18.9164 53.6684 12.5015 53.6622C9.50228 53.6559 7.08629 54.2696 4.76829 54.1256C3.37163 54.0316 3.31773 54.1444 3.20501 52.4285C12.7073 52.4285 19.6564 51.7334 28.7176 49.3912C29.6095 49.1658 30.3936 48.9842 31.1287 48.7901L35.7255 47.7004C44.3701 45.9532 40.6457 46.7297 48.4131 47.5063C50.6184 47.7254 49.849 48.12 52.4611 49.7044C53.8577 50.556 54.8623 50.9318 56.2002 51.8899C61.0959 55.3968 62.7768 56.0794 67.5353 59.1167C69.4711 60.3566 73.9208 62.9868 74.3668 65.1285ZM243.619 197.847C241.007 198.623 234.171 202.161 232.152 202.857L214.397 210.071C211.505 211.455 208.281 212.188 205.223 213.096L194.892 215.049C194.241 215.049 194.304 214.204 194.255 213.409C200.749 213.409 212.495 209.113 218.896 206.395C222.669 204.792 226.144 203.088 230.334 201.761C234.357 200.489 237.763 198.197 241.693 197.026C241.448 195.837 241.605 196.475 241.061 195.786C237.993 191.916 233.098 188.196 229.187 185.973L224.433 183.036C222.846 182.197 221.218 181.158 219.528 180.293L206.752 174.094C203.802 172.459 206.33 171.42 199.528 174.275L190.178 178.709C184.464 181.884 175.025 185.479 168.978 188.503C167.714 189.136 167.861 189.28 166.366 188.835C166.709 187.188 168.361 186.844 170.973 185.704C172.849 184.89 174.437 184.17 176.265 183.462L203.292 170.837C204.669 170.13 204.164 170.324 206.889 172.278L219.67 178.477C220.626 178.997 221.096 179.392 222.052 179.936L224.384 181.458C225.168 181.928 226.031 182.291 226.908 182.742C230.49 184.596 235.205 187.589 238.307 190.708C240.042 192.461 243.423 194.853 243.619 197.847ZM155.467 154.837C160.245 154.837 170.527 154.655 174.79 152.488C177.27 151.23 176.53 150.86 180.362 153.34C181.636 154.161 182.67 154.536 183.895 155.375C186.272 157.016 188.982 158.469 190.085 160.573C188.855 161.325 188.772 160.817 187.924 160.078C186.571 158.889 178.039 153.196 177.265 153.196C176.344 153.196 171.884 156.478 161.877 156.478L141.407 156.008C137.903 155.526 135.869 155.025 132.125 154.95L117.644 153.609C114.062 152.783 107.132 152.413 103.584 151.906C96.6205 150.923 92.3814 151.455 85.3981 149.871C85.3441 149.858 85.256 149.833 85.1971 149.827L79.8163 149.101L75.8223 165.295C75.3665 166.623 75.6458 166.579 74.3668 166.717C74.3668 164.324 76.5182 157.818 77.3219 154.104C77.5473 153.077 78.4833 148.531 78.8802 147.873C80.1005 145.844 83.8544 148.969 86.0057 148.787L107.157 150.622C111.19 151.286 114.861 151.399 118.825 152.094L148.822 154.724C150.753 155.062 153.443 154.837 155.467 154.837ZM294.586 144.598C291.405 144.598 289.695 142.087 287.004 140.352C283.015 137.784 272.082 130.833 268.98 129.75C267.289 129.161 266.652 130.508 264.025 132.173L247.006 143.602C243.619 146.007 239.674 147.829 237.018 150.09C236.16 150.816 235.46 151.274 234.578 151.887C232.931 153.021 231.142 153.791 229.53 154.862L214.127 164.255C214.75 165.452 217.636 167.399 218.837 168.069C224.649 171.301 226.227 171.877 232.612 175.86C233.813 176.611 234.646 176.667 234.965 178.183C231.887 178.509 233.21 177.225 229.476 175.365C226.281 173.774 225.776 172.991 223.385 172.09C219.837 170.756 217.666 168.852 214.877 166.986C214.779 166.917 214.441 166.673 214.26 166.547C214.196 166.504 214.117 166.447 214.054 166.403C213.99 166.36 213.907 166.303 213.843 166.259C212.373 165.264 212.848 165.896 212.206 164.669C212.706 162.277 216.347 161.362 218.724 159.891L256.944 134.591C258.277 133.639 259.335 133.263 260.698 132.418L264.133 130.257C268.034 127.959 265.848 125.836 275.243 131.215C277.811 132.681 279.521 133.839 281.927 135.373C283.162 136.162 283.976 136.588 285.181 137.359C288.274 139.319 289.67 140.678 293.365 142.876C294.424 143.502 294.272 143.101 294.586 144.598ZM254.837 239.216H253.876C253.386 231.676 253.518 229.127 251.749 222.276C250.451 217.266 249.799 212.131 247.466 207.679C246.476 208.349 245.271 209.15 244.256 209.726C233.004 216.12 229.51 219.07 216.965 220.723L207.948 221.9C203.493 222.627 198.72 222.427 194.456 223.485L179.509 224.061C179.558 226.816 185.253 242.372 184.317 244.952C182.298 244.263 182.641 239.855 180.886 234.181C180.274 232.215 179.926 230.342 179.284 228.445C178.559 226.284 177.907 225.483 177.907 222.42L187.84 222.013C189.418 222.019 191.428 222.145 192.957 221.994C196.093 221.681 198.191 221.055 202.586 220.786C207.051 220.51 222.566 218.3 225.796 217.266C231.26 215.507 235.719 212.613 240.738 209.733L248.103 205.631C251.71 212.507 256.042 232.603 254.837 239.216ZM66.9963 102.815C66.9963 106.911 68.1479 106.397 68.5988 108.552C69.9121 108.408 75.8958 104.093 77.8952 102.815C81.0267 100.811 83.9377 98.8639 86.8878 96.6908L102.903 86.026C104.011 85.356 104.51 85.4624 104.819 83.972C101.702 83.6401 88.9461 76.7264 84.4326 75.2047L82.0558 74.1213C79.4242 73.0066 74.7931 77.5092 70.0199 80.0518L65.0703 82.7446C65.482 84.7047 65.237 83.2831 66.2318 84.5356C67.7216 86.4018 68.5498 89.0132 68.9761 91.7185C69.7847 96.8725 66.9963 98.8388 66.9963 102.815ZM108.024 83.972V85.1994C105.412 85.1994 97.2036 91.8939 93.2782 94.2109C92.352 94.762 91.8326 94.8622 90.8475 95.6075L71.9116 108.683C70.5786 109.616 70.6472 110.186 68.9173 110.186C67.2021 110.186 65.3448 105.014 65.4379 102.427C65.5506 99.2709 69.819 93.4595 66.0946 87.1721C65.4281 86.0511 63.1493 84.1536 63.1493 82.7446C63.1493 81.3982 63.9432 81.5297 64.9576 80.9535L78.2334 72.9314C82.3744 69.9005 80.8895 73.1381 83.2369 73.5765C84.9668 73.8959 85.7215 73.9459 87.1476 74.6035C88.162 75.0732 89.2254 75.7245 90.3526 76.2442C91.4846 76.764 92.7343 77.1397 94.0084 77.7159C95.2189 78.2607 96.0422 78.6552 97.3311 79.2063C98.8012 79.8326 99.4971 80.4713 100.693 81.0537L108.024 83.972ZM191.687 90.1154L187.84 92.1631C186.64 92.9397 185.375 93.8665 184.258 94.5491C182.734 95.4697 182.087 95.9832 180.686 96.9476L173.418 101.995C163.881 108.276 171.708 107.85 158.858 101.344L133.365 88.0425C132.277 87.4288 132.375 87.7106 132.067 86.0198C135.154 86.1075 145.7 93.2716 149.885 94.7871C152.125 95.6012 166.925 104.45 167.326 104.45C168.042 104.45 170.639 101.857 172.359 100.642C173.854 99.5778 187.929 90.2719 188.482 89.295L179.426 85.7192C173.045 83.8217 170.159 81.4232 166.047 79.8764C164.465 79.2752 163.239 78.4611 161.603 77.7722L154.84 74.9479C153.742 74.4469 153.575 74.4281 153.546 72.5056L177.451 83.3207C179.318 83.9094 180.769 84.3164 182.513 85.0491C184.439 85.857 191.07 87.1595 191.687 90.1154ZM65.7123 165.489H64.7518C64.2862 162.94 65.6045 160.26 66.8101 156.24C69.2113 148.192 70.5198 145.368 70.5198 135.993C70.5198 130.42 68.5105 127.358 66.9963 123.707C65.6927 124.821 64.5068 125.767 63.0513 126.857C54.1223 133.539 53.1716 131.635 45.6149 134.478L36.6909 136.181C34.2994 136.682 28.2569 137.064 25.3264 138.862C25.3264 146.74 23.3857 151.286 21.7636 157.692C21.0824 160.373 21.2785 159.584 20.8374 159.339C20.7541 159.296 19.8622 159.571 20.2836 157.085C20.4699 155.964 22.7731 149.489 23.5915 143.608C24.7187 135.524 22.4203 137.64 29.8888 135.68C34.5787 134.453 41.3465 134.29 45.9481 132.443C51.5054 130.207 54.5977 131.397 62.2476 125.009L66.6777 121.659C68.1381 121.659 70.6962 128.829 71.2108 130.608C73.7444 139.306 69.819 151.831 67.2266 160.047C66.6336 161.926 66.0798 163.485 65.7123 165.489ZM58.3418 92.1631C58.3418 95.8955 56.0973 97.5488 56.0973 103.636C56.0973 112.585 63.1738 112.729 60.1501 116.186C58.381 118.208 52.9168 121.227 50.6037 122.417C45.3944 125.091 46.002 124.784 40.7535 125.848C39.2343 126.155 38.6217 126.807 38.1464 124.527C39.8371 124.345 42.5667 123.732 44.2182 123.275L54.3919 118.246C55.5631 117.432 57.8517 115.49 58.9838 115.102C58.8368 112.898 57.4352 112.34 56.5433 110.85C54.2694 107.049 54.5536 103.022 55.2152 98.82C55.9209 94.3612 58.0281 93.1839 55.7788 88.8879L33.334 100.761C32.1186 101.488 32.197 101.932 30.967 102.653L22.6947 107.237C21.6068 107.662 20.5679 107.763 19.5436 108.126C18 108.671 14.2608 111.414 9.93844 111.414C10.0708 109.366 10.5118 109.748 12.1486 109.322C13.2562 109.034 14.1677 108.69 15.5202 108.308C20.1513 106.992 25.7968 103.698 29.9476 101.35C30.6925 100.924 30.57 101.031 31.2659 100.58C33.3634 99.2208 31.261 100.154 35.2599 97.8995L43.9193 93.3968C46.3451 92.4011 53.9802 87.2472 55.4553 87.2472C56.5972 87.2472 58.3418 90.6539 58.3418 92.1631ZM177.265 46.2851C176.265 48.1951 174.447 47.6378 170.649 49.3036C169.399 49.8484 168.586 50.2805 167.375 50.8566L153.08 58.4403C151.958 59.1355 152.458 59.2858 151.301 58.5781C151.605 57.119 152.311 56.9249 153.463 56.4239C154.379 56.0231 155.438 55.5972 156.526 55.0148C157.491 54.4951 158.157 53.9878 159.098 53.3804L173.736 46.2851C168.091 44.6068 160.108 41.0873 156.932 40.3171C153.811 39.5531 154.658 39.3777 152.806 38.6325C146.538 36.1088 138.878 34.731 131.567 30.9548C127.769 28.9947 123.912 26.9595 120.335 24.4107L115.351 20.5405C114.62 20.0145 114.351 19.6763 113.567 19.1378C111.014 17.3718 111.695 16.1444 113.067 16.8019L119.947 22.0435C123.089 24.6612 133.272 30.4038 136.899 31.5122L156.241 38.3382C160.48 39.885 164.685 41.0247 168.831 43.1351C171.316 44.4064 175.001 44.35 177.265 46.2851ZM196.5 165.489C195.667 166.929 193.751 167.218 192.339 167.956C189.281 169.56 183.528 171.382 183.033 171.626C175.956 175.133 172.511 175.891 164.832 180.318C164.239 180.663 163.313 181.201 162.519 181.514C160.078 182.479 159.887 179.573 156.604 177.964C150.895 175.158 147.949 174.225 141.363 173.267C134.938 172.334 127.509 173.43 121.045 174.438C119.482 174.676 119.364 174.663 119.247 172.86C121.888 172.785 124.858 171.607 127.891 171.62C140.466 171.658 143.647 169.685 156.663 176.248C158.363 177.1 160.353 178.546 161.235 180.231C164.533 178.001 189.957 166.666 193.932 165.489C193.025 163.905 190.526 163.416 190.252 161.988C190.07 161.024 190.501 161.012 191.104 161.231L195.137 164.362C196.132 165.038 195.75 164.481 196.5 165.489ZM50.0058 81.9242L19.5534 97.0728C17.7451 97.9997 16.3484 98.532 14.3147 99.3899L8.33595 100.768V99.1269C10.2129 99.0768 16.9904 96.8223 18.8086 95.7139L42.2678 83.9156C43.8213 83.1704 45.2866 82.062 47.1194 81.5171V80.6968C44.1545 79.8138 36.7301 74.1401 28.8499 74.1401C25.6988 74.1401 22.3517 74.3906 19.6025 75.0231C17.995 75.3926 16.9561 75.2109 15.0792 75.3863C12.0751 75.6681 12.3986 76.7953 8.97793 75.7808V74.9604C11.9722 74.0712 15.584 73.9647 18.686 73.445C20.5777 73.1256 21.793 72.969 23.7239 72.9189C28.1295 72.7937 29.5409 70.2449 40.3467 75.4239C41.9982 76.2192 43.8458 77.146 45.6149 78.1167C47.6095 79.2189 49.6383 80.1519 50.0058 81.9242ZM231.436 29.4957C232.245 29.7713 234.416 31.3619 235.293 31.938C237.057 33.0903 238.606 35.2446 239.821 37.2109C240.929 39.0082 242.257 42.4525 242.659 44.6506C247.697 44.6506 258.889 42.2584 265.417 41.7825C269.078 41.5132 283.187 36.7663 286.573 37.6869V38.9143C282.422 39.3527 279.864 40.0603 275.806 41.1312C273.802 41.6635 272.2 41.6447 270.283 42.2647C267.554 43.1539 243.276 46.6984 242.017 46.6984C240.831 43.8303 240.723 40.2795 237.307 36.3279C231.25 29.3266 227.643 33.0653 232.264 23.9974L237.077 14.5788C237.616 13.5455 239.106 10.383 239.807 10.4206C241.272 10.5082 238.611 14.8418 237.464 17.1276C237.003 18.0419 236.636 18.6556 236.185 19.5824C235.273 21.4361 231.74 28.0428 231.436 29.4957ZM120.207 91.3428C118.585 92.3072 118.634 90.5287 117.002 90.5287C114.782 90.5287 104.643 97.8995 101.31 100.379C95.807 104.469 91.8865 106.335 85.9714 111.088L75.9693 118.377C76.6015 121.396 81.4188 122.986 81.4188 139.269C84.9668 140.327 83.6829 138.855 84.6238 140.502C83.8985 141.836 84.0259 141.304 81.605 141.129C76.6161 140.765 82.7321 137.822 77.9883 125.228C76.3564 120.895 74.2296 120.381 74.0482 117.563C76.2535 116.906 86.6232 108.07 89.7547 106.091L105.912 95.2004C107.813 93.5784 114.821 88.8128 117.002 88.0676C119.83 90.4848 119.8 89.3952 120.207 91.3428ZM141.363 65.5419C139.805 65.5857 139.555 66.118 138.432 66.7129L121.917 75.9123C117.247 78.7116 116.762 77.3652 111.028 75.2235C108.617 74.3217 107.269 73.4951 105.138 72.5056C100.649 70.414 99.5902 70.4077 95.9932 69.0363C94.3662 68.4163 93.8516 67.9654 93.6017 66.7693C94.5475 66.2119 95.1209 66.9321 96.2725 67.4456C97.4879 67.9842 98.3847 68.0531 99.6294 68.4852C101.619 69.1678 103.476 70.1823 105.584 71.1154C107.706 72.0547 109.191 72.9314 111.43 73.8833C117.355 76.4196 117.115 76.8579 120.246 75.0105C121.133 74.4845 121.716 74.1589 122.662 73.589L133.125 68.122C134.757 67.2452 136.556 65.6045 138.158 65.1285L116.909 56.643C115.596 56.0732 114.758 56.0231 114.439 54.4825C115.503 53.85 119.688 56.1045 121.05 56.6806L140.241 63.7007C141.304 64.2205 141.26 63.945 141.363 65.5419ZM84.3052 26.6276C86.8682 29.4707 90.3722 31.2868 93.4743 32.9338L98.1298 35.996C100.365 37.2986 101.624 38.7828 102.609 39.2838C107.858 41.9265 111.469 42.9535 115.85 44.8949C118.154 45.9156 120.977 48.0073 124.054 48.3329C123.887 50.8817 123.128 49.9924 119.006 48.2327L103.246 41.3378C103.109 41.2815 102.658 41.0811 102.535 41.0122C101.658 40.4987 98.8159 37.975 96.7626 36.9229L86.3635 30.5478C85.5059 29.8715 84.7463 29.3078 83.9867 28.6753C83.0752 27.9176 82.6635 26.9469 82.3842 25.3939L97.3164 21.9496C98.7865 21.5801 99.3599 21.1918 100.894 20.7848C103.795 20.0145 108.901 16.8583 111.229 16.7956C111.097 18.8873 110.523 18.3988 108.867 19.1002L102.555 22.0936C99.9333 22.8889 86.5889 26.5587 84.3052 26.6276ZM37.8278 27.0346C37.0535 25.1684 36.6713 25.062 33.8485 25.6318C31.4227 26.1203 28.007 25.5066 23.175 26.3395C21.4157 26.6401 19.4554 27.5669 18.9115 24.9868C19.97 24.3355 19.5828 24.6111 20.9599 24.6674C23.3955 24.7739 25.2283 24.1477 27.8894 24.1664C31.6629 24.1915 34.2945 23.7594 38.1464 23.7594C38.5874 26.1829 42.5667 31.3243 44.1643 36.5534C46.3206 43.5986 42.5471 38.357 33.3095 39.6971C27.169 40.5864 13.261 44.8072 6.70404 44.2749C5.05743 44.1434 5.82192 44.6256 5.13094 43.4169C6.07186 41.7762 6.3757 42.822 9.61991 42.6028C10.9627 42.5152 10.6784 42.3336 11.8791 42.2146C12.8445 42.1206 13.6825 42.2521 14.6675 42.0893L33.1918 37.9061C36.1763 37.2673 40.4741 38.2067 43.2773 38.5073C42.8313 36.0712 39.1363 28.1556 37.8278 27.0346ZM157.069 27.855L154.825 18.0231L133.027 19.2505C133.821 20.6345 143.328 23.9786 144.519 24.2291L157.069 27.855ZM129.18 18.8434C130.778 17.7663 130.998 17.6912 133.355 17.6098C137.492 17.4532 143.23 16.3635 147.131 16.3823C156.834 16.4387 155.011 12.6187 158.584 27.6045C159.378 30.9235 158.844 30.1533 156.996 29.6335L152.904 28.262C147.058 26.3144 140.182 25.0557 134.625 22.1312C132.366 20.9413 130.474 21.3045 129.18 18.8434ZM289.778 47.5188C288.734 49.3411 286.666 48.6272 284.593 49.0844C278.438 50.4308 274.552 51.9463 267.01 52.4222C263.035 52.6727 258.522 52.8167 254.704 53.4931C253.038 53.7874 243.688 54.7894 242.659 54.4825C242.384 58.6595 236.582 65.6984 234.249 68.3161C233.073 69.6374 231.882 71.2156 229.834 71.2719C230.221 69.4183 231.113 69.3369 232.269 68.2409C233.303 67.264 233.725 66.3372 234.778 65.3039C238.709 61.4275 240.252 55.8289 242.105 54.1882C242.188 54.1131 242.845 53.5808 242.889 53.5494C243.869 52.823 243.56 52.967 244.893 52.8293C247.814 52.5349 251.083 52.3784 254.058 51.8461C262.119 50.4057 272.053 51.1071 281.187 48.4206C282.359 48.0761 288.955 46.3352 289.778 47.5188ZM167.65 217.511L147.915 219.721C147.567 219.702 146.822 219.871 146.935 218.751C147.058 217.498 147.234 217.999 148.376 217.893C153.144 217.46 155.79 217.479 160.495 216.559C161.436 216.377 163.925 216.496 164.778 216.271C166.523 215.807 164.994 212.538 163.891 208.793C162.426 203.827 159.976 198.479 157.711 194.158C152.36 195.749 145.284 199.594 140.02 201.942C138.785 202.487 138.521 202.462 138.158 200.715L152.943 194.215C154.609 193.501 156.364 192.611 158.03 192.11C160.573 194.29 167.581 213.734 167.65 217.511ZM229.834 72.0923C228.736 74.1902 217.323 82.3813 215.152 84.0534C214.348 84.6671 213.559 85.2495 212.711 85.8507L210.712 86.9779C210.045 87.4476 210.305 87.2785 209.962 87.6605C212.961 88.5498 215.485 89.8085 218.254 90.9858L238.851 100.304C240.512 100.937 241.585 101.989 242.977 102.402V103.636C241.693 103.636 241.36 103.329 240.654 102.909C234.906 99.4838 231.245 98.651 225.443 95.7264C223.914 94.9562 222.561 94.7871 220.993 94.0419L208.016 88.4997C207.409 88.0989 208.501 88.5811 207.394 88.0676C207.673 86.7337 207.923 86.7149 209.633 85.6065L228.873 71.6852C229.246 71.6852 229.76 71.9733 229.834 72.0923ZM235.283 178.183C237.17 177.068 246.922 184.815 249.074 186.775C250.402 187.984 251.372 189.568 252.916 190.883C255.582 189.079 260.428 186.906 263.594 184.871L274.498 178.728C275.434 178.17 276.292 177.751 277.237 177.319C278.276 176.843 278.908 176.442 279.972 175.897C280.947 175.396 285.309 173.204 285.843 173.536C287.857 174.782 282.27 176.53 281.668 176.837L254.469 192.073C250.902 193.87 252.372 191.616 245.222 185.554C243.781 184.333 241.997 183.068 240.311 182.003C237.885 180.475 235.651 179.93 235.283 178.183ZM219.895 67.5897C220.773 68.7044 219.376 69.0989 217.759 70.1823C216.646 70.9212 215.843 71.7228 214.789 72.5244C212.897 73.971 210.614 75.6869 208.658 76.9832L199.2 83.2518C198.156 83.5587 180.465 75.1295 177.505 74.2403C175.996 73.7894 174.971 73.4387 173.702 72.9628C172.203 72.3991 166.964 70.6269 166.317 69.5936C164.759 67.1075 167.753 68.6793 168.424 69.0425C169.757 69.7627 170.473 70.1384 172.002 70.6269C180.847 73.4136 186.65 76.7014 194.216 79.5132C201.503 82.2248 196.951 82.2999 202.503 78.9496C203.375 78.4235 203.429 78.5926 204.243 77.8912C204.89 77.3339 204.694 77.3464 205.576 76.7264L208.835 74.7538C211.305 73.1757 218.111 67.6084 219.116 67.4456C219.871 67.3266 219.293 66.8131 219.895 67.5897ZM134.63 193.338C135.742 193.012 137.418 191.872 138.526 191.353L142.686 189.299C144.176 188.51 145.308 188.084 146.935 187.357C148.381 186.706 149.723 185.723 151.301 185.56L143.701 182.166C140.956 181.489 137.443 181.602 134.585 181.22C128.783 180.456 118.644 183.5 117.321 182.692C118.154 180.682 119.585 180.725 123.441 180.268C131.126 179.36 137.026 178.54 145.014 180.888C146.327 181.277 157.52 184.84 152.11 186.994C151.679 187.169 151.257 187.276 150.841 187.426L138.707 193.225C135.673 194.91 135.12 195.68 134.63 193.338ZM104.819 13.1071C103.364 14.3533 101.399 14.9608 99.4383 15.6496C97.581 16.3072 95.954 17.1714 93.7977 17.8665C90.774 18.8372 84.4179 19.8204 81.0757 20.4654C78.1647 21.0227 77.6992 20.6407 75.5478 18.975C73.8571 17.6661 72.6761 16.708 70.8972 15.4931L63.2865 10.4769C62.3505 9.83191 62.179 9.90705 61.8653 8.19117C64.1245 8.4354 74.5775 16.4011 77.263 18.4489C79.1449 19.883 83.5799 18.2485 85.7656 17.8415C94.8415 16.1632 92.5432 15.9252 99.6147 13.8336C100.649 13.5267 101.247 13.0007 102.256 12.7001C101.114 10.5145 94.6308 6.98879 92.3912 5.23533C91.3327 4.40244 91.4699 5.00363 91.3572 3.27521C93.6458 3.3441 99.4138 8.31641 101.747 10.0699C103.275 11.2221 104.354 10.8777 104.819 13.1071ZM258.684 201.535C258.973 203.126 261.8 209.038 263.035 213.171C264.461 217.93 265.094 221.763 265.094 228.157C262.33 227.336 264.79 225.119 261.693 213.659C260.713 210.021 257.135 203.42 257.081 200.302C258.228 199.963 257.963 199.869 258.821 199.25L279.614 188.541C281.359 187.589 285.083 184.965 287.215 184.74C287.181 186.456 287.22 186.218 286.284 186.825C285.877 187.094 285.024 187.42 284.417 187.721C281.06 189.399 276.791 192.273 273.469 193.795C270.455 195.179 261.438 199.669 258.684 201.535ZM124.373 13.1071C125.617 13.1071 125.201 12.4871 128.21 12.2742C130.758 12.0926 137.732 10.0636 140.437 9.69413L152.845 8.24127C154.355 8.45419 155.413 8.60448 157.393 8.60448V9.83191C155.34 9.83191 155.604 10.145 153.825 9.90079L145.48 10.5897C144.196 10.8715 142.76 11.2597 141.633 11.4038L134.13 12.8754C131.831 13.4015 128.391 14.1842 126.254 14.3095C124.76 14.3972 125.573 14.0339 124.074 14.4347C122.554 14.8355 122.04 13.94 119.928 13.0508C118.742 12.556 117.786 12.1678 116.684 11.4664C115.316 10.6022 114.939 10.6585 113.351 9.98846L104.295 4.77192C102.815 4.17073 102.07 4.13942 101.938 2.04779C102.849 2.14799 104.114 2.84937 104.853 3.23764C105.652 3.65096 105.525 3.63217 106.167 4.01417L112.739 7.9031C114.601 8.94265 116.453 9.54384 118.374 10.5333C119.374 11.0531 123.525 13.1071 124.373 13.1071ZM208.359 56.117C213.353 56.117 216.744 55.4219 220.861 55.2966C222.978 55.234 224.076 54.6516 225.997 54.4951C230.476 54.1256 233.073 52.7353 229.471 58.5218C227.717 61.3461 222.718 67.1075 220.219 67.1763C220.346 65.1912 221.111 65.1599 222.336 64.1454C224.066 62.7113 228.765 57.7577 229.192 55.71C228.177 55.735 225.149 56.2109 224.286 56.4051C220.282 57.2881 212.236 57.7577 208.036 57.7577L193.118 53.8813C189.654 52.7666 189.281 53.5682 189.124 51.2011C190.791 51.2512 204.503 56.117 208.359 56.117ZM295.87 131.491C294.468 132.493 293.135 130.839 289.357 128.748L283.873 125.103C281.898 123.976 280.388 122.88 278.379 121.884L274.037 119.649C268.799 115.559 270.773 117.645 267.123 115.378C265.182 114.169 263.168 113.33 261.252 112.228L252.377 107.6C250.941 106.742 250.421 107.143 250.029 105.27C252.553 105.27 254.077 106.961 256.121 107.731C258.13 108.489 271.504 115.678 273.469 117.507C275.199 119.11 279.056 120.331 282.187 122.341C283.265 123.037 283.995 123.306 285.078 123.976L293.439 129.268C294.737 129.931 295.531 129.888 295.87 131.491ZM63.1493 18.8434L57.244 12.8692C56.2982 11.9987 55.5729 12.0613 55.4553 10.239C56.9794 10.4018 57.3421 11.2096 58.3859 12.2304L65.2418 18.6243C66.2808 19.5887 65.6388 19.5198 66.9963 19.6638V21.2983L57.6018 19.7828C54.4164 19.1002 51.1526 18.8059 47.9574 18.1796C44.6299 17.5283 41.0475 19.1628 39.0187 16.088L35.3922 10.4832C34.7747 9.31839 34.7502 9.42485 34.0396 8.49802C32.6234 6.64436 33.035 4.85959 34.8188 7.0702L39.6557 14.4598C41.6846 17.1714 43.8409 15.7561 48.5455 16.614C50.3636 16.9459 51.6279 17.0587 53.3873 17.3906L63.1493 18.8434ZM188.164 52.0214C187.296 53.5307 188.375 52.3283 184.395 53.349C177.549 55.115 169.13 58.7284 162.73 62.5359C161.407 63.325 160.402 63.3813 159.633 64.7215L162.612 66.2432C164.411 67.3078 164.827 67.5834 165.082 68.8171C163.793 69.6061 163.783 68.8046 161.132 67.3141C158.741 65.974 158.074 66.4624 158.03 63.9011C158.922 63.444 158.03 64.0138 158.545 63.325C159.647 61.8659 158.961 62.4608 160.681 61.5527C167.557 57.9206 179.833 51.2011 187.203 51.2011C187.782 51.2011 188.081 51.4077 188.164 52.0214ZM175.339 247C173.369 246.411 174.04 246.418 173.06 242.134C171.938 237.218 170.056 228.25 168.287 224.881C162.975 226.466 160.931 225.695 157.437 226.165C155.56 226.422 154.271 226.785 151.948 226.935C149.924 227.067 148.047 228.539 147.454 225.702L169.252 223.241L171.085 228.683C171.732 230.755 172.085 232.215 172.595 234.538C173.398 238.183 175.099 243.305 175.339 247ZM224.708 27.0346C220.724 27.0346 216.979 26.0201 213.476 24.179L206.183 20.8036C205.296 20.4403 204.581 19.9519 203.419 19.4133C202.121 18.8121 201.616 18.5053 201.307 16.7956C202.929 16.9647 209.776 20.6094 211.927 21.6552C214.544 22.9328 220.444 25.3939 223.742 25.3939C224.022 24.7175 224.159 24.2666 224.492 23.4839L227.697 15.2927C229.251 11.6292 229.344 9.91958 230.794 9.41859C231.235 10.5897 231.211 10.4957 230.696 11.7106C230.392 12.4245 230.098 12.8441 229.721 13.7835L224.708 27.0346ZM152.904 72.9127C151.14 72.8626 150.155 71.3909 149.057 70.4578L130.459 81.0976C129.082 81.8616 128.734 81.561 127.901 83.1516C129.298 83.5712 131.292 84.354 131.425 86.4268C129.69 86.2452 126.715 84.2976 125.657 82.7446C125.995 82.1559 125.843 82.3939 126.264 81.8804L135.59 75.7746C137.604 74.6285 147.136 68.886 148.513 69.1803L150.027 69.6625C150.331 69.794 151.331 70.3952 151.747 70.6958C152.718 71.3972 152.801 71.3158 152.904 72.9127ZM121.168 143.364C119.016 143.364 118.639 143.12 116.953 143.308L98.7179 141.711C97.0517 141.492 96.3999 141.73 94.2437 141.736L86.8486 141.348C85.6529 141.129 85.9224 141.511 85.5892 139.682C88.5197 139.682 92.3667 139.406 95.1895 139.701L117.644 141.73C119.844 141.849 121.001 140.79 121.168 143.364ZM17.9509 138.862C17.9509 142.237 16.4808 152.157 15.4859 155.369C14.9469 157.11 14.7655 158.839 13.7854 159.753C12.3593 158.419 13.1091 157.523 13.7756 155.651C14.251 154.317 17.2992 140.502 16.0299 140.502L3.2001 142.149C1.64171 142.519 0.455764 143.082 0 140.909L8.98773 139.694C11.2567 139.5 16.5053 138.141 17.9509 138.862ZM34.9414 17.2027V18.4301C28.9822 18.4301 24.6599 19.2505 18.5929 19.2505C17.6226 19.2505 17.7059 18.7683 17.6324 17.616C23.0427 17.616 27.7277 16.7956 33.0154 16.7956C32.7165 15.3553 31.9863 14.8481 31.2806 13.6895C30.0506 11.673 25.7821 7.01384 25.6449 4.91595C27.0906 5.06625 27.463 6.19347 28.2961 7.26434C29.1341 8.34773 34.9414 16.4011 34.9414 17.2027ZM158.03 8.60448C159.299 7.82169 169.728 9.01154 173.418 9.01154C178.505 9.01154 176.545 9.40606 179.627 2.6114C180.078 1.61569 180.195 1.13349 181.112 0.820369C181.788 2.62393 180.426 4.14568 178.985 7.93441C177.353 12.2116 175.28 10.6711 168.919 10.6648C167.179 10.6585 163.23 9.90705 161.122 10.0386C159.574 10.1325 158.78 10.0323 158.03 8.60448ZM276.635 33.9984V35.2258C273.253 36.234 267.152 34.7937 264.138 34.8062L245.859 34.4117C243.663 34.4367 242.492 35.2007 242.335 32.7709C245.54 32.7709 247.471 33.1842 250.671 33.178L259.316 33.6038C265.481 33.6163 270.68 33.9984 276.635 33.9984ZM276.953 30.3098C276.762 31.2241 276.88 31.5435 275.993 31.5435H250.671C249.814 31.5435 249.72 30.9486 249.387 30.3098C251.166 29.0323 272.533 30.3098 276.953 30.3098ZM91.9992 65.5419C92.3079 64.0452 92.8078 64.1641 93.9153 63.4815C94.8513 62.9054 95.459 62.5359 96.5764 61.9661C98.5513 60.9703 100.1 60.2564 102.124 59.2294C104.403 58.0709 107.318 55.8916 110.352 54.996C111.587 54.6266 112.415 54.1819 113.474 54.0692C113.42 57.2129 112.778 55.1589 108.558 57.6137L94.6259 65.2225C94.5475 65.2914 93.4694 66.1681 93.4204 66.1869C92.4549 66.5251 92.4402 66.1368 91.9992 65.5419ZM151.301 59.8055L144.431 57.526C143.059 57.0188 142.554 56.8059 141.123 56.4239C139.712 56.0544 139.109 55.5847 137.707 55.0587L127.759 51.3827C126.441 51.0382 125.23 51.4515 124.696 49.5666C126.401 48.5521 142.015 55.1902 145.092 56.2673C147.768 57.2067 150.767 57.2505 151.301 59.8055ZM184.635 10.6523C188.38 10.6523 196.269 13.295 199.729 15.5307C200.66 16.1318 200.876 15.9377 200.984 17.616C199.621 17.4657 198.955 16.9272 197.887 16.2446L191.673 13.5392C185.929 11.9736 182.411 13.2261 183.734 8.72347C183.895 8.17864 184.145 7.32696 184.278 6.91365C185.424 3.41299 185.763 2.20435 187.203 2.04779C187.169 3.95155 186.488 4.6592 185.914 6.13711C185.503 7.18919 184.729 9.25577 184.635 10.6523ZM175.981 215.049C175.515 215.381 175.643 215.25 175.02 215.463C173.428 211.611 171.394 203.095 168.292 195.793C167.665 194.321 165.837 190.952 165.724 189.242C166.591 189.336 166.469 188.654 167.64 191.303C171.698 200.496 170.625 197.696 173.967 207.798C174.751 210.165 175.51 212.457 175.981 215.049ZM295.87 106.504V107.731C293.326 107.731 288.22 109.385 285.529 110.086L275.032 112.234C273.807 112.234 274.914 112.359 274.072 111.827C274.302 111.013 273.493 110.982 276.169 110.412C280.849 109.41 286.078 108.627 290.356 107.243C291.733 106.792 294.507 105.828 295.87 106.504ZM37.8278 126.162C35.9068 126.731 33.9269 127.27 31.9667 127.683L12.5015 130.67V129.443C18.3626 129.443 35.0688 124.934 37.8278 124.934V126.162ZM267.02 149.101C265.927 151.004 264.667 149.514 262.212 149.514C258.752 149.514 244.354 151.781 242.659 150.741C243.428 149.395 242.825 150.121 244.511 149.833L251.95 149.094C254.41 149.119 266.74 147.034 267.02 149.101ZM118.605 29.0824C118.217 30.9298 118.433 30.3161 114.116 30.3098C109.573 30.3098 100.536 31.5435 97.7672 30.7231V29.4957L116.027 28.7129C117.237 28.7693 117.09 29.0824 118.605 29.0824ZM198.739 40.1417V38.9143L204.473 38.4509C205.978 38.238 208.433 37.8935 209.981 37.7119L221.821 36.8665C221.669 39.2086 221.366 38.5323 216.69 38.501C213.216 38.4759 209.408 39.6032 204.503 39.7221C202.385 39.7723 200.489 40.6615 198.739 40.1417ZM175.981 215.049C178.691 214.242 189.992 213.822 193.932 213.822C193.8 215.832 193.618 215.463 189.992 215.651C189.217 215.688 189.066 215.388 187.87 215.463L177.432 216.546C176.265 216.653 176.255 216.352 175.981 215.049ZM100.972 156.478L83.0899 159.484C80.6543 160.11 81.2423 159.033 81.1002 158.525C82.4283 157.711 88.6325 157.135 90.9015 156.716L100.972 155.244V156.478ZM194.892 59.8055C193.599 59.9433 191.697 60.4819 190.394 60.6071L185.287 61.0455C181.568 61.1457 178.686 61.8533 175.02 61.8533V60.6259L194.892 58.5781V59.8055ZM123.412 62.6737C119.536 62.6737 105.691 65.0409 104.501 64.3082C104.809 63.325 104.368 63.9262 105.094 63.4252C106.005 62.7989 119.139 61.5966 121.981 61.1582C123.143 60.9766 123.412 61.1206 123.412 62.6737ZM215.088 34.8187C213.745 37.3863 210.927 35.3448 208.09 35.6704L197.357 37.1922C195.99 37.3111 196.064 36.7726 195.858 36.0461C196.99 35.351 214.225 33.4723 215.088 34.8187ZM178.867 159.339C174.913 160.517 166.199 161.112 161.622 161.932C160.387 162.158 160.48 162.865 159.633 161.387C160.348 160.141 159.863 160.636 161.544 160.554L174.57 158.763C177.25 158.256 178.828 157.486 178.867 159.339ZM100.012 27.4417C99.2766 27.4417 99.6392 27.3039 98.7326 27.0346V25.8072L107.377 25.3876C110.372 25.4064 113.366 25.3939 116.36 25.3939C116.164 28.4249 113.243 26.5712 111.077 26.734L105.152 27.0283C103.182 27.0972 102.266 27.4417 100.012 27.4417ZM99.6931 160.16C98.2034 161.813 96.645 161.237 94.8954 161.406C93.4498 161.544 91.3082 161.938 89.838 162.314L82.3842 163.886C81.0953 164.136 80.8405 164.662 80.1397 163.435C81.0267 161.888 81.85 162.571 84.5454 162.107C87.0741 161.675 96.8312 158.738 99.6931 160.16ZM225.345 11.8797C223.056 12.5623 219.743 12.4057 217.577 11.9736C215.72 11.6042 215.352 12.2116 213.819 12.2993C212.598 12.3682 211.153 12.1615 209.962 12.2993C208.31 12.4871 207.575 13.7772 207.394 11.0593C210.256 11.0593 211.853 10.6523 214.769 10.6523H225.345V11.8797ZM269.901 143.778C262.403 143.778 256.709 145.825 250.671 145.825V144.598C251.891 144.466 251.524 144.241 252.906 144.172C257.101 143.965 256.361 144.21 260.722 143.107L268.563 142.431C269.568 142.312 269.779 141.874 269.901 143.778ZM136.874 81.1038C137.398 78.6051 137.771 80.4463 141.29 79.7825C146.817 78.7304 146.273 79.0936 151.63 79.0686C153.698 79.0623 154.938 78.292 156.751 78.2357C156.638 79.9578 156.628 79.914 152.899 80.2835C148.018 80.7657 148.944 79.7386 141.927 81.0099C139.138 81.5109 138.839 81.1038 136.874 81.1038ZM275.674 138.448C274.464 138.58 274.816 138.793 273.435 138.868C265.755 139.3 262.055 140.909 255.797 140.909C256.126 139.35 255.871 139.707 257.37 139.638C263.643 139.344 269.21 137.221 275.674 137.221V138.448ZM213.809 179.824C208.531 180.381 208.82 179.968 204.826 180.224L190.727 181.458C190.962 180.644 190.139 180.419 192.957 180.212C198.068 179.836 201.65 178.991 207.717 179.003C209.751 179.01 212.495 178.991 213.809 178.183V179.824ZM292.66 103.636L275.032 108.138C275.439 106.185 275.958 106.46 278.639 105.784C280.364 105.345 281.756 105.07 283.5 104.625C285.211 104.193 286.514 103.755 287.916 103.304C289.337 102.853 291.199 102.039 292.66 101.995V103.636ZM247.143 219.558C242.801 219.558 232.568 222.013 229.834 222.013V220.786L245.619 217.924C246.849 217.805 247.143 218.043 247.143 219.558ZM281.766 115.102C280.535 115.102 281.648 115.227 280.8 114.695C281.344 112.773 281.77 113.806 284.471 113.242C286.019 112.917 287.622 112.629 288.906 112.353L297.438 110.493C299.462 111.727 295.389 112.491 295.149 112.547L286.299 114.344C284.833 114.607 283.54 115.102 281.766 115.102ZM262.212 37.6869C262.046 40.1918 260.757 39.384 256.42 38.9394L247.167 38.4446C244.433 38.1127 244.614 38.5699 244.261 36.8665C248.971 36.8665 254.601 37.6493 258.051 37.6744C260.825 37.6994 258.223 38.1065 262.212 37.6869ZM161.558 167.944C162.548 167.337 176.304 165.896 178.867 165.896C178.549 167.43 178.813 166.961 177.432 167.337C176.486 167.593 176.02 167.462 175.069 167.6L162.298 169.015C160.946 168.432 161.852 168.99 161.558 167.944ZM167.008 46.6984C166.141 46.9552 166.047 47.1618 165.327 47.4123C162.916 48.2515 161.142 47.9196 158.662 47.9133C154.869 47.9071 151.326 49.6355 150.66 47.5188C152.272 46.5231 160.309 46.5481 163.151 46.2788C164.528 46.1473 165.538 45.5086 167.008 45.4647V46.6984ZM254.195 154.016C252.587 154.016 252.435 154.424 250.681 154.442C249.471 154.455 248.015 154.317 246.834 154.442C243.291 154.806 242.536 155.244 238.17 155.244C236.945 155.244 238.052 155.369 237.209 154.837C237.582 154.186 237.116 153.879 240.101 153.616C241.355 153.509 242.595 153.728 243.854 153.503C247.549 152.839 249.407 152.789 253.234 152.789C253.994 152.789 254.175 153.071 254.195 154.016ZM248.427 158.932L234.965 159.346C233.009 159.515 232.274 160.536 231.118 158.525C232.75 157.523 245.486 157.705 248.427 157.705V158.932ZM224.384 41.3692L211.559 42.5966C210.643 42.6154 210.084 42.797 209.486 42.8659C208.791 42.941 209.236 43.2291 208.58 42.7406C207.913 42.2521 208.296 42.6842 208.036 41.7825C209.442 40.9183 221.562 40.1417 224.384 40.1417V41.3692ZM200.984 183.919C200.239 185.216 200.901 184.746 197.137 184.74C195.657 184.733 194.113 184.683 192.638 184.721C189.61 184.796 187.532 185.967 183.993 185.967C183.111 185.967 183.224 185.654 183.033 184.74L192.32 183.5C193.221 183.5 193.922 183.5 194.814 183.418L196.809 183.525C198.225 183.587 200.768 182.31 200.984 183.919ZM118.605 33.178C117.972 34.2802 118.997 34.0422 115.081 33.9984C113.287 33.9796 112.141 34.0735 110.827 34.2989C109.529 34.5244 108.107 34.6559 107.039 34.7937C104.996 35.0504 104.702 35.6078 103.859 33.9984C104.05 33.8794 118.271 30.6981 118.605 33.178ZM37.8278 34.4054L29.4919 35.6391C24.7873 36.2591 23.1015 37.5115 22.1214 35.6391C23.7239 34.6496 31.6285 33.7416 34.3141 33.5788C35.848 33.4911 36.9359 32.8523 37.8278 34.4054ZM209.32 103.222C208.639 104.406 209.403 104.118 207.859 103.893L201.626 104.043C198.215 104.037 196.024 104.863 192.971 104.863V103.636L202.841 102.734C204.057 102.615 209.094 101.55 209.32 103.222ZM248.103 122.886C244.521 122.886 239.194 124.032 235.592 124.101C233.661 124.139 233.014 125.335 232.078 123.707C232.911 122.248 233.49 123.043 235.278 122.88C239.512 122.504 243.59 121.659 248.103 121.659V122.886ZM91.9992 85.1994C91.2102 86.5771 88.7109 85.9634 85.403 86.6022C82.987 87.0656 80.8307 87.2472 78.2138 87.2472C78.3804 84.6796 78.8802 86.0072 84.8982 85.1368C85.9763 84.9802 87.4073 84.9364 88.755 84.736C89.5097 84.6233 91.7885 83.6338 91.9992 85.1994ZM245.864 223.654C242.036 223.654 240.586 223.497 236.704 224.236C235.744 224.424 235.014 224.393 234.034 224.543C232.617 224.762 232.627 225.583 231.76 224.061C232.549 222.69 233.049 223.391 234.832 223.072C235.92 222.877 237.263 222.52 238.18 222.439C240.934 222.182 242.982 222.013 245.864 222.013V223.654ZM181.754 163.028L166.366 164.669V163.435C170.022 163.435 174.3 161.801 181.754 161.801V163.028ZM223.105 14.3345C221.934 16.5702 220.508 15.4367 215.725 15.1549C215.137 15.1236 214.578 14.9545 214.314 14.9232C213.559 14.8355 213.642 14.9796 213.123 14.9921L209.962 15.1549C208.737 15.1549 209.844 15.2802 209.001 14.7479C209.496 12.9944 210.378 13.5204 213.485 13.5204L217.955 13.9275C219.69 14.0152 221.895 13.5956 223.105 14.3345ZM88.1522 81.1038C87.7062 83.2393 86.3831 82.4064 83.9769 82.707C81.3746 83.0326 77.9001 83.972 75.6507 83.972C74.7637 83.972 74.8813 83.6526 74.6902 82.7446C77.7433 82.6569 85.8783 79.9766 88.1522 81.1038ZM203.87 106.504C203.003 108.007 198.783 107.738 197.137 107.731C194.442 107.713 192.452 108.138 189.448 108.138C189.614 105.552 190.732 106.542 196.186 106.516C197.47 106.51 203.111 105.408 203.87 106.504ZM160.598 203.17C160.363 203.99 160.877 203.971 159.598 204.353C159.26 204.454 158.128 204.41 157.716 204.41L150.267 204.272C149.282 204.234 148.498 204.692 148.096 202.763C150.042 202.763 159.907 202.174 160.598 203.17ZM167.968 232.665V233.893C167.032 233.893 157.609 234.081 156.403 233.523C155.531 233.116 155.967 233.536 155.467 232.665C156.511 231.914 166.4 231.883 167.968 232.665ZM92.9597 9.41859C87.0888 9.41859 82.9184 10.239 76.9347 10.239V9.01154C82.6145 9.01154 86.6673 8.19117 92.9597 8.19117V9.41859ZM242.017 126.982L228.873 127.389V126.162C231.044 126.162 239.483 124.978 241.184 125.51C242.036 125.78 241.914 125.466 242.017 126.982ZM40.7094 81.1038C39.8273 82.6444 32.8684 83.0389 31.0846 83.1579C29.2763 83.2769 29.4478 84.0847 28.5314 82.3312C29.9623 81.4545 35.3334 81.0976 37.7837 80.6404C38.5482 80.4964 40.5085 79.5946 40.7094 81.1038ZM183.675 64.3082C180.906 64.3082 170.752 66.0491 169.252 65.1285C170.512 62.9305 173.281 64.2581 175.952 63.8635C179.794 63.2937 183.621 61.8846 183.675 64.3082ZM63.1493 63.0808L56.0973 63.4878C50.1088 63.4815 50.6968 65.116 49.6873 62.6737C50.785 61.9974 60.8264 61.8533 63.1493 61.8533V63.0808ZM191.369 188.835C187.497 187.652 181.357 189.242 176.946 189.242V188.015C179.426 188.015 182.558 187.194 185.601 187.194C190.683 187.194 191.369 186.531 191.369 188.835ZM12.1829 131.077C11.3498 131.165 10.4481 131.441 9.43858 131.666C8.14483 131.96 5.87585 131.81 3.27362 132.399C1.6368 132.768 2.44051 133.251 0.641979 132.718V131.491C2.25428 131.009 4.38604 130.545 6.12088 130.301C7.20389 130.144 8.05661 130.357 9.17885 130.107C10.3207 129.85 10.9823 129.474 12.1829 129.443V131.077ZM89.1127 12.2868L79.3654 13.3576C77.8168 13.7083 77.2875 13.8774 76.6113 12.7001C77.3611 11.3975 77.464 11.8985 79.1841 11.886C82.4479 11.8609 89.0539 9.50626 89.1127 12.2868ZM156.109 133.539C152.252 133.539 145.269 135.292 144.666 135.042C143.843 134.71 144.181 134.841 143.926 133.946C144.563 133.557 154.051 131.898 155.467 131.898C156.075 131.898 156.109 132.706 156.109 133.539ZM272.146 28.262C270.612 29.3642 268.078 28.0303 264.741 28.0053C263.398 27.9928 259.282 29.1889 258.042 27.0346C259.566 26.1015 261.364 27.0346 263.173 27.0346C264.966 27.0346 270.847 25.9951 272.146 28.262ZM245.864 226.522C245.207 226.923 240.88 227.255 239.772 227.342C237.508 227.524 236.435 228.157 233.681 228.157V226.929C235.597 226.723 237.944 225.871 239.772 225.702C243.296 225.382 244.893 224.744 245.864 226.522ZM167.65 229.797C166.65 230.411 163.2 229.785 161.235 229.797C159.696 229.81 158.991 229.672 157.947 229.49C156.859 229.303 155.188 229.753 155.688 228.451C156.055 227.499 164.058 228.382 165.121 228.52C167.38 228.802 166.802 227.756 167.65 229.797ZM41.9933 141.316C39.7685 141.316 35.3089 141.172 33.53 141.561C32.5646 141.774 31.7756 141.742 30.7611 141.749C29.0851 141.755 29.2175 142.105 28.5314 140.909C29.3106 139.544 28.551 140.17 30.5063 140.227L41.9933 140.089V141.316ZM295.546 116.33L287.235 118.008C285.887 118.396 285.461 118.979 284.647 117.563C285.598 115.91 293.87 115.102 295.546 115.102V116.33ZM52.2503 101.175C50.9321 101.175 50.7311 101.338 49.9323 101.488L41.6748 101.995C40.7682 101.995 41.0769 101.82 40.7094 101.175C41.4396 99.9097 41.8904 100.329 43.6007 100.361L50.3391 99.9222C51.5642 99.7844 52.2503 99.0079 52.2503 101.175ZM238.478 161.462L238.488 162.621H231.76C229.295 162.621 226.859 163.88 225.668 161.801C231.642 161.801 231.941 160.235 238.478 161.462ZM38.1464 31.1302C34.3484 31.2367 29.3204 33.5788 26.6054 32.7709V31.9506C29.4184 31.1114 35.0786 29.9028 38.1464 29.9028V31.1302ZM281.766 101.588C281.295 101.588 281.295 101.081 281.124 100.768C281.795 99.5966 284.049 99.5277 286.313 98.8013L291.699 97.0791C291.542 99.4901 290.405 98.9829 287.342 100.116L281.766 101.588ZM67.9568 133.539V134.766H56.4158V133.539C58.6456 133.539 60.4883 133.564 62.2623 133.219C64.5754 132.775 66.2024 133.482 67.9568 133.539ZM181.43 57.3444C181.705 56.3863 181.445 56.1045 183.66 56.0982L193.29 55.71C192.898 57.5949 192.922 56.7432 191.139 57.0501C190.105 57.2317 189.365 57.357 187.845 57.3507C185.88 57.3382 182.425 57.9581 181.43 57.3444ZM232.397 86.0198C231.196 86.145 231.338 86.4143 229.848 86.4456C228.8 86.4707 227.658 86.3579 226.619 86.4143C224.389 86.5458 225.041 86.8401 220.861 86.8401V85.6127C224.286 85.6127 227.619 84.7924 232.397 84.7924V86.0198ZM35.5833 148.28C34.5248 150.128 32.0696 148.474 27.4875 149.426C25.9389 149.746 25.6106 149.752 25.0029 148.693C25.6841 147.504 25.5616 147.836 27.2327 147.854C28.2177 147.867 29.4919 147.967 30.4524 147.867C31.3835 147.773 35.3432 146.495 35.5833 148.28ZM61.5468 28.6753C60.0472 28.7192 51.9318 29.8715 50.6478 29.0824C50.9615 28.0929 50.442 28.882 51.035 28.3497C51.9024 27.5669 59.8267 27.4417 61.5468 27.4417V28.6753ZM118.286 59.8055C116.39 59.8055 115.395 60.2314 113.155 60.2126C108.607 60.1813 109.303 61.4713 108.348 59.8055C109.132 58.4403 108.529 59.1856 110.22 58.9163L118.286 58.1648V59.8055ZM92.6412 154.424C91.2053 154.467 91.5238 154.774 90.0831 154.843C88.6423 154.912 88.1424 154.931 87.1035 155.137L81.4188 156.064C81.5413 154.236 81.5952 154.58 82.9919 154.386C83.9622 154.248 84.6728 154.129 85.8244 153.91L92.6412 153.196V154.424ZM68.5988 138.448C67.3932 138.58 67.5402 138.843 66.0455 138.88C63.2914 138.937 59.2043 139.588 58.0183 138.862C58.8661 137.384 59.7483 137.784 61.537 137.622L68.5988 137.221V138.448ZM36.2253 143.778V145.005C34.3092 145.005 27.2082 145.374 25.9635 145.005V143.778C27.664 143.778 35.3383 143.339 36.2253 143.778ZM244.58 230.618C243.928 231.751 244.325 231.451 242.678 231.463C239.047 231.488 236.111 232.546 234.965 231.845C236.16 229.753 244.349 228.896 244.58 230.618ZM196.5 111.007L185.601 111.414C184.714 111.414 184.827 111.101 184.635 110.186L196.5 109.779V111.007ZM53.5343 11.8797C52.564 13.5643 44.8896 14.1154 43.9144 13.5204C44.9239 11.7607 49.3688 11.6104 51.2947 11.4601C52.5052 11.3662 53.3726 10.6648 53.5343 11.8797ZM148.096 83.5649C146.974 84.2475 139.873 84.379 137.835 84.379C136.933 84.379 137.242 84.2037 136.874 83.5649C137.918 82.9262 144.044 82.9074 145.734 82.5567C147.072 82.2812 147.469 82.4127 148.096 83.5649ZM117.002 41.3692H116.042V40.1417L125.975 38.5073C125.872 40.1167 125.946 39.9539 124.716 40.1668C123.623 40.3609 123.245 40.3922 122.143 40.5676C120.3 40.8619 119.158 41.3692 117.002 41.3692ZM115.718 22.939C114.963 24.7676 115.708 24.1664 110.911 24.1664C106.74 24.1664 106.186 24.8804 105.78 22.939L110.911 22.532C113.042 22.532 113.684 22.939 115.718 22.939ZM159.956 49.9736V51.2011C156.761 51.2011 154.247 51.9964 152.889 52.059C151.306 52.1404 151.556 52.2093 150.978 51.2011C151.88 49.6355 151.331 50.7877 155.222 50.0738C156.722 49.792 159.059 49.529 159.956 49.9736ZM117.002 102.815C114.772 102.815 112.93 102.847 111.156 102.502C108.23 101.932 107.647 102.953 106.814 102.646C105.51 102.177 106.338 102.421 106.103 101.588C107.284 100.736 114.248 101.394 115.748 101.55C116.963 101.682 116.723 101.482 117.002 102.815ZM120.526 37.6869C119.31 37.6869 118.918 37.6931 117.83 37.9249L109.627 38.5073C109.896 37.2235 109.328 37.2109 113.479 36.8728L120.526 36.4532V37.6869ZM15.3879 145.005L6.90007 145.681C5.33186 146.013 5.45438 145.825 4.80751 144.598C5.97384 143.884 8.27714 144.21 9.94825 144.197C11.8546 144.191 13.0846 143.778 15.3879 143.778V145.005ZM233.039 130.67C230.324 130.67 228.961 131.077 226.31 131.077C226.869 128.397 230.981 129.443 235.925 129.443C235.739 132.324 234.896 130.67 233.039 130.67ZM136.232 185.967H139.761C139.756 186.236 139.775 186.618 139.731 186.769C139.496 187.627 139.922 187.201 139.29 187.489C139.251 187.508 139.148 187.501 139.104 187.508C139.055 187.52 138.957 187.508 138.898 187.514L132.37 187.22C130.89 187.169 130.449 187.025 130.146 185.56C132.591 185.56 133.718 185.967 136.232 185.967ZM117.321 66.356C116.076 66.4937 116.635 66.6503 115.395 66.763C114.581 66.8382 113.65 66.6941 112.837 66.7756C110.724 66.9759 112.146 67.1763 108.348 67.1763V65.9489C110.769 65.2287 114.454 65.1285 117.321 65.1285V66.356ZM52.5738 104.45L45.3699 105.126C44.7573 105.208 45.0562 105.477 44.4436 105.032C43.7919 104.556 44.1643 104.913 43.9144 104.043C44.6985 103.567 51.0203 102.815 52.5738 102.815V104.45ZM61.5468 31.9506L53.598 32.8837C52.5983 32.9776 52.6816 33.2594 51.9318 31.9506C53.25 31.1427 58.4692 30.7231 60.5863 30.7231C61.3409 30.7231 61.5272 31.0049 61.5468 31.9506ZM37.8278 27.0346V28.262C35.603 28.3247 30.0849 30.0405 28.5314 29.0824C29.0312 27.3227 29.5409 28.0679 32.741 27.498C34.6767 27.1536 35.598 27.0346 37.8278 27.0346ZM144.568 129.85C145.774 129.111 149.351 129.687 152.414 128.779C153.232 128.535 154.438 127.834 154.119 129.324C153.747 131.077 147.964 130.489 146.509 130.727C145.112 130.952 144.999 131.917 144.568 129.85ZM248.103 215.049C247.51 216.089 247.79 215.826 246.393 216.139L241.12 216.621C240.101 216.433 239.684 216.427 239.13 215.463C240.233 214.786 244.937 214.768 246.167 214.58C246.873 214.473 247.927 213.709 248.103 215.049ZM222.782 18.0231C222.478 18.1295 221.821 18.4301 221.821 18.4301L213.49 17.9291L213.485 16.7956H222.782V18.0231ZM160.598 208.086C154.815 208.48 153.443 209.52 152.262 207.265C153.384 206.583 157.202 206.633 159.005 206.827C160.51 206.984 160.235 206.357 160.598 208.086ZM142.324 184.326C141.206 185.128 136.09 184.52 134.605 184.364C133.39 184.232 133.63 184.433 133.351 183.099C134.953 183.099 136.556 183.105 138.158 183.099C140.481 183.093 141.966 182.56 142.324 184.326ZM168.61 236.761C167.777 238.765 168.748 237.882 167.003 237.65C166.087 237.531 165.136 237.569 164.2 237.487C163.484 237.431 164.019 237.437 163.308 237.469C161.059 237.569 160.289 237.55 159.956 235.941C162.906 235.941 166.586 235.521 168.61 236.761ZM76.6113 79.8764C76.9739 78.5989 77.3464 78.5363 80.1495 78.2545C81.8794 78.0791 82.786 77.8286 84.6238 77.8286C84.5061 79.7011 84.5208 79.3441 81.0659 79.8263C79.4389 80.058 77.6698 80.5214 76.6113 79.8764ZM273.106 133.946C272.503 136.081 271.484 134.76 268.75 135.342C267.833 135.536 266.98 135.48 266.113 135.674C265.427 135.837 264.53 136.726 264.256 135.843C263.511 133.407 272.886 133.626 273.106 133.946ZM176.304 27.0346C175.564 28.3184 176.074 27.761 174.393 27.8675C173.016 27.9614 173.315 28.1368 172.129 28.2495C170.242 28.4311 169.262 28.6753 167.326 28.6753V27.4417L174.32 26.5086C174.883 26.4021 176.123 25.7007 176.304 27.0346ZM37.8278 79.4631C32.2558 79.4631 29.7222 82.5817 29.4919 79.056C34.8973 79.056 37.8278 76.3382 37.8278 79.4631ZM129.18 41.7825C127.818 42.1895 126.318 42.6404 124.985 42.9911C123.843 43.2917 122.246 43.6674 121.168 43.0099C122.109 41.3754 122.829 41.9515 124.446 41.4631C126.936 40.7179 126.289 40.555 129.18 40.555V41.7825ZM157.711 135.993C156.374 136.394 154.707 136.595 153.232 136.826C151.262 137.133 150.958 137.634 148.415 137.634C148.738 136.075 148.748 136.482 150.067 136.056L157.711 134.766V135.993ZM159.633 199.074V200.302H152.904C151.934 200.302 152.017 199.819 151.943 198.667H158.03C158.535 198.667 159.245 198.88 159.633 199.074ZM182.391 192.11C179.083 192.11 177.779 192.58 175.966 192.555C174.32 192.536 174.712 192.837 174.06 191.703C175.05 189.975 175.221 191.24 178.529 190.827C179.901 190.658 179.073 190.614 180.509 190.795C182.19 191.008 182.023 190.344 182.391 192.11ZM168.929 170.812V172.04H167.008C164.489 172.04 163.362 172.453 160.916 172.453V171.219C162.543 170.737 167.42 170.061 168.929 170.812ZM62.1888 35.6391C61.6301 35.9773 54.9555 37.1295 53.8528 36.4532C54.583 35.0692 55.5337 34.9189 58.0085 34.7999C61.7918 34.6246 62.1545 34.1424 62.1888 35.6391ZM222.14 83.5649C222.762 80.5966 225.619 82.5129 228.81 81.8365C229.427 81.705 230.525 81.0036 230.907 81.4858C232.382 83.3708 227.682 83.1579 227.271 83.1516C225.016 83.1266 224.227 83.5649 222.14 83.5649ZM233.681 88.0676V89.295C232.034 89.295 231.152 89.5017 229.554 89.7584C227.874 90.0277 226.487 91.2113 226.31 88.4809C228.741 88.4809 232.127 87.2973 233.681 88.0676ZM154.506 127.389C153.056 127.433 153.232 127.802 151.62 127.802H147.454C146.229 127.802 147.337 127.927 146.494 127.389C147.278 126.017 146.239 126.957 147.68 126.456C149.013 125.986 152.879 126.162 154.506 126.162V127.389ZM105.78 107.318C105.143 109.353 103.398 108.151 99.355 108.163C97.6741 108.17 97.7868 108.527 97.4487 106.911C98.9728 106.911 105.187 106.46 105.78 107.318ZM86.8682 167.124C83.7368 167.124 81.3551 168.783 78.5372 167.944V167.124C79.8555 166.729 81.4776 166.416 83.0213 166.303C84.3591 166.209 86.8192 164.888 86.8682 167.124ZM51.2898 9.01154C50.638 10.1513 51.329 9.80059 49.7069 9.85695C44.1202 10.0511 44.0859 11.7607 43.5958 9.41859C43.7527 9.32465 51.0399 7.13283 51.2898 9.01154ZM109.945 104.544C109.784 107.024 109.416 105.659 106.427 105.677C104.383 105.69 102.776 106.091 102.256 104.45C103.104 103.548 108.588 104.444 109.945 104.544ZM119.247 98.3065C118.119 100.461 117.228 99.44 115.375 99.1582C112.425 98.7136 111.611 100.085 110.592 98.3065C111.631 97.5613 118.845 97.6803 119.247 98.3065ZM60.5863 65.1285V66.356L53.5343 66.7693C53.6715 64.6401 53.8528 65.3039 55.4161 65.0784C59.6453 64.4585 57.1803 64.6714 60.5863 65.1285ZM172.457 24.9868C169.248 24.9868 167.973 25.8072 164.763 25.8072V24.5798C169.635 24.5798 172.457 21.4799 172.457 24.9868ZM60.9048 142.55C61.4096 140.133 63.7472 140.909 67.6382 140.909C67.4716 143.446 66.3641 142.55 60.9048 142.55ZM60.9048 131.898C61.2478 130.251 61.8408 130.263 63.4629 130.251C65.2859 130.238 65.5163 129.85 67.3148 129.85C67.2168 131.416 67.6676 130.839 66.6434 131.447C66.5748 131.491 64.9625 131.885 64.7567 131.904C63.2914 132.017 61.5811 132.299 60.9048 131.898ZM13.7854 147.053V148.28L6.09147 148.693C6.312 147.635 5.94934 147.247 9.615 147.046L13.7854 147.053ZM164.445 1.22742C162.519 1.28378 158.535 2.53626 157.069 1.64074C157.594 -0.206658 157.496 0.651285 160.274 0.413316C161.999 0.263019 160.804 0 164.445 0V1.22742ZM167.326 4.09558C163.264 4.09558 162.387 4.72182 161.558 3.27521C162.333 2.80554 167.841 2.45485 169.252 2.45485C168.988 3.71984 168.625 4.09558 167.326 4.09558ZM142.647 86.8401H140.403V85.6127C142.505 85.6127 144.926 84.7924 147.131 84.7924C147.018 86.5396 146.391 86.8401 142.647 86.8401ZM151.62 75.7808C149.964 76.7953 147.195 76.4822 146.195 76.6262C145.21 76.7703 145.602 76.9707 144.249 77.0082V75.7808L150.228 74.7538C151.105 74.5784 151.591 74.4219 151.62 75.7808ZM207.717 176.548C207.477 177.394 207.85 177.081 207.203 177.532C206.419 178.076 202.126 177.776 200.984 177.776C200.082 177.776 200.391 177.601 200.023 176.956C200.807 176.473 207.281 175.922 207.717 176.548ZM45.8403 97.4924C46.9822 96.6658 50.7556 97.0791 52.2503 97.0791C52.1523 98.5758 52.5689 98.294 51.5642 98.5821L51.1624 98.6196C51.0889 98.6259 51.0007 98.6447 50.9174 98.651L47.4281 98.7386C45.8403 98.6134 46.0854 98.3629 45.8403 97.4924ZM32.3783 152.376C29.9672 153.096 28.5216 152.789 25.6449 152.789V151.562L32.3783 151.148V152.376ZM173.099 6.14338C168.248 6.14338 166.89 8.24753 166.366 5.73632C169.346 4.84707 170.076 4.91595 173.099 4.91595V6.14338ZM146.494 20.8912C147.2 20.4529 151.983 19.6638 153.223 19.6638C152.806 21.6552 152.242 21.0415 149.885 21.5425C149.248 21.6803 148.518 21.7868 147.881 21.912C146.616 22.15 146.842 22.557 146.494 20.8912ZM242.659 119.611L236.734 120.713C235.675 120.839 235.847 120.77 235.607 119.611L241.399 118.409C242.296 118.421 242.472 118.697 242.659 119.611ZM204.512 99.5402C204.179 100.699 204.708 100.811 201.302 100.761C199.528 100.743 198.754 101.363 197.779 100.768C198.813 98.795 198.783 99.7281 200.984 99.5402C201.861 99.4651 203.826 98.5508 204.512 99.5402ZM47.7614 107.731C46.8596 107.731 47.1684 107.55 46.8008 106.911C47.6535 105.421 47.8251 106.335 49.6138 106.003C50.7017 105.796 51.3192 105.684 52.8923 105.684C52.76 107.738 52.7012 106.986 51.231 107.212C49.7657 107.443 49.3345 107.731 47.7614 107.731ZM162.838 44.6506C161.407 45.0765 161.112 45.0389 159.304 45.0514C156.354 45.0639 156.922 45.9845 156.428 44.2373C157.393 43.6487 161.215 43.4169 162.838 43.4169V44.6506ZM178.867 29.9028C177.755 31.8378 174.457 31.1302 172.776 31.1302V30.3098C173.874 29.9842 178.667 28.3873 178.867 29.9028ZM170.855 22.1187C167.101 22.2251 164.901 23.9097 164.445 21.7116C165.41 21.1167 169.233 20.8912 170.855 20.8912V22.1187ZM231.436 134.353C230.647 136.15 229.51 134.766 225.345 134.766C225.717 132.994 225.771 133.539 230.476 133.539C231.054 133.539 231.353 133.739 231.436 134.353ZM94.2437 111.007C95.3267 109.122 97.7574 109.779 100.972 109.779C100.747 110.875 100.953 110.8 100.017 111.013C97.2575 111.645 96.2284 111.007 94.2437 111.007ZM189.124 114.282C186.473 114.282 185.106 113.875 182.391 113.875C183.214 112.309 183.004 112.647 185.919 112.647C188.968 112.647 188.909 113.249 189.124 114.282ZM249.711 41.3692C247.505 41.3692 245.222 41.8263 244.261 40.1417C245.775 39.2149 246.692 40.1417 248.427 40.1417C249.598 40.1417 249.191 39.7723 250.671 39.7347C250.593 40.8869 250.676 41.3692 249.711 41.3692ZM293.944 120.018C292.052 121.296 290.484 121.246 288.176 121.246V120.018C289.709 119.974 292.243 119.204 293.625 118.791C293.777 119.523 293.669 119.517 293.944 120.018ZM127.259 45.4647C127.872 43.3042 131.013 43.0099 132.709 43.0099C132.571 45.0827 132.268 44.5817 130.714 44.97C129.312 45.3144 128.901 45.4647 127.259 45.4647ZM78.2138 16.3823C78.547 14.8042 78.547 15.1737 81.0169 14.6414C82.296 14.3659 83.2271 14.3345 84.9472 14.3345C84.7022 15.5181 84.9423 15.2864 83.9867 15.5682L78.2138 16.3823ZM61.5468 69.2241C58.3271 70.2073 60.4147 69.3619 59.3023 69.3807C58.1654 69.3995 59.8365 69.6374 58.3418 69.6374C57.2342 69.6374 57.1019 69.3306 56.0973 69.2241V68.4038C58.4055 67.7212 58.7877 67.9967 61.5468 67.9967V69.2241ZM117.644 68.8171C116.831 70.2324 117.193 69.4183 115.478 69.7376C113.876 70.032 113.273 70.4077 112.195 69.6374C112.792 68.5916 112.935 68.7294 114.13 68.4288C115.032 68.1971 117.443 67.3204 117.644 68.8171ZM87.1917 115.923C88.358 115.209 90.823 115.102 92.6412 115.102C92.4108 116.204 92.6559 115.985 91.759 116.436L88.4462 117.125C87.373 117.112 87.4122 116.705 87.1917 115.923ZM149.057 87.6605C148.229 89.1009 145.509 88.8879 143.926 88.8879C144.264 87.2722 144.656 87.385 146.166 87.2409C147.332 87.1345 148.866 86.239 149.057 87.6605ZM82.0607 89.295C82.7223 88.1427 82.59 88.5435 84.1043 88.2179C85.0795 88.0112 85.8587 88.0676 86.8682 88.0676C86.5154 89.7709 86.1724 89.4516 84.663 89.7584C83.2859 90.0402 82.9232 90.798 82.0607 89.295ZM33.0154 84.7924C32.3538 85.9446 32.4862 85.5438 30.9768 85.8695C30.0015 86.0761 29.2223 86.0198 28.2079 86.0198C28.9234 84.2976 28.6 84.6922 30.4132 84.3289C31.1434 84.1786 32.8243 83.3332 33.0154 84.7924ZM158.353 138.041C157.863 138.899 157.413 139.118 156.413 139.256C155.614 139.363 154.389 139.269 153.546 139.269C153.963 137.265 158.182 136.77 158.353 138.041ZM168.61 240.443V241.677H167.65C165.812 241.677 165.356 241.019 163.803 240.857V240.036C165.464 239.542 166.836 239.917 168.61 240.443ZM12.1829 150.741C11.5409 153.002 9.64932 151.624 7.37543 151.562C7.70866 149.958 7.45383 150.328 11.2224 150.328C11.5948 150.328 12.1045 150.622 12.1829 150.741ZM177.907 67.5897C176.77 68.2848 176.79 67.8151 175.408 68.0969C174.202 68.3411 173.962 69.0989 173.099 67.5897C173.923 66.1493 173.918 66.9258 175.662 66.763C176.696 66.6628 177.863 65.6608 177.907 67.5897ZM54.1763 109.366C53.2844 110.919 51.7309 110.6 49.6873 110.6C49.8539 109.998 49.2904 109.635 51.623 108.971C52.5345 108.708 53.99 108.001 54.1763 109.366ZM95.8462 112.647V113.875H91.0387C91.3915 112.178 91.4013 112.735 93.1557 112.453C94.4201 112.247 94.3025 112.647 95.8462 112.647ZM154.506 54.0692C152.09 55.5471 151.027 54.5201 149.699 54.4825V53.6622C153.272 53.2802 153.737 52.2531 154.506 54.0692ZM160.274 210.954V212.181L157.236 211.968C155.697 211.53 156.486 212.175 155.786 210.954C156.824 210.209 159.152 210.396 160.274 210.954ZM153.864 22.939C152.884 23.2334 150.802 23.7281 149.699 23.7594C150.067 21.9934 151.056 21.7116 153.864 21.7116V22.939ZM231.436 166.303C228.56 166.303 227.452 166.854 226.947 165.076C228.285 164.262 228.138 164.756 229.27 164.969C231.049 165.308 231.03 164.362 231.436 166.303ZM220.537 20.8912L217.014 20.4779C217.915 18.9061 219.616 19.2505 221.503 19.2505C221.424 20.409 221.508 20.8912 220.537 20.8912ZM225.668 138.448C224.198 138.605 224.737 139.269 222.689 138.567C221.253 138.073 222.282 138.999 221.503 137.634C222.596 136.845 224.394 137.221 225.668 137.221V138.448ZM64.1098 38.5073C63.6639 40.6427 64.4431 39.3214 59.9443 39.3214C60.2628 37.8059 59.959 38.0939 63.1493 38.0939C63.5217 38.0939 64.0363 38.3883 64.1098 38.5073ZM240.414 235.534C238.425 236.122 238.552 236.122 236.567 235.534C237.41 233.924 237.243 234.3 240.414 234.3V235.534ZM134.63 188.835V190.063C132.758 190.063 132.39 189.656 130.788 189.656V188.428H133.027C133.532 188.428 134.242 188.641 134.63 188.835ZM66.3543 146.232L63.1591 146.721C63.2571 145.011 63.7618 144.598 65.0703 144.598H65.3938C66.3053 144.598 66.3543 145.068 66.3543 146.232ZM74.3668 65.1285L74.9941 64.6839C76.278 65.5794 77.4248 65.7297 77.5718 67.9967C76.5427 67.6898 74.7441 66.4624 74.3668 65.1285ZM183.993 116.743L183.033 117.97C182.072 117.682 181.21 117.263 180.151 117.15C180.573 115.127 180.445 116.042 181.479 116.204C182.822 116.417 182.999 116.129 183.993 116.743ZM233.362 92.1631C230.476 92.1631 232.015 92.3197 231.118 91.7561C231.5 91.086 231.382 90.5287 234.323 90.5287C234.244 91.681 234.328 92.1631 233.362 92.1631ZM29.8104 155.244C28.7078 157.348 28.4823 156.296 26.2869 156.064C27.4924 153.966 29.683 155.044 29.8104 155.244ZM10.5804 155.244C9.54639 155.883 8.8309 155.657 7.37543 155.657C7.72336 153.985 8.09581 154.467 9.61991 154.016C9.67382 154.079 9.77183 154.073 9.79633 154.198L10.5804 155.244ZM274.714 120.839L274.616 120.713C274.62 120.726 274.743 120.795 274.714 120.839ZM69.2849 50.4496L69.623 52.3471C65.3104 49.5854 60.3608 46.3477 56.0336 43.4984C50.2166 38.8955 53.6225 44.9136 47.5408 31.0049C46.9773 29.7149 46.4872 28.6127 45.904 27.3603C45.3111 26.1078 44.4976 24.7739 44.2378 23.3461L58.9347 24.2291C60.204 24.3982 62.0908 24.8991 63.4678 24.9868C70.412 25.4565 65.237 24.2479 72.4457 26.6276C75.5478 27.6483 76.3074 28.5 79.1253 31.1928C81.458 33.4222 92.847 42.0518 95.4002 43.1727L104.795 47.5501C106.005 48.1012 105.741 47.5564 106.422 48.7462C105.701 52.203 93.19 56.6055 88.5148 59.0353C85.5402 60.5821 84.8198 61.0893 84.5797 61.1332C84.2856 61.1958 83.6485 60.6885 82.5851 60.3316L83.3937 58.7222C84.2023 59.2169 84.4669 59.3359 84.761 59.2544C84.8933 59.2231 89.4999 56.3487 90.7544 55.7601C93.4498 54.4888 94.5622 54.5639 99.1835 52.1905C101.619 50.9443 103.785 50.6312 104.177 48.7462C102.335 48.5458 98.7669 46.4792 97.037 45.5837C95.8217 44.9512 94.5426 44.6945 93.489 43.968L78.1647 32.4202C73.5092 27.999 73.3229 28.2996 68.0989 26.8593C66.663 26.4647 64.8792 26.6651 63.2865 26.4898C62.2133 26.3708 61.14 26.2393 59.4395 26.0452C58.136 25.8886 57.2342 25.9575 55.47 25.7947L46.1589 24.9868C46.4382 26.3082 49.3541 31.6562 50.2215 33.7228C50.8782 35.2884 51.3388 36.9542 52.02 38.3883C52.6179 39.6282 52.5003 39.3214 53.6274 40.0227C58.8416 43.4921 64.051 47.0241 69.2849 50.4496ZM82.2617 63.8448C83.6044 64.4021 85.0648 65.4417 85.5892 66.356C84.3787 67.1012 84.1778 66.6065 82.0411 65.1536C81.8451 65.0284 81.6883 64.9156 81.5707 64.8029C80.5661 63.8886 81.7128 63.6193 82.2617 63.8448ZM133.101 142.481C132.243 142.256 131.43 144.009 133.11 144.266C133.816 144.372 134.463 144.448 135.335 144.592L155.668 146.877C158.471 147.034 162.867 147.009 165.562 146.414C167.356 146.013 168.12 145.644 170.414 145.644C170.247 143.139 166.577 140.941 163.769 136.519C163.347 135.862 162.72 134.453 162.406 133.758C161.97 132.781 161.686 131.785 161.392 130.545C158.515 118.365 161.436 116.173 161.436 113.286C161.436 111.47 153.355 107.456 152.267 106.98L147.214 104.431C141.873 102.039 127.014 92.4825 122.329 91.9878C122.368 94.0669 122.687 93.8039 124.03 94.3174C125.078 94.7182 125.804 94.9123 126.779 95.3131L136.531 100.06C138.236 100.999 139.275 101.845 141.108 102.809C142.892 103.755 144.21 104.663 145.96 105.621L150.738 108.12C154.384 109.635 157.099 111.22 160.157 113.286C159.873 114.639 159.902 113.906 159.569 114.989C158.108 119.736 158.991 125.98 160.015 130.67C161.735 138.536 166.577 141.579 167.851 144.009C164.714 144.942 162.686 144.961 158.961 145.349C156.359 145.625 145.303 143.865 140.922 143.596C138.192 143.427 135.84 142.769 133.101 142.481Z" fill="#D9D9D9" fill-opacity="0.5"/>
<path fill-rule="evenodd" clip-rule="evenodd" d="M71.4668 54.7474L76.4811 64.3244C77.5192 66.6043 76.9463 66.1158 78.8951 66.9739C80.2466 67.5752 80.8685 68.5272 82.0633 68.6525C81.9458 66.7859 81.4464 66.5855 80.1438 66.1972C80.4131 64.7065 80.3201 64.8818 81.1036 64.149C81.4855 62.5581 81.7059 61.5434 82.1662 60.4285C83.1406 58.374 84.448 54.2213 85.2364 52.2232C86.1962 48.3586 86.676 44.7508 84.9377 41.2182C81.5002 34.2281 75.1247 35.7752 72.3237 38.9884C68.7981 43.0409 68.9499 49.9308 71.4668 54.7474ZM77.3184 62.8462C77.9354 64.0488 78.0039 64.5687 79.1841 64.9695C79.517 63.3661 79.1498 64.982 79.6541 63.5226C81.559 58.0358 86.2109 49.0038 84.3305 43.2225C82.6118 37.9298 77.524 36.8149 74.0572 39.5646C72.8673 40.5104 71.0555 43.3227 70.9673 45.3333C70.8743 47.5632 71.4962 50.9267 72.4804 53.8455C72.691 54.4656 77.2792 62.771 77.3184 62.8462ZM124.983 146.089C126.359 145.619 127.187 143.99 128.009 142.581C130.727 137.915 130.727 138.522 132.573 133.668C133.381 131.532 133.504 130.242 133.822 127.486C134.346 122.914 134.228 118.21 132.666 114.959C128.176 105.589 119.117 108.977 117.516 113.18C114.754 120.414 118.01 130.117 120.806 136.274C121.536 137.877 121.991 139.499 122.804 141.097C123.475 142.412 124.704 144.554 124.983 146.089ZM129.15 143.22C128.377 144.698 128 144.635 127.226 146.496C128.582 146.54 128.915 146.94 129.909 147.573C131.148 148.362 131.584 148.256 131.711 150.185C130.379 150.041 129.16 148.757 127.559 147.667C126.296 146.809 127.368 146.734 126.266 147.316C126.917 149.389 127.931 147.429 128.509 150.185C126.016 150.116 125.096 148.331 123.064 147.73C123.353 144.347 125.003 149.22 122.119 142.788C121.345 141.065 120.699 139.656 119.969 137.758C117.408 131.144 112.286 119.174 117.031 110.925C120.17 105.47 129.033 106.528 132.48 111.508C137.362 118.554 135.781 130.956 132.162 138.065C131.373 139.612 130.032 141.641 129.15 143.22ZM246.378 105.119C247.235 104.38 247.397 103.703 247.979 102.657C248.361 101.968 248.44 101.968 248.846 101.311L251.05 97.1641C254.443 90.055 258.395 77.6219 253.336 69.9991C252.68 69.0158 251.652 67.6315 250.868 67.0114C249.062 65.5708 240.037 63.7293 237.402 72.3354C235.145 79.6888 237.471 86.9671 240.306 93.2181C240.762 94.2328 241.163 95.1974 241.702 96.3498C242.706 98.4857 245.325 104.217 246.378 105.119ZM246.055 107.987L248.807 109.791C248.89 109.854 249.145 110.017 249.218 110.086C249.845 110.687 249.639 110.017 249.899 111.263C248.498 112.09 246.079 109.278 244.777 108.395C245.262 107.543 246.187 107.875 244.694 105.664L239.665 94.8591C236.198 87.2176 232.555 75.1102 238.117 67.5125C240.213 64.6501 243.435 64.149 247.338 64.149C256.172 64.149 257.699 76.056 256.367 85.9398C255.706 90.8692 252.24 97.0138 250.756 100.478L247.739 105.632C247.073 106.528 246.677 107.236 246.055 107.987ZM58.0449 81.3549C58.3289 82.9208 58.7206 83.0711 59.0046 84.6308C57.8637 84.5994 57.5013 85.4074 56.7619 81.3549C57.7461 79.9081 58.6765 78.6616 60.2876 78.4862C60.1847 80.0396 60.4002 79.764 58.0449 81.3549ZM79.1841 144.861C77.9501 146.176 75.0169 142.882 75.0169 140.351C75.0169 138.785 74.919 140.201 75.3401 139.124C77.1911 140.859 74.9484 140.627 78.1704 143.289C78.9245 143.909 78.9245 143.615 79.1841 144.861ZM232.922 148.137C232.496 150.179 229.504 151.363 227.8 151.413C228.265 149.177 232.457 147.11 232.922 148.137ZM164.382 152.233C163.261 152.233 162.615 151.839 162.14 151.005L167.585 149.778C167.565 150.993 167.786 152.233 164.382 152.233ZM123.705 149.778C120.752 149.778 119.739 147.949 117.619 147.316V146.089L122.657 148.243C123.548 148.807 123.441 148.513 123.705 149.778ZM220.112 155.922C220.254 153.774 220.675 154.375 222.134 153.592C222.937 153.166 224.142 151.864 224.691 152.571C225.939 154.169 221.243 155.891 220.112 155.922ZM174.949 148.544C174.949 150.379 170.807 150.987 170.146 150.592C170.616 148.356 170.954 149.346 172.491 148.675C173.074 148.425 174.949 146.959 174.949 148.544ZM70.5364 119.869C70.5364 121.435 70.6344 120.02 70.2132 121.097C69.1262 120.721 68.9891 120.145 68.2154 119.149C67.3339 118.028 66.8051 117.959 66.6925 116.18C67.5641 116.443 68.2252 116.825 68.8568 117.508C69.1604 117.84 70.5364 119.537 70.5364 119.869ZM212.424 160.839C212.777 159.142 213.08 159.348 214.305 158.735C215.7 158.033 215.157 157.607 216.91 157.557C216.87 159.718 216.743 159.123 215.313 160.025C214.04 160.827 214.344 160.839 212.424 160.839ZM189.042 156.743C187.588 156.586 184.733 154.588 184.239 152.233C185.806 152.402 188.7 154.851 189.042 156.743ZM256.627 132.158C256.627 134.1 253.336 135.027 252.142 135.027C252.548 133.085 256.627 130.605 256.627 132.158ZM157.654 150.592C157.605 151.388 157.669 152.233 157.013 152.233C155.769 152.233 153.644 151.901 152.851 151.413C152.86 151.381 152.547 149.884 154.687 150.254C155.676 150.423 156.131 150.592 157.654 150.592ZM110.572 146.496C109.49 148.569 109.647 147.598 107.987 147.36C106.062 147.085 105.612 148.199 105.445 145.681C106.934 145.681 109.642 145.926 110.572 146.496ZM61.5656 99.3814C61.213 98.4356 61.5656 96.1745 61.5656 93.644C63.8524 93.8883 62.9171 97.6088 62.6625 98.3166C62.2707 99.3751 62.3785 99.1058 61.5656 99.3814ZM148.688 151.413C147.645 152.528 145.819 151.062 143.885 151.005V150.185C145.427 149.728 148.189 149.039 148.688 151.413ZM253.425 111.263C252.602 111.752 248.792 110.224 248.621 107.574C249.14 107.894 249.439 107.925 250.002 108.263L252.553 109.923C253.758 110.931 253.087 110.073 253.425 111.263ZM245.413 111.263C244.277 111.144 242.378 109.873 241.423 109.002C240.561 108.213 240.864 108.795 240.61 107.574C242.495 107.63 242.074 108.113 243.45 108.864C244.723 109.56 245.286 109.24 245.413 111.263ZM236.766 145.268V144.04C238.377 143.489 238.705 142.055 240.933 141.992C240.811 143.871 240.713 143.395 239.444 144.184C238.387 144.836 238.205 145.23 236.766 145.268ZM65.4095 114.132C61.2865 114.013 61.1298 105.52 63.8132 111.257C64.484 112.698 65.0521 112.41 65.4095 114.132ZM263.032 127.649C263.032 128.726 262.91 128.419 262.42 128.92C260.471 130.943 257.117 130.931 260.98 127.887C260.98 127.887 263.032 125.801 263.032 127.649ZM264.951 119.049C263.541 119.005 261.558 117.232 260.789 115.773C262.268 114.708 262.219 115.742 263.566 116.725C264.658 117.521 264.829 117.145 264.951 119.049ZM191.285 157.971C192.191 157.494 196.074 159.43 195.643 160.714C195.281 161.798 194.115 160.614 193.42 160.163C192.911 159.831 192.583 159.674 192.161 159.305C190.854 158.183 191.657 159.28 191.285 157.971ZM94.5549 145.268V146.909C93.3307 146.778 93.5168 146.508 91.9988 146.496C90.3045 146.483 90.4759 146.94 89.7512 145.681C93.7127 144.498 90.6228 144.742 94.5549 145.268ZM244.135 139.944C244.934 138.422 246.74 137.238 248.298 137.075C248.293 137.257 248.307 137.808 248.288 137.877C248.082 138.691 248.332 138.234 247.979 138.716C247.926 138.785 245.453 140.721 244.135 139.944ZM181.678 151.005C180.747 150.905 177.574 148.807 177.192 148.137C179.014 146.828 181.545 148.995 181.678 151.005ZM74.0572 126.834C74.0572 128.97 74.1698 127.354 73.7389 128.469C72.6028 127.943 71.5892 124.335 71.5892 124.329C71.8145 121.786 74.0572 125.926 74.0572 126.834ZM206.661 164.522C204.565 164.522 205.236 164.572 204.736 163.708C206.254 163.251 207.767 162.474 209.545 162.474C209.192 164.159 208.316 164.522 206.661 164.522ZM103.526 146.496C102.615 148.174 101.734 146.978 99.3635 146.909V145.681C101.44 145.456 102.781 145.199 103.526 146.496ZM259.506 114.953C259.252 114.921 254.551 113.318 255.55 112.034C256.025 111.426 255.187 111.57 257.773 112.66C258.875 113.124 259.399 113.293 259.506 114.953ZM75.9816 135.027C75.9816 137.727 76.104 135.929 75.6584 137.075C74.7084 136.637 74.8504 136.944 74.6937 135.033C74.5713 133.48 74.4636 133.48 74.3804 132.158H75.6584C75.7416 133.443 75.9816 133.612 75.9816 135.027ZM266.234 122.325C266.234 124.962 266.376 124.661 265.275 125.601C264.76 124.429 264.951 123.534 264.951 121.504C264.951 119.938 264.854 121.36 265.275 120.277C265.671 120.464 266.234 120.164 266.234 122.325ZM76.6182 69.0659C76.2411 70.8886 74.5224 71.4836 73.0974 71.5212C73.1855 70.162 73.068 70.281 73.9348 69.7298C75.11 68.9845 76.0208 68.1263 76.6182 69.0659ZM85.589 144.448V145.681C82.1172 145.681 83.3022 145.5 81.1036 145.268V144.04L85.589 144.448ZM202.175 162.887V164.115C200.437 164.115 200.868 164.247 199.458 163.495C198.39 162.919 198.684 163.752 198.331 162.067C200.31 161.478 198.361 161.747 202.175 162.887ZM140.677 150.185C139.884 151.575 140.232 150.987 139.012 150.724C137.945 150.486 137.68 150.435 136.833 150.185V148.957C138.474 148.957 139.835 148.707 140.677 150.185ZM67.0108 73.9828C67.3633 72.2979 67.285 72.9868 68.5532 72.2665C69.0821 71.9722 70.174 70.8698 70.6539 71.4836C71.6725 72.7864 69.1017 73.9828 67.0108 73.9828ZM61.8888 106.76H60.9241C60.7576 105.839 60.6058 105.814 60.6058 104.712V103.478C60.6058 102.238 61.1592 102.087 61.8888 101.843V106.76ZM118.578 149.364C116.923 149.364 115.253 148.92 114.416 147.316C115.062 146.922 118.045 146.796 118.578 149.364ZM65.0913 75.2104C64.7387 76.8953 64.9541 76.056 63.8328 76.8828C63.0836 77.4277 63.1668 77.6344 61.8888 77.672C62.0504 75.1352 64.675 74.6029 65.0913 75.2104ZM238.049 107.987C238.793 108.207 242.089 109.159 241.016 110.531C240.536 111.144 239.812 110.374 239.322 110.061C238.201 109.34 238.166 109.816 238.049 107.987ZM135.555 148.957V150.592C132.642 150.511 132.862 149.859 132.671 148.957C134.649 148.369 133.567 148.895 135.555 148.957ZM61.8888 90.7816H60.6058C60.5569 87.844 60.1211 89.7731 59.6461 87.4995L60.3316 87.274C61.2081 87.8815 61.7664 88.9526 61.8888 90.7816ZM77.7787 41.7506C76.6622 41.7506 75.6535 42.3331 74.919 43.2664C74.1894 44.1996 73.7389 45.4962 73.7389 46.918C73.7389 48.3461 74.1894 49.6426 74.919 50.5759C75.6535 51.5092 76.6622 52.0917 77.7787 52.0917C78.8951 52.0917 79.9039 51.5092 80.6335 50.5759C81.3631 49.6426 81.8185 48.3461 81.8185 46.918C81.8185 45.4962 81.3631 44.1996 80.6335 43.2664C79.9039 42.3331 78.8951 41.7506 77.7787 41.7506ZM75.8592 44.4627C76.3488 43.8363 77.0295 43.448 77.7787 43.448C78.5279 43.448 79.2085 43.8363 79.6982 44.4627C80.1879 45.0953 80.4964 45.9597 80.4964 46.918C80.4964 47.8826 80.1879 48.747 79.6982 49.3796C79.2085 50.0059 78.5279 50.3943 77.7787 50.3943C77.0295 50.3943 76.3488 50.0059 75.8592 49.3796C75.3646 48.747 75.061 47.8826 75.061 46.918C75.061 45.9597 75.3646 45.0953 75.8592 44.4627ZM125.022 113.963C123.744 113.963 122.584 114.627 121.742 115.698C120.899 116.782 120.38 118.266 120.38 119.901C120.38 121.536 120.899 123.014 121.742 124.091C122.584 125.168 123.744 125.832 125.022 125.832C126.3 125.832 127.461 125.168 128.298 124.097C129.145 123.014 129.664 121.536 129.664 119.901C129.664 118.266 129.145 116.782 128.303 115.704C127.461 114.627 126.3 113.963 125.022 113.963ZM122.677 116.894C123.274 116.13 124.102 115.654 125.022 115.654C125.938 115.654 126.771 116.13 127.368 116.894C127.97 117.665 128.337 118.723 128.337 119.901C128.337 121.072 127.97 122.131 127.368 122.901C126.771 123.665 125.938 124.141 125.022 124.141C124.102 124.141 123.274 123.665 122.677 122.901C122.075 122.131 121.702 121.072 121.702 119.901C121.702 118.723 122.075 117.665 122.677 116.894ZM246.055 71.5838C244.684 71.5838 243.445 72.2979 242.544 73.4441C241.648 74.5903 241.09 76.1813 241.09 77.935C241.09 79.6888 241.648 81.2735 242.549 82.426C243.445 83.5785 244.684 84.2863 246.055 84.2863C247.426 84.2863 248.67 83.5785 249.566 82.426C250.467 81.2735 251.02 79.6888 251.02 77.935C251.02 76.1813 250.467 74.5903 249.566 73.4441C248.665 72.2979 247.426 71.5838 246.055 71.5838ZM243.479 74.6404C244.14 73.8011 245.051 73.275 246.055 73.275C247.064 73.275 247.974 73.7948 248.631 74.6404C249.292 75.486 249.698 76.651 249.698 77.935C249.698 79.2253 249.292 80.3904 248.636 81.2297C247.974 82.069 247.064 82.5951 246.055 82.5951C245.051 82.5951 244.14 82.069 243.479 81.2297C242.823 80.3904 242.417 79.2253 242.417 77.935C242.417 76.651 242.823 75.486 243.479 74.6404Z" fill="#D9D9D9"/>
</svg>
