<svg width="21" height="16" viewBox="0 0 21 16" fill="none" xmlns="http://www.w3.org/2000/svg">
<path d="M9.81516 14.0717C12.1629 14.0142 14.3392 16.2231 16.5382 15.4358C18.833 14.6142 20.8386 12.4045 20.993 10.0696C21.146 7.75647 18.7557 6.12605 17.2755 4.2888C16.3074 3.08718 15.2504 2.03051 13.8883 1.25125C12.6361 0.534914 11.2725 0.101329 9.81516 0.0208185C8.27951 -0.0640182 6.7444 0.0952195 5.3845 0.781459C3.86298 1.54926 2.59786 2.67459 1.7371 4.09722C0.702709 5.80683 -0.159979 7.67282 0.0251789 9.63916C0.239697 11.9173 0.671434 14.7915 2.83642 15.7718C5.06 16.7785 7.35495 14.1321 9.81516 14.0717Z" fill="url(#paint0_linear_366_2942)"/>
<defs>
<linearGradient id="paint0_linear_366_2942" x1="18.7374" y1="13.1704" x2="7.6597" y2="-1.06436" gradientUnits="userSpaceOnUse">
<stop stop-color="#00A39C"/>
<stop offset="1" stop-color="#7DF4CD"/>
</linearGradient>
</defs>
</svg>
