<svg width="120" height="111" viewBox="0 0 120 111" fill="none" xmlns="http://www.w3.org/2000/svg">
<path fill-rule="evenodd" clip-rule="evenodd" d="M50.5964 42.6084C50.5964 28.7207 69.4029 30.4056 69.4029 41.4596C69.4029 43.5784 69.4285 44.1146 68.4549 46.2079C66.0464 51.4158 58.3855 53.6368 53.3892 48.6332C51.9031 47.1525 50.5964 45.4421 50.5964 42.6084ZM46.9069 41.7659C46.9069 43.7572 47.3168 46.0547 48.1367 47.6375C54.4141 59.9424 73.0924 56.1641 73.0924 41.7659C73.0924 34.8731 67.3275 28.976 59.7178 28.976C52.8768 28.976 46.9069 34.9497 46.9069 41.7659ZM54.3116 87.4369H65.6877C64.6372 91.9555 65.124 102.142 65.124 107.298H54.8753C54.8753 104.031 55.2852 89.6069 54.3116 87.4369ZM4.47709 90.5514V107.298H1.9149C-0.570421 107.298 -0.980371 111 2.76042 111H117.239C121.133 111 120.416 107.298 118.11 107.298H115.548V90.5514C115.548 86.7221 113.472 83.2247 111.628 81.1313C109.475 78.7061 106.657 77.2254 103.019 76.383C102.66 76.6127 99.4829 79.4975 99.3036 79.7783C103.275 79.7783 106.273 80.6718 108.937 83.531C111.192 85.9563 112.115 89.0963 112.115 93.6915V106.456C112.115 107.12 111.935 107.298 111.269 107.298H68.8392V91.1386C68.8392 89.0963 69.326 87.6922 69.9666 86.3137C71.9394 82.0759 76.0389 79.7783 81.3683 79.7783C80.9583 78.655 80.9071 79.2932 79.5748 78.1444C78.8061 77.4807 78.4986 76.9446 77.6531 76.383C75.3215 76.9191 73.2205 77.7615 71.5039 79.0379C70.1972 80.0336 67.8399 82.1269 67.4044 83.7608H52.5949C51.7238 80.4931 46.3688 77.302 42.3462 76.383C41.5519 76.9191 41.2957 77.3786 40.5527 77.9913C39.3741 78.9614 39.0154 78.7316 38.631 79.7783C43.9604 79.7783 48.0599 82.0759 50.0328 86.3137C50.6733 87.6922 51.1857 89.0963 51.1857 91.1386V107.298H8.73031C8.08977 107.298 7.88479 107.12 7.88479 106.456V93.6915C7.88479 84.9351 12.2661 79.7783 20.6957 79.7783C20.5164 79.4975 17.3649 76.6127 17.0062 76.383C13.5985 77.1743 10.7032 78.5274 8.37161 81.1313C6.52683 83.2247 4.47709 86.7221 4.47709 90.5514ZM89.3367 3.728H91.0533C98.4324 3.728 102.968 13.5055 97.2538 19.5559C91.9501 25.1722 81.5989 22.4151 80.9583 13.5311C80.5996 8.34871 85.0578 3.728 89.3367 3.728ZM77.3713 11.9483C77.3713 15.1904 77.2175 15.8797 78.7036 18.8666C79.1648 19.7856 79.2417 20.0664 79.8566 20.8323C90.4384 33.7499 108.246 20.8578 102.429 7.99131C96.1777 -5.89636 77.3713 0.307141 77.3713 11.9483ZM29.8171 75.2342C21.1569 75.2342 17.288 65.2269 22.4636 59.6871C28.9203 52.8454 39.3741 57.6703 39.0666 66.0948C38.8616 71.073 34.8134 75.2342 29.8171 75.2342ZM16.4169 65.8651C16.4169 72.6813 22.5661 78.9358 29.2534 78.9358C36.3507 78.9358 42.628 73.3961 42.628 66.4523C42.628 62.0102 41.8081 59.5084 38.7079 56.445C34.9159 52.6412 28.7154 51.6966 23.7191 54.1474C19.594 56.1642 16.4169 61.1167 16.4169 65.8651ZM29.8171 22.4661C24.2572 22.4661 20.132 17.9986 20.132 13.3779C20.132 8.27213 23.9497 3.728 28.9716 3.728C32.1487 3.728 34.4034 4.16199 36.7094 6.76593C41.8081 12.5099 38.0161 22.4661 29.8171 22.4661ZM16.4169 13.0971C16.4169 14.5777 17.1343 17.2838 17.6467 18.4071C18.3129 19.7856 19.3121 21.2408 20.337 22.2619C23.8728 25.7849 29.5353 27.2911 34.7365 25.0956C38.7335 23.4362 42.628 18.7645 42.628 14.2203C42.628 9.95703 42.09 6.99569 38.8616 3.77906C30.5089 -4.54333 16.4169 1.91546 16.4169 13.0971ZM89.6185 56.5216H91.0533C95.8446 56.5216 99.8673 60.9891 99.8673 65.8651C99.8673 70.9453 95.6397 75.2342 90.1822 75.2342C85.1859 75.2342 81.1377 71.073 80.9583 66.0948C80.7534 61.2444 84.6991 56.5216 89.6185 56.5216ZM77.3713 64.7418C77.3713 69.0562 77.9862 72.3749 81.522 75.3618C93.2312 85.2414 107.272 72.6047 102.609 61.1678C98.7655 51.7477 87.3638 50.3946 81.2914 56.445C79.4466 58.2575 77.3713 61.2444 77.3713 64.7418ZM4.47709 37.7834V54.2495C4.47709 59.0744 10.3189 58.2065 14.444 58.2065C15.2639 58.2065 16.8268 55.628 17.5699 54.5303L9.85768 54.5558C8.78156 54.5558 7.88479 54.7601 7.88479 53.6623V41.4596C7.88479 32.4224 11.8818 27.0103 20.6957 27.0103C20.5164 26.7294 17.3649 23.8192 17.0062 23.5894C10.1139 25.1977 4.47709 30.6864 4.47709 37.7834ZM99.3036 27.0103C108.143 27.0103 112.115 32.4479 112.115 41.4596C112.115 56.8279 113.293 54.5303 107.861 54.5303C106.042 54.5303 104.249 54.5303 102.429 54.5303C105.581 59.2021 104.223 58.2065 110.705 58.2065C113.447 58.2065 115.548 56.9555 115.548 54.2495V37.7834C115.548 30.6864 109.911 25.1977 103.019 23.5894C102.66 23.8192 99.4829 26.7294 99.3036 27.0103ZM59.7178 76.6638C61.0245 76.6638 62.1775 75.3618 63.9198 73.7535C66.7894 71.124 66.4051 71.1496 65.1753 63.8483C64.8678 62.0358 64.4322 59.6616 64.2785 57.9256C59.5641 57.9256 60.7171 58.5383 61.2295 62.1124C61.3832 63.1846 61.5626 64.5121 61.7676 65.8396C62.4081 70.4347 63.0743 70.0773 59.9997 72.1196C56.8738 70.0263 57.6681 69.3115 58.2061 66.0693C59.6666 57.4406 59.8459 58.3596 57.7705 58.1809C56.7201 58.0788 56.8225 57.9512 55.7208 57.9256L53.9529 69.5412C53.5686 71.7367 54.6447 72.0431 56.0795 73.4727C56.7713 74.1364 58.821 76.6638 59.7178 76.6638ZM90.1822 47.7141C91.6939 47.7141 92.6675 46.2334 93.5387 45.3655C97.0489 41.868 96.9976 43.5274 95.6909 35.7156C95.3834 33.8265 94.7429 30.7885 94.7429 28.976C93.3337 28.976 92.77 29.2568 91.0533 29.2568C91.079 31.197 92.5138 38.0642 92.7444 40.8979L90.5409 43.2466C89.8747 42.7615 89.6698 42.5062 89.1061 41.9701C87.3894 40.3108 88.0043 41.434 88.8242 35.5624C89.6441 29.5887 91.4377 28.976 86.2108 28.976L84.3404 40.515C84.0073 42.6339 84.0586 42.0212 86.5695 44.523C87.2357 45.1868 89.2854 47.7141 90.1822 47.7141ZM90.1822 100.508C92.0014 100.508 96.4596 95.0956 96.4596 95.0956C96.4596 90.7812 94.7429 85.0372 94.7429 81.7695C93.1287 81.7695 92.77 82.0503 91.0533 82.0503C91.079 83.965 92.5138 90.8578 92.7444 93.6915L90.5409 96.0146L87.9787 93.6149C88.3118 91.9555 88.5936 90.0664 88.9011 88.1262C89.2342 86.0328 89.6185 84.2714 89.6185 82.0503C87.9531 82.0503 87.6456 81.7695 86.2108 81.7695L84.3404 93.283C84.0073 95.5296 85.2884 96.0401 86.5695 97.291C87.2357 97.9803 89.2854 100.508 90.1822 100.508ZM23.5397 94.5339C23.5397 95.504 28.1261 100.508 29.8171 100.508C30.6882 100.508 33.1992 97.8271 33.8654 97.1634C35.992 95.07 35.9664 95.453 35.4283 91.7768C33.5323 79.1401 34.9159 82.0503 30.3808 82.0503L32.0975 93.9723L29.8683 96.0146C28.7666 95.6827 27.4855 94.1255 27.383 93.8191C27.0499 92.9511 28.9716 84.3479 28.9716 82.0503C27.8955 82.0503 27.6905 81.9738 26.8193 81.8461C25.2564 81.6419 25.4101 81.1313 24.6927 86.3137C24.3596 88.8665 23.5397 91.93 23.5397 94.5339ZM23.5397 41.7659C23.5397 42.736 28.1261 47.7141 29.8171 47.7141C30.8164 47.7141 33.1223 45.1102 33.8654 44.3698C35.992 42.2765 35.9664 42.6594 35.4283 39.0088C33.5067 26.1933 34.9159 29.2568 30.3808 29.2568L32.0975 41.1787L29.7402 43.3997C29.3303 43.1445 27.7417 41.7404 27.4599 41.2298C26.9218 40.1576 28.9716 31.9118 28.9716 29.2568C24.744 29.2568 25.5895 27.2655 24.6415 34.0562C24.334 36.3027 23.5397 39.2896 23.5397 41.7659ZM38.631 27.0103C40.9882 27.0103 42.4999 27.2655 44.2166 27.9548C46.3432 28.7973 46.5738 29.7163 48.0342 30.6864C48.5211 30.3545 50.3146 28.8483 50.5964 28.4143C48.931 25.9381 45.7283 24.3808 42.3462 23.5894C41.885 23.8958 38.9129 26.5763 38.631 27.0103ZM69.4029 28.4143C69.7103 28.8483 71.4782 30.3545 71.9651 30.6864C73.4255 29.7163 73.6817 28.7973 75.7827 27.9548C77.6787 27.189 78.7805 27.0103 81.3683 27.0103C81.0864 26.5763 78.1399 23.8958 77.6531 23.5894C74.3479 24.3553 71.0427 25.9891 69.4029 28.4143ZM68.2755 56.5216C69.736 56.5216 71.5807 56.4705 72.6056 56.7258C74.1429 57.0832 74.7322 57.6448 75.9621 57.9256C76.6026 56.9555 77.32 56.011 77.935 55.0919C71.837 51.8753 72.8106 52.8709 69.2235 55.4749C68.2243 56.1897 68.5574 55.6791 68.2755 56.5216ZM42.0644 55.0919C42.6793 56.011 43.3967 56.9555 44.0629 57.9256C47.1375 57.2108 44.9852 56.5216 51.7494 56.5216C51.3907 55.577 51.3651 55.9344 49.7765 54.7601C47.4449 53.0496 48.1111 51.9008 42.0644 55.0919Z" fill="url(#paint0_linear_576_4091)"/>
<defs>
<linearGradient id="paint0_linear_576_4091" x1="101.044" y1="97.059" x2="21.8938" y2="13.2787" gradientUnits="userSpaceOnUse">
<stop stop-color="#00A39C"/>
<stop offset="1" stop-color="#7DF4CD"/>
</linearGradient>
</defs>
</svg>
