<svg width="78" height="77" viewBox="0 0 78 77" fill="none" xmlns="http://www.w3.org/2000/svg">
<g clip-path="url(#clip0_574_1445)">
<g filter="url(#filter0_d_574_1445)">
<path d="M38.9756 69.9402C43.4854 69.4518 48.1163 69.8227 52.3103 68.121C56.5451 66.4027 60.0377 63.3782 63.1942 60.1136C66.3971 56.8011 68.7299 52.9099 70.9175 48.877C73.3895 44.3198 77.4817 39.8862 76.9535 34.7475C76.4255 29.6119 71.8099 25.8168 68.1651 22.1019C64.9569 18.8321 60.3193 17.4578 56.9445 14.3544C53.0589 10.7812 51.6192 4.68332 46.8041 2.4586C42.0267 0.251243 36.1531 0.802925 31.1413 2.43233C26.2364 4.027 22.2644 7.65708 18.9162 11.5254C15.879 15.0345 15.372 19.972 12.6898 23.7504C9.72967 27.9203 3.60614 29.9566 2.3336 34.8855C1.08881 39.707 3.54371 44.8899 6.12797 49.1663C8.55895 53.1891 13.5979 54.8515 16.5954 58.4859C19.779 62.346 19.7822 68.8633 24.2656 71.158C28.6786 73.4165 34.0304 70.4757 38.9756 69.9402Z" fill="white"/>
</g>
<path d="M24.6409 48.8485C23.3665 48.8485 22.3332 49.8661 22.3332 51.1212C22.3332 52.3764 23.3665 53.3939 24.6409 53.3939H39.3849C40.6594 53.3939 41.6926 52.3764 41.6926 51.1212V41.2727H49.3846V51.1212C49.3846 52.3764 50.4178 53.3939 51.6923 53.3939C52.9668 53.3939 54 52.3764 54 51.1212V24.8405C54 23.5853 52.9668 22.5677 51.6923 22.5677C50.4178 22.5677 49.3846 23.5853 49.3846 24.8405V36.7273H18.6154V18.5455H30.1665C31.4409 18.5455 32.4742 17.5279 32.4742 16.2727C32.4742 15.0176 31.4409 14 30.1665 14H16.3077C15.0332 14 14 15.0176 14 16.2727V61.7273C14 62.9824 15.0332 64 16.3077 64H39.3846C40.6591 64 41.6923 62.9824 41.6923 61.7273C41.6923 60.4721 40.6591 59.4545 39.3846 59.4545H18.6154V41.2727H37.0772V48.8485H24.6409Z" fill="url(#paint0_linear_574_1445)"/>
<path d="M61.7222 14H38.9447C37.6868 14 36.667 15.0176 36.667 16.2727V26.1212H25.2778C24.0198 26.1212 23 27.1388 23 28.3939C23 29.6491 24.0198 30.6667 25.2778 30.6667H38.9447C40.2027 30.6667 41.2225 29.6491 41.2225 28.3939V18.5455H59.4444V59.4545H48.0556C46.7976 59.4545 45.7778 60.4721 45.7778 61.7273C45.7778 62.9824 46.7976 64 48.0556 64H61.7222C62.9802 64 64 62.9824 64 61.7273V16.2727C64 15.0176 62.9802 14 61.7222 14Z" fill="url(#paint1_linear_574_1445)"/>
</g>
<defs>
<filter id="filter0_d_574_1445" x="-3" y="1" width="85" height="81" filterUnits="userSpaceOnUse" color-interpolation-filters="sRGB">
<feFlood flood-opacity="0" result="BackgroundImageFix"/>
<feColorMatrix in="SourceAlpha" type="matrix" values="0 0 0 0 0 0 0 0 0 0 0 0 0 0 0 0 0 0 127 0" result="hardAlpha"/>
<feOffset dy="5"/>
<feGaussianBlur stdDeviation="2.5"/>
<feComposite in2="hardAlpha" operator="out"/>
<feColorMatrix type="matrix" values="0 0 0 0 0 0 0 0 0 0 0 0 0 0 0 0 0 0 0.15 0"/>
<feBlend mode="normal" in2="BackgroundImageFix" result="effect1_dropShadow_574_1445"/>
<feBlend mode="normal" in="SourceGraphic" in2="effect1_dropShadow_574_1445" result="shape"/>
</filter>
<linearGradient id="paint0_linear_574_1445" x1="15.1302" y1="15.533" x2="59.4832" y2="53.5917" gradientUnits="userSpaceOnUse">
<stop stop-color="#FF7E00"/>
<stop offset="1" stop-color="#FEB200"/>
</linearGradient>
<linearGradient id="paint1_linear_574_1445" x1="24.1585" y1="15.533" x2="68.6648" y2="54.678" gradientUnits="userSpaceOnUse">
<stop stop-color="#FF7E00"/>
<stop offset="1" stop-color="#FEB200"/>
</linearGradient>
<clipPath id="clip0_574_1445">
<rect width="78" height="77" fill="white"/>
</clipPath>
</defs>
</svg>
