<svg width="100" height="100" viewBox="0 0 100 100" fill="none" xmlns="http://www.w3.org/2000/svg">
<path d="M85.3555 14.6447C75.9117 5.20098 63.3555 0 50 0C36.6445 0 24.0883 5.20098 14.6445 14.6447C5.20078 24.0885 0 36.6445 0 50C0 63.3555 5.20078 75.9117 14.6445 85.3553C24.0883 94.7988 36.6445 100 50 100C63.3555 100 75.9117 94.799 85.3555 85.3553C94.7992 75.9115 100 63.3555 100 50C100 36.6445 94.7992 24.0883 85.3555 14.6447ZM50 90.1859C27.8412 90.1859 9.81406 72.1586 9.81406 50C9.81406 49.9637 9.81523 49.9277 9.81543 49.8918C9.81543 49.8826 9.81406 49.8738 9.81406 49.8647C9.81406 49.8492 9.81602 49.8344 9.81641 49.8191C9.91387 27.926 27.6066 10.1141 49.4539 9.82109C49.4996 9.81895 49.5449 9.81426 49.5912 9.81426C49.6189 9.81426 49.6459 9.81758 49.6734 9.81836C49.7824 9.81758 49.891 9.81426 50.0002 9.81426C72.159 9.81426 90.1861 27.8416 90.1861 50.0002C90.1861 72.1588 72.1588 90.1859 50 90.1859Z" fill="url(#paint0_linear_288_1171)"/>
<path d="M80.5264 52.4145C78.8924 52.4145 77.5678 51.0899 77.5678 49.4559C77.5678 47.8219 78.8924 46.4973 80.5264 46.4973H84.0926C82.4176 30.0762 69.1 17.0495 52.5512 15.8264V18.9309C52.5512 20.5649 51.2266 21.8895 49.5926 21.8895C47.9586 21.8895 46.634 20.5649 46.634 18.9309V15.8971C30.3301 17.4948 17.3432 30.5655 15.8738 46.9061H19.0676C20.7016 46.9061 22.0262 48.2307 22.0262 49.8647C22.0262 51.4987 20.7016 52.8233 19.0676 52.8233H15.8496C17.21 69.427 30.4572 82.7149 47.043 84.1401V80.3895C47.043 78.7555 48.3676 77.4309 50.0016 77.4309C51.6355 77.4309 52.9602 78.7555 52.9602 80.3895V84.1401C69.6816 82.7032 83.0096 69.2083 84.1842 52.4145H80.5264ZM61.9781 42.2079L52.0938 52.0924C51.5389 52.6473 50.7865 52.959 50.0018 52.959C49.2172 52.959 48.4645 52.6473 47.9098 52.0924L30.7041 34.8868C29.5486 33.7315 29.5486 31.8583 30.7041 30.7028C31.8594 29.5473 33.7326 29.5473 34.8881 30.7028L50.002 45.8165L57.7945 38.0239C58.9498 36.8684 60.823 36.8684 61.9785 38.0239C63.1336 39.1791 63.1336 41.0526 61.9781 42.2079Z" fill="url(#paint1_linear_288_1171)"/>
<defs>
<linearGradient id="paint0_linear_288_1171" x1="50" y1="100" x2="56.9228" y2="0.481564" gradientUnits="userSpaceOnUse">
<stop stop-color="#00A39C"/>
<stop offset="1" stop-color="#7DF4CD"/>
</linearGradient>
<linearGradient id="paint1_linear_288_1171" x1="50" y1="100" x2="56.9228" y2="0.481564" gradientUnits="userSpaceOnUse">
<stop stop-color="#00A39C"/>
<stop offset="1" stop-color="#7DF4CD"/>
</linearGradient>
</defs>
</svg>
