<svg width="132" height="101" viewBox="0 0 132 101" fill="none" xmlns="http://www.w3.org/2000/svg">
<path d="M129.8 10.9238C129.217 10.9238 128.657 11.154 128.244 11.5637C127.832 11.9735 127.6 12.5292 127.6 13.1086V91.7601H115.654C101.497 91.7614 87.385 93.3578 73.59 96.5186C72.7247 96.7152 71.8197 96.6463 70.9947 96.321C70.1697 95.9956 69.4636 95.4291 68.97 94.6965C76.8248 89.9216 85.8547 87.3934 95.0642 87.3906H121C121.583 87.3906 122.143 87.1604 122.556 86.7507C122.968 86.341 123.2 85.7853 123.2 85.2058V69.9125C123.2 69.333 122.968 68.7773 122.556 68.3676C122.143 67.9579 121.583 67.7277 121 67.7277C120.417 67.7277 119.857 67.9579 119.444 68.3676C119.032 68.7773 118.8 69.333 118.8 69.9125V83.0211H95.0642C85.6488 83.0122 76.3924 85.4302 68.2 90.0385V30.5867C68.2 30.0073 67.9682 29.4516 67.5556 29.0418C67.1431 28.6321 66.5835 28.4019 66 28.4019C65.4165 28.4019 64.8569 28.6321 64.4444 29.0418C64.0318 29.4516 63.8 30.0073 63.8 30.5867V90.0364C55.6076 85.4284 46.351 83.0111 36.9358 83.0211H13.2V4.36953H47.08C51.5154 4.37243 55.7682 6.12422 58.9035 9.23985C62.0388 12.3555 63.8 16.58 63.8 20.9847C63.8 21.5641 64.0318 22.1198 64.4444 22.5295C64.8569 22.9393 65.4165 23.1694 66 23.1694C66.5835 23.1694 67.1431 22.9393 67.5556 22.5295C67.9682 22.1198 68.2 21.5641 68.2 20.9847C68.2 16.58 69.9612 12.3555 73.0965 9.23985C76.2318 6.12422 80.4846 4.37243 84.92 4.36953H118.8V61.1734C118.8 61.7529 119.032 62.3086 119.444 62.7183C119.857 63.128 120.417 63.3582 121 63.3582C121.583 63.3582 122.143 63.128 122.556 62.7183C122.968 62.3086 123.2 61.7529 123.2 61.1734V2.18477C123.2 1.60533 122.968 1.04963 122.556 0.639903C122.143 0.23018 121.583 0 121 0H84.92C80.9876 0.00289989 77.1338 1.09456 73.7917 3.15236C70.4495 5.21016 67.7512 8.1526 66 11.6492C64.2488 8.1526 61.5505 5.21016 58.2083 3.15236C54.8661 1.09456 51.0124 0.00289989 47.08 0H11C10.4165 0 9.85695 0.23018 9.44437 0.639903C9.03179 1.04963 8.8 1.60533 8.8 2.18477V85.2058C8.8 85.7853 9.03179 86.341 9.44437 86.7507C9.85695 87.1604 10.4165 87.3906 11 87.3906H36.9358C46.1468 87.3926 55.1784 89.9208 63.0344 94.6965C62.539 95.4273 61.8328 95.9923 61.0083 96.3175C60.1839 96.6427 59.2797 96.7128 58.4144 96.5186C44.618 93.3572 30.5049 91.7609 16.346 91.7601H4.4V13.1086C4.4 12.5292 4.16821 11.9735 3.75563 11.5637C3.34305 11.154 2.78348 10.9238 2.2 10.9238C1.61652 10.9238 1.05694 11.154 0.644365 11.5637C0.231785 11.9735 0 12.5292 0 13.1086V93.9449C0 94.5243 0.231785 95.08 0.644365 95.4898C1.05694 95.8995 1.61652 96.1297 2.2 96.1297H16.346C30.1702 96.1318 43.9496 97.6908 57.42 100.777C58.9687 101.132 60.5854 101.061 62.097 100.573C63.6085 100.085 64.9577 99.198 66 98.0064C67.042 99.1984 68.3912 100.086 69.9028 100.574C71.4144 101.062 73.0313 101.132 74.58 100.777C88.0505 97.6913 101.83 96.1323 115.654 96.1297H129.8C130.383 96.1297 130.943 95.8995 131.356 95.4898C131.768 95.08 132 94.5243 132 93.9449V13.1086C132 12.5292 131.768 11.9735 131.356 11.5637C130.943 11.154 130.383 10.9238 129.8 10.9238Z" fill="url(#paint0_linear_156_3194)"/>
<path d="M58.7885 18.8174C55.3218 16.5184 51.2464 15.292 47.0779 15.2934H21.9979C21.4144 15.2934 20.8548 15.5236 20.4422 15.9333C20.0296 16.343 19.7979 16.8987 19.7979 17.4781C19.7979 18.0576 20.0296 18.6133 20.4422 19.023C20.8548 19.4327 21.4144 19.6629 21.9979 19.6629H47.0779C50.3811 19.6592 53.611 20.6302 56.3575 22.4529C56.8429 22.7744 57.4371 22.8913 58.0094 22.7778C58.5816 22.6644 59.085 22.3298 59.4089 21.8477C59.7327 21.3656 59.8504 20.7755 59.7361 20.2072C59.6218 19.6389 59.2849 19.139 58.7995 18.8174H58.7885Z" fill="url(#paint1_linear_156_3194)"/>
<path d="M110.002 15.2934H84.9223C80.75 15.2901 76.6706 16.5165 73.2007 18.8174C72.9604 18.9766 72.7539 19.1813 72.5932 19.4198C72.4325 19.6583 72.3206 19.9258 72.2641 20.2072C72.2075 20.4886 72.2072 20.7783 72.2634 21.0598C72.3195 21.3412 72.431 21.609 72.5913 21.8477C72.7517 22.0864 72.9578 22.2914 73.1979 22.451C73.438 22.6106 73.7075 22.7217 73.9908 22.7779C74.2742 22.8341 74.5659 22.8343 74.8493 22.7785C75.1328 22.7227 75.4024 22.6121 75.6427 22.4529C78.3895 20.6308 81.6192 19.6598 84.9223 19.6629H110.002C110.586 19.6629 111.145 19.4327 111.558 19.023C111.971 18.6133 112.202 18.0576 112.202 17.4781C112.202 16.8987 111.971 16.343 111.558 15.9333C111.145 15.5236 110.586 15.2934 110.002 15.2934Z" fill="url(#paint2_linear_156_3194)"/>
<path d="M58.7885 29.741C55.3218 27.4419 51.2464 26.2155 47.0779 26.2169H21.9979C21.4144 26.2169 20.8548 26.4471 20.4422 26.8568C20.0296 27.2666 19.7979 27.8223 19.7979 28.4017C19.7979 28.9811 20.0296 29.5368 20.4422 29.9466C20.8548 30.3563 21.4144 30.5865 21.9979 30.5865H47.0779C50.3811 30.5827 53.611 31.5538 56.3575 33.3764C56.8429 33.698 57.4371 33.8149 58.0094 33.7014C58.5816 33.5879 59.085 33.2533 59.4089 32.7712C59.7327 32.2891 59.8504 31.699 59.7361 31.1308C59.6218 30.5625 59.2849 30.0626 58.7995 29.741H58.7885Z" fill="url(#paint3_linear_156_3194)"/>
<path d="M110.002 26.2169H84.9223C80.75 26.2137 76.6706 27.4401 73.2007 29.741C72.9604 29.9002 72.7539 30.1049 72.5932 30.3434C72.4325 30.5818 72.3206 30.8494 72.2641 31.1308C72.2075 31.4122 72.2072 31.7019 72.2634 31.9833C72.3195 32.2648 72.431 32.5325 72.5913 32.7712C72.7517 33.0099 72.9578 33.215 73.1979 33.3745C73.438 33.5342 73.7075 33.6452 73.9908 33.7014C74.2742 33.7576 74.5659 33.7578 74.8493 33.7021C75.1328 33.6463 75.4024 33.5357 75.6427 33.3764C78.3895 31.5544 81.6192 30.5834 84.9223 30.5865H110.002C110.586 30.5865 111.145 30.3563 111.558 29.9466C111.971 29.5368 112.202 28.9811 112.202 28.4017C112.202 27.8223 111.971 27.2666 111.558 26.8568C111.145 26.4471 110.586 26.2169 110.002 26.2169Z" fill="url(#paint4_linear_156_3194)"/>
<path d="M58.7885 40.665C55.3218 38.366 51.2464 37.1396 47.0779 37.141H21.9979C21.4144 37.141 20.8548 37.3712 20.4422 37.7809C20.0296 38.1906 19.7979 38.7463 19.7979 39.3257C19.7979 39.9052 20.0296 40.4609 20.4422 40.8706C20.8548 41.2803 21.4144 41.5105 21.9979 41.5105H47.0779C50.3811 41.5068 53.611 42.4778 56.3575 44.3005C56.8429 44.622 57.4371 44.7389 58.0094 44.6255C58.5816 44.512 59.085 44.1774 59.4089 43.6953C59.7327 43.2132 59.8504 42.6231 59.7361 42.0548C59.6218 41.4865 59.2849 40.9866 58.7995 40.665H58.7885Z" fill="url(#paint5_linear_156_3194)"/>
<path d="M110.002 37.141H84.9223C80.75 37.1377 76.6706 38.3642 73.2007 40.665C72.9604 40.8243 72.7539 41.0289 72.5932 41.2674C72.4325 41.5059 72.3206 41.7734 72.2641 42.0548C72.2075 42.3362 72.2072 42.6259 72.2634 42.9074C72.3195 43.1888 72.431 43.4566 72.5913 43.6953C72.7517 43.934 72.9578 44.139 73.1979 44.2986C73.438 44.4582 73.7075 44.5693 73.9908 44.6255C74.2742 44.6817 74.5659 44.6819 74.8493 44.6261C75.1328 44.5704 75.4024 44.4597 75.6427 44.3005C78.3895 42.4784 81.6192 41.5074 84.9223 41.5105H110.002C110.586 41.5105 111.145 41.2803 111.558 40.8706C111.971 40.4609 112.202 39.9052 112.202 39.3258C112.202 38.7463 111.971 38.1906 111.558 37.7809C111.145 37.3712 110.586 37.141 110.002 37.141Z" fill="url(#paint6_linear_156_3194)"/>
<path d="M58.7885 51.5891C55.3218 49.29 51.2464 48.0636 47.0779 48.065H21.9979C21.4144 48.065 20.8548 48.2952 20.4422 48.7049C20.0296 49.1147 19.7979 49.6704 19.7979 50.2498C19.7979 50.8292 20.0296 51.3849 20.4422 51.7947C20.8548 52.2044 21.4144 52.4346 21.9979 52.4346H47.0779C50.3811 52.4308 53.611 53.4019 56.3575 55.2245C56.5978 55.3837 56.8674 55.4944 57.1509 55.5502C57.4343 55.6059 57.726 55.6057 58.0094 55.5495C58.2927 55.4933 58.5621 55.3822 58.8023 55.2226C59.0424 55.063 59.2485 54.858 59.4089 54.6193C59.5692 54.3806 59.6806 54.1129 59.7368 53.8314C59.7929 53.5499 59.7927 53.2602 59.7361 52.9789C59.6795 52.6975 59.5677 52.4299 59.407 52.1914C59.2463 51.953 59.0398 51.7483 58.7995 51.5891H58.7885Z" fill="url(#paint7_linear_156_3194)"/>
<path d="M110.002 48.065H84.9223C80.75 48.0617 76.6706 49.2882 73.2007 51.5891C72.7153 51.9106 72.3784 52.4106 72.2641 52.9789C72.1498 53.5471 72.2675 54.1372 72.5913 54.6193C72.9152 55.1014 73.4186 55.436 73.9908 55.5495C74.5631 55.663 75.1573 55.5461 75.6427 55.2245C78.3895 53.4025 81.6192 52.4315 84.9223 52.4346H110.002C110.586 52.4346 111.145 52.2044 111.558 51.7947C111.971 51.3849 112.202 50.8292 112.202 50.2498C112.202 49.6704 111.971 49.1147 111.558 48.7049C111.145 48.2952 110.586 48.065 110.002 48.065Z" fill="url(#paint8_linear_156_3194)"/>
<path d="M58.7885 62.5126C55.3218 60.2136 51.2464 58.9872 47.0779 58.9886H21.9979C21.4144 58.9886 20.8548 59.2188 20.4422 59.6285C20.0296 60.0382 19.7979 60.5939 19.7979 61.1734C19.7979 61.7528 20.0296 62.3085 20.4422 62.7182C20.8548 63.1279 21.4144 63.3581 21.9979 63.3581H47.0779C50.3811 63.3544 53.611 64.3254 56.3575 66.1481C56.8429 66.4697 57.4371 66.5866 58.0094 66.4731C58.5816 66.3596 59.085 66.025 59.4089 65.5429C59.7327 65.0608 59.8504 64.4707 59.7361 63.9024C59.6218 63.3341 59.2849 62.8342 58.7995 62.5126H58.7885Z" fill="url(#paint9_linear_156_3194)"/>
<path d="M110.002 58.9886H84.9223C80.75 58.9853 76.6706 60.2118 73.2007 62.5126C72.9604 62.6719 72.7539 62.8765 72.5932 63.115C72.4325 63.3535 72.3206 63.621 72.2641 63.9024C72.2075 64.1838 72.2072 64.4735 72.2634 64.755C72.3195 65.0365 72.431 65.3042 72.5913 65.5429C72.9152 66.025 73.4186 66.3596 73.9908 66.4731C74.2742 66.5293 74.5659 66.5295 74.8493 66.4737C75.1328 66.418 75.4024 66.3073 75.6427 66.1481C78.3895 64.326 81.6192 63.355 84.9223 63.3581H110.002C110.586 63.3581 111.145 63.1279 111.558 62.7182C111.971 62.3085 112.202 61.7528 112.202 61.1734C112.202 60.5939 111.971 60.0382 111.558 59.6285C111.145 59.2188 110.586 58.9886 110.002 58.9886Z" fill="url(#paint10_linear_156_3194)"/>
<path d="M47.0779 69.9126H21.9979C21.4144 69.9126 20.8548 70.1428 20.4422 70.5525C20.0296 70.9623 19.7979 71.518 19.7979 72.0974C19.7979 72.6768 20.0296 73.2326 20.4422 73.6423C20.8548 74.052 21.4144 74.2822 21.9979 74.2822H47.0779C50.3811 74.2784 53.611 75.2495 56.3575 77.0721C56.5978 77.2314 56.8674 77.342 57.1509 77.3978C57.4343 77.4535 57.726 77.4533 58.0094 77.3971C58.2927 77.3409 58.5621 77.2299 58.8023 77.0703C59.0424 76.9107 59.2485 76.7056 59.4089 76.4669C59.5692 76.2282 59.6806 75.9605 59.7368 75.679C59.7929 75.3976 59.7927 75.1079 59.7361 74.8265C59.6795 74.5451 59.5677 74.2775 59.407 74.0391C59.2463 73.8006 59.0398 73.5959 58.7995 73.4367C55.3297 71.1356 51.2502 69.9091 47.0779 69.9126Z" fill="url(#paint11_linear_156_3194)"/>
<path d="M110.002 69.9126H84.9223C80.75 69.9094 76.6706 71.1358 73.2007 73.4367C72.9604 73.5959 72.7539 73.8006 72.5932 74.0391C72.4325 74.2775 72.3206 74.5451 72.2641 74.8265C72.2075 75.1079 72.2072 75.3976 72.2634 75.679C72.3195 75.9605 72.431 76.2282 72.5913 76.4669C72.7517 76.7056 72.9578 76.9107 73.1979 77.0703C73.438 77.2299 73.7075 77.3409 73.9908 77.3971C74.2742 77.4533 74.5659 77.4535 74.8493 77.3978C75.1328 77.342 75.4024 77.2314 75.6427 77.0721C78.3895 75.2501 81.6192 74.2791 84.9223 74.2822H110.002C110.586 74.2822 111.145 74.052 111.558 73.6423C111.971 73.2326 112.202 72.6768 112.202 72.0974C112.202 71.518 111.971 70.9623 111.558 70.5525C111.145 70.1428 110.586 69.9126 110.002 69.9126Z" fill="url(#paint12_linear_156_3194)"/>
<defs>
<linearGradient id="paint0_linear_156_3194" x1="122.431" y1="97.9814" x2="15.1028" y2="-3.86375" gradientUnits="userSpaceOnUse">
<stop stop-color="#00A39C"/>
<stop offset="1" stop-color="#7DF4CD"/>
</linearGradient>
<linearGradient id="paint1_linear_156_3194" x1="122.431" y1="97.9814" x2="15.1028" y2="-3.86375" gradientUnits="userSpaceOnUse">
<stop stop-color="#00A39C"/>
<stop offset="1" stop-color="#7DF4CD"/>
</linearGradient>
<linearGradient id="paint2_linear_156_3194" x1="122.431" y1="97.9814" x2="15.1028" y2="-3.86375" gradientUnits="userSpaceOnUse">
<stop stop-color="#00A39C"/>
<stop offset="1" stop-color="#7DF4CD"/>
</linearGradient>
<linearGradient id="paint3_linear_156_3194" x1="122.431" y1="97.9814" x2="15.1028" y2="-3.86375" gradientUnits="userSpaceOnUse">
<stop stop-color="#00A39C"/>
<stop offset="1" stop-color="#7DF4CD"/>
</linearGradient>
<linearGradient id="paint4_linear_156_3194" x1="122.431" y1="97.9814" x2="15.1028" y2="-3.86375" gradientUnits="userSpaceOnUse">
<stop stop-color="#00A39C"/>
<stop offset="1" stop-color="#7DF4CD"/>
</linearGradient>
<linearGradient id="paint5_linear_156_3194" x1="122.431" y1="97.9814" x2="15.1028" y2="-3.86375" gradientUnits="userSpaceOnUse">
<stop stop-color="#00A39C"/>
<stop offset="1" stop-color="#7DF4CD"/>
</linearGradient>
<linearGradient id="paint6_linear_156_3194" x1="122.431" y1="97.9814" x2="15.1028" y2="-3.86375" gradientUnits="userSpaceOnUse">
<stop stop-color="#00A39C"/>
<stop offset="1" stop-color="#7DF4CD"/>
</linearGradient>
<linearGradient id="paint7_linear_156_3194" x1="122.431" y1="97.9814" x2="15.1028" y2="-3.86375" gradientUnits="userSpaceOnUse">
<stop stop-color="#00A39C"/>
<stop offset="1" stop-color="#7DF4CD"/>
</linearGradient>
<linearGradient id="paint8_linear_156_3194" x1="122.431" y1="97.9814" x2="15.1028" y2="-3.86375" gradientUnits="userSpaceOnUse">
<stop stop-color="#00A39C"/>
<stop offset="1" stop-color="#7DF4CD"/>
</linearGradient>
<linearGradient id="paint9_linear_156_3194" x1="122.431" y1="97.9814" x2="15.1028" y2="-3.86375" gradientUnits="userSpaceOnUse">
<stop stop-color="#00A39C"/>
<stop offset="1" stop-color="#7DF4CD"/>
</linearGradient>
<linearGradient id="paint10_linear_156_3194" x1="122.431" y1="97.9814" x2="15.1028" y2="-3.86375" gradientUnits="userSpaceOnUse">
<stop stop-color="#00A39C"/>
<stop offset="1" stop-color="#7DF4CD"/>
</linearGradient>
<linearGradient id="paint11_linear_156_3194" x1="122.431" y1="97.9814" x2="15.1028" y2="-3.86375" gradientUnits="userSpaceOnUse">
<stop stop-color="#00A39C"/>
<stop offset="1" stop-color="#7DF4CD"/>
</linearGradient>
<linearGradient id="paint12_linear_156_3194" x1="122.431" y1="97.9814" x2="15.1028" y2="-3.86375" gradientUnits="userSpaceOnUse">
<stop stop-color="#00A39C"/>
<stop offset="1" stop-color="#7DF4CD"/>
</linearGradient>
</defs>
</svg>
