<svg width="94" height="101" viewBox="0 0 94 101" fill="none" xmlns="http://www.w3.org/2000/svg">
<path d="M41.5106 24.9758C32.6479 27.1742 25.5136 34.6516 23.335 44.0252C21.1495 53.4289 23.6507 63.014 30.026 69.6652C32.281 72.0182 33.6276 75.7894 33.6276 79.7533V80.3861C33.6276 82.9964 34.6981 85.3452 36.3956 86.9639V92.1655C36.3956 97.0368 40.1208 101 44.6997 101H50.2358C54.8146 101 58.5399 97.0368 58.5399 92.1655V86.9639C60.2374 85.3452 61.3079 82.9966 61.3079 80.3861V79.7417C61.3079 75.838 62.7264 71.9952 65.1025 69.4621C69.7954 64.4584 72.38 57.8099 72.38 50.7413C72.38 33.8419 57.6598 20.9712 41.5106 24.9758ZM53.0038 92.1655C53.0038 93.7892 51.7621 95.1103 50.2358 95.1103H44.6997C43.1734 95.1103 41.9317 93.7892 41.9317 92.1655V89.2206H53.0038V92.1655ZM61.1835 65.3018C57.7443 68.9685 55.7718 74.2315 55.7718 79.7417V80.3861C55.7718 82.0098 54.5301 83.3309 53.0038 83.3309H41.9317C40.4054 83.3309 39.1637 82.0098 39.1637 80.3861V79.7533C39.1637 74.1583 37.2458 68.9487 33.902 65.4602C28.9398 60.2831 26.9987 52.7987 28.709 45.439C30.3929 38.1933 35.9112 32.4123 42.7676 30.7118C55.44 27.568 66.8439 37.6324 66.8439 50.7413C66.8439 56.2391 64.8336 61.41 61.1835 65.3018Z" fill="url(#paint0_linear_102_5253)"/>
<path d="M25.5217 23.2807L17.8127 14.9978C16.7485 13.8541 15.0227 13.8541 13.9583 14.9978C12.8939 16.1414 12.8939 17.9956 13.9583 19.1393L21.6673 27.4222C22.7315 28.5659 24.4575 28.5659 25.5217 27.4222C26.5861 26.2786 26.5861 24.4244 25.5217 23.2807Z" fill="url(#paint1_linear_102_5253)"/>
<path d="M14.131 47.47H2.78901C1.24873 47.47 0 48.8266 0 50.5C0 52.1734 1.24873 53.53 2.78901 53.53H14.131C15.6713 53.53 16.92 52.1734 16.92 50.5C16.92 48.8266 15.6713 47.47 14.131 47.47Z" fill="url(#paint2_linear_102_5253)"/>
<path d="M91.211 47.47H79.869C78.3287 47.47 77.08 48.8266 77.08 50.5C77.08 52.1734 78.3287 53.53 79.869 53.53H91.211C92.7513 53.53 94 52.1734 94 50.5C94 48.8266 92.7513 47.47 91.211 47.47Z" fill="url(#paint3_linear_102_5253)"/>
<path d="M80.0417 14.9978C78.9777 13.8541 77.2519 13.8541 76.1873 14.9978L68.4783 23.2807C67.4139 24.4242 67.4139 26.2786 68.4783 27.4222C69.5425 28.5659 71.2683 28.5659 72.3327 27.4222L80.0417 19.1393C81.1061 17.9958 81.1061 16.1414 80.0417 14.9978Z" fill="url(#paint4_linear_102_5253)"/>
<path d="M47 0C45.4426 0 44.18 1.34172 44.18 2.9967V15.1833C44.18 16.8383 45.4426 18.18 47 18.18C48.5574 18.18 49.82 16.8383 49.82 15.1833V2.9967C49.82 1.34172 48.5574 0 47 0Z" fill="url(#paint5_linear_102_5253)"/>
<path d="M47.0956 35.35C45.9756 35.35 44.8348 35.4916 43.7067 35.7704C39.0089 36.9273 35.0761 41.0073 33.9207 45.9229C33.5586 47.4638 34.4487 49.0225 35.909 49.4048C37.3697 49.7869 38.8471 48.8474 39.2092 47.3068C39.8742 44.4787 42.2328 42.037 44.9474 41.3684C45.6707 41.1896 46.3936 41.0989 47.0956 41.0989C48.6002 41.0989 49.82 39.8119 49.82 38.2245C49.82 36.637 48.6002 35.35 47.0956 35.35Z" fill="url(#paint6_linear_102_5253)"/>
<defs>
<linearGradient id="paint0_linear_102_5253" x1="73.6205" y1="101" x2="15.0311" y2="19.1854" gradientUnits="userSpaceOnUse">
<stop stop-color="#00A39C"/>
<stop offset="1" stop-color="#7DF4CD"/>
</linearGradient>
<linearGradient id="paint1_linear_102_5253" x1="73.6205" y1="101" x2="15.0311" y2="19.1854" gradientUnits="userSpaceOnUse">
<stop stop-color="#00A39C"/>
<stop offset="1" stop-color="#7DF4CD"/>
</linearGradient>
<linearGradient id="paint2_linear_102_5253" x1="73.6205" y1="101" x2="15.0311" y2="19.1854" gradientUnits="userSpaceOnUse">
<stop stop-color="#00A39C"/>
<stop offset="1" stop-color="#7DF4CD"/>
</linearGradient>
<linearGradient id="paint3_linear_102_5253" x1="73.6205" y1="101" x2="15.0311" y2="19.1854" gradientUnits="userSpaceOnUse">
<stop stop-color="#00A39C"/>
<stop offset="1" stop-color="#7DF4CD"/>
</linearGradient>
<linearGradient id="paint4_linear_102_5253" x1="73.6205" y1="101" x2="15.0311" y2="19.1854" gradientUnits="userSpaceOnUse">
<stop stop-color="#00A39C"/>
<stop offset="1" stop-color="#7DF4CD"/>
</linearGradient>
<linearGradient id="paint5_linear_102_5253" x1="73.6205" y1="101" x2="15.0311" y2="19.1854" gradientUnits="userSpaceOnUse">
<stop stop-color="#00A39C"/>
<stop offset="1" stop-color="#7DF4CD"/>
</linearGradient>
<linearGradient id="paint6_linear_102_5253" x1="73.6205" y1="101" x2="15.0311" y2="19.1854" gradientUnits="userSpaceOnUse">
<stop stop-color="#00A39C"/>
<stop offset="1" stop-color="#7DF4CD"/>
</linearGradient>
</defs>
</svg>
