<svg width="97" height="79" viewBox="0 0 97 79" fill="none" xmlns="http://www.w3.org/2000/svg">
<g filter="url(#filter0_d_576_3274)">
<path d="M45.6628 60.6843C55.3893 60.4361 64.4054 69.9622 73.5154 66.5669C83.0223 63.0237 91.3312 53.4944 91.971 43.4252C92.6049 33.4498 82.7024 26.4186 76.57 18.4955C72.5592 13.3135 68.1802 8.75658 62.537 5.396C57.3496 2.30682 51.7004 0.436982 45.6628 0.0897798C39.3008 -0.276078 32.9411 0.410634 27.3072 3.37004C21.0038 6.68118 15.7626 11.5342 12.1966 17.6693C7.91122 25.0419 4.33723 33.089 5.10431 41.5689C5.99303 51.3933 7.78166 63.7885 16.7509 68.0157C25.9629 72.3574 35.4705 60.9445 45.6628 60.6843Z" fill="white"/>
</g>
<path fill-rule="evenodd" clip-rule="evenodd" d="M23.814 14.1324C24.9151 13.0155 26.7185 12.9973 27.8422 14.0918L29.4068 15.6158L35.2282 9.82929C36.3406 8.72358 38.1442 8.72358 39.2566 9.82928C40.369 10.935 40.369 12.7277 39.2566 13.8334L33.476 19.5792L34.9993 21.0628C35.0025 21.0659 35.0057 21.0691 35.0089 21.0722C35.0126 21.0758 35.0162 21.0794 35.0199 21.083L35.8722 21.9302L39.501 18.3233C40.6134 17.2176 42.417 17.2176 43.5294 18.3234C44.6418 19.4291 44.6417 21.2218 43.5293 22.3275L39.9005 25.9343L50.4465 36.417C52.4035 35.2138 54.7122 34.5178 57.1818 34.5178C64.2611 34.5178 70 40.2222 70 47.2589C70 54.2956 64.2611 60 57.1818 60C50.1025 60 44.3636 54.2956 44.3636 47.2589C44.3636 44.7298 45.1068 42.3707 46.3855 40.3886L33.858 27.9364L33.8579 27.9364L31.0018 25.0974L27.4335 21.6221L27.4334 21.622L23.8548 18.1363C22.7312 17.0419 22.7129 15.2492 23.814 14.1324ZM50.0606 47.2589C50.0606 51.1682 53.2489 54.3373 57.1818 54.3373C61.1148 54.3373 64.303 51.1682 64.303 47.2589C64.303 43.3496 61.1148 40.1805 57.1818 40.1805C55.2404 40.1805 53.4855 40.9489 52.1981 42.2028C50.8757 43.4908 50.0606 45.2777 50.0606 47.2589Z" fill="url(#paint0_linear_576_3274)"/>
<defs>
<filter id="filter0_d_576_3274" x="0" y="0" width="97" height="79" filterUnits="userSpaceOnUse" color-interpolation-filters="sRGB">
<feFlood flood-opacity="0" result="BackgroundImageFix"/>
<feColorMatrix in="SourceAlpha" type="matrix" values="0 0 0 0 0 0 0 0 0 0 0 0 0 0 0 0 0 0 127 0" result="hardAlpha"/>
<feOffset dy="5"/>
<feGaussianBlur stdDeviation="2.5"/>
<feComposite in2="hardAlpha" operator="out"/>
<feColorMatrix type="matrix" values="0 0 0 0 0 0 0 0 0 0 0 0 0 0 0 0 0 0 0.15 0"/>
<feBlend mode="normal" in2="BackgroundImageFix" result="effect1_dropShadow_576_3274"/>
<feBlend mode="normal" in="SourceGraphic" in2="effect1_dropShadow_576_3274" result="shape"/>
</filter>
<linearGradient id="paint0_linear_576_3274" x1="16.7833" y1="21.8384" x2="69.7798" y2="60.3034" gradientUnits="userSpaceOnUse">
<stop stop-color="#FF7E00"/>
<stop offset="1" stop-color="#FEB200"/>
</linearGradient>
</defs>
</svg>
