<svg width="120" height="127" viewBox="0 0 120 127" fill="none" xmlns="http://www.w3.org/2000/svg">
<path d="M117.525 122.039H112.096V43.0452C112.096 39.3684 109.111 36.3772 105.442 36.3772H93.3071C89.638 36.3772 86.6531 39.3686 86.6531 43.0452V122.039H72.8679V78.8356C72.8679 75.1588 69.883 72.1676 66.2139 72.1676H54.0792C50.4101 72.1676 47.4252 75.159 47.4252 78.8356V122.039H33.64V99.6643C33.64 95.9875 30.6548 92.9963 26.986 92.9963H14.8511C11.182 92.9963 8.19706 95.9877 8.19706 99.6643V122.039H2.47526C1.10817 122.039 0 123.15 0 124.52C0 125.89 1.10817 127 2.47526 127H117.525C118.892 127 120 125.89 120 124.52C120 123.15 118.892 122.039 117.525 122.039ZM28.689 122.039H13.1473V99.6643C13.1473 98.7229 13.9114 97.9572 14.8508 97.9572H26.9855C27.9249 97.9572 28.689 98.7229 28.689 99.6643V122.039ZM67.9171 122.039H52.3755V78.8356C52.3755 77.8942 53.1396 77.1285 54.0789 77.1285H66.2136C67.1527 77.1285 67.9171 77.8942 67.9171 78.8356V122.039ZM107.145 122.039H91.6036V43.0452C91.6036 42.1038 92.3677 41.3381 93.3071 41.3381H105.442C106.381 41.3381 107.145 42.1038 107.145 43.0452V122.039Z" fill="url(#paint0_linear_156_3192)"/>
<path d="M112.084 2.60846C112.119 1.93154 111.881 1.24321 111.366 0.72628C110.85 0.209351 110.163 -0.0290215 109.487 0.00595312C109.448 0.00421679 109.408 0 109.368 0H94.3923C93.0252 0 91.917 1.1105 91.917 2.48047C91.917 3.85043 93.0252 4.96093 94.3923 4.96093H103.639L79.1694 29.4823L69.9417 20.2351C69.4776 19.7701 68.8478 19.5086 68.1914 19.5086C67.535 19.5086 66.9053 19.7701 66.4412 20.2351L21.9437 64.8265C20.9771 65.7951 20.9771 67.3657 21.9437 68.3346C22.4271 68.8186 23.0605 69.0606 23.6939 69.0606C24.3274 69.0606 24.961 68.8186 25.4442 68.3341L68.1914 25.4967L77.4192 34.7439C78.3858 35.7125 79.9531 35.7125 80.9199 34.7439L107.14 8.46906V16.8555C107.14 18.2255 108.248 19.336 109.615 19.336C110.982 19.336 112.09 18.2255 112.09 16.8555V2.72851C112.09 2.68808 112.086 2.64864 112.084 2.60846Z" fill="url(#paint1_linear_156_3192)"/>
<path d="M15.3503 77.7153C16.7173 77.7153 17.8255 76.6047 17.8255 75.2348C17.8255 73.8649 16.7173 72.7543 15.3503 72.7543C13.9832 72.7543 12.875 73.8649 12.875 75.2348C12.875 76.6047 13.9832 77.7153 15.3503 77.7153Z" fill="url(#paint2_linear_156_3192)"/>
<defs>
<linearGradient id="paint0_linear_156_3192" x1="111.301" y1="123.204" x2="-14.7842" y2="36.7045" gradientUnits="userSpaceOnUse">
<stop stop-color="#00A39C"/>
<stop offset="1" stop-color="#7DF4CD"/>
</linearGradient>
<linearGradient id="paint1_linear_156_3192" x1="111.301" y1="123.204" x2="-14.7842" y2="36.7045" gradientUnits="userSpaceOnUse">
<stop stop-color="#00A39C"/>
<stop offset="1" stop-color="#7DF4CD"/>
</linearGradient>
<linearGradient id="paint2_linear_156_3192" x1="111.301" y1="123.204" x2="-14.7842" y2="36.7045" gradientUnits="userSpaceOnUse">
<stop stop-color="#00A39C"/>
<stop offset="1" stop-color="#7DF4CD"/>
</linearGradient>
</defs>
</svg>
