<svg width="64" height="64" viewBox="0 0 64 64" fill="none" xmlns="http://www.w3.org/2000/svg">
<path d="M34 30C36.5712 30 39.0846 29.2376 41.2224 27.8091C43.3603 26.3807 45.0265 24.3503 46.0104 21.9749C46.9944 19.5995 47.2518 16.9856 46.7502 14.4638C46.2486 11.9421 45.0105 9.6257 43.1924 7.80762C41.3743 5.98954 39.0579 4.75141 36.5362 4.2498C34.0144 3.74819 31.4006 4.00563 29.0251 4.98957C26.6497 5.97351 24.6194 7.63975 23.1909 9.77759C21.7624 11.9154 21 14.4288 21 17C21.004 20.4466 22.3749 23.7509 24.812 26.188C27.2491 28.6251 30.5534 29.996 34 30ZM34 6.00001C36.1756 6.00001 38.3023 6.64514 40.1113 7.85384C41.9202 9.06254 43.3301 10.7805 44.1627 12.7905C44.9952 14.8005 45.2131 17.0122 44.7886 19.146C44.3642 21.2798 43.3166 23.2398 41.7782 24.7782C40.2398 26.3166 38.2798 27.3642 36.146 27.7886C34.0122 28.2131 31.8005 27.9952 29.7905 27.1627C27.7805 26.3301 26.0625 24.9202 24.8538 23.1113C23.6451 21.3023 23 19.1756 23 17C23.0034 14.0837 24.1635 11.2878 26.2256 9.22563C28.2878 7.16348 31.0837 6.00345 34 6.00001Z" fill="white"/>
<path d="M32 20C32 19.7348 31.8946 19.4804 31.7071 19.2929C31.5196 19.1054 31.2652 19 31 19C30.7348 19 30.4804 19.1054 30.2929 19.2929C30.1054 19.4804 30 19.7348 30 20C30.0033 20.8842 30.2995 21.7424 30.8423 22.4404C31.3851 23.1385 32.1439 23.637 33 23.858V25C33 25.2652 33.1054 25.5196 33.2929 25.7071C33.4804 25.8946 33.7348 26 34 26C34.2652 26 34.5196 25.8946 34.7071 25.7071C34.8946 25.5196 35 25.2652 35 25V23.858C35.8576 23.6397 36.618 23.1419 37.1611 22.4433C37.7042 21.7446 37.9991 20.8849 37.9991 20C37.9991 19.1151 37.7042 18.2554 37.1611 17.5567C36.618 16.8581 35.8576 16.3603 35 16.142V12.278C35.303 12.4521 35.555 12.7029 35.7305 13.0052C35.906 13.3074 35.9989 13.6505 36 14C36 14.2652 36.1054 14.5196 36.2929 14.7071C36.4804 14.8946 36.7348 15 37 15C37.2652 15 37.5196 14.8946 37.7071 14.7071C37.8946 14.5196 38 14.2652 38 14C37.9967 13.1158 37.7005 12.2576 37.1577 11.5596C36.6149 10.8615 35.8561 10.363 35 10.142V9C35 8.73478 34.8946 8.48043 34.7071 8.29289C34.5196 8.10536 34.2652 8 34 8C33.7348 8 33.4804 8.10536 33.2929 8.29289C33.1054 8.48043 33 8.73478 33 9V10.142C32.1424 10.3603 31.382 10.8581 30.8389 11.5567C30.2958 12.2554 30.0009 13.1151 30.0009 14C30.0009 14.8849 30.2958 15.7446 30.8389 16.4433C31.382 17.1419 32.1424 17.6397 33 17.858V21.722C32.697 21.5479 32.445 21.2971 32.2695 20.9948C32.094 20.6926 32.0011 20.3495 32 20ZM35 18.278C35.3037 18.4514 35.5561 18.702 35.7316 19.0044C35.9072 19.3069 35.9996 19.6503 35.9996 20C35.9996 20.3497 35.9072 20.6931 35.7316 20.9956C35.5561 21.298 35.3037 21.5486 35 21.722V18.278ZM32 14C32.0011 13.6505 32.094 13.3074 32.2695 13.0052C32.445 12.7029 32.697 12.4521 33 12.278V15.722C32.697 15.5479 32.445 15.2971 32.2695 14.9948C32.094 14.6926 32.0011 14.3495 32 14Z" fill="white"/>
<path d="M61.5501 42.7571C60.8287 42.2028 59.9308 41.9376 59.0283 42.0124C58.1259 42.0872 57.2825 42.4967 56.6595 43.1625L55.7304 44.1515C55.5426 43.8993 55.323 43.6731 55.0773 43.4786C54.3561 42.9242 53.4582 42.6589 52.5559 42.7337C51.6536 42.8085 50.8103 43.2181 50.1876 43.884L45.606 48.7585C44.8908 48.1346 43.9794 47.7896 43.0357 47.7856H32.3342L32.0822 47.6153C30.282 46.4272 28.1798 45.7947 26.0314 45.7947C23.8829 45.7947 21.7808 46.4272 19.9806 47.6153L19.7285 47.7856H17.0022V45.7588C17.0022 45.49 16.8968 45.2323 16.7092 45.0422C16.5217 44.8522 16.2673 44.7454 16.002 44.7454H2.00013C1.73488 44.7454 1.48049 44.8522 1.29293 45.0422C1.10537 45.2323 1 45.49 1 45.7588V62.9866C1 63.2554 1.10537 63.5131 1.29293 63.7032C1.48049 63.8932 1.73488 64 2.00013 64H16.002C16.2673 64 16.5217 63.8932 16.7092 63.7032C16.8968 63.5131 17.0022 63.2554 17.0022 62.9866V60.9598H19.7025C21.7661 62.286 24.1598 62.989 26.6034 62.9866H46.9482C48.3714 62.9847 49.7739 62.6418 51.0414 61.9859C52.3088 61.33 53.4052 60.3798 54.2412 59.2127L62.3083 47.9163C62.8675 47.1249 63.1011 46.1441 62.9596 45.1813C62.8182 44.2185 62.3127 43.3491 61.5501 42.7571ZM15.0019 61.9732H3.00027V46.7722H15.0019V61.9732ZM46.7772 50.4498L51.6368 45.2744C51.9213 44.9707 52.3063 44.784 52.7182 44.75C53.13 44.716 53.5398 44.837 53.8691 45.09C54.0609 45.2369 54.2172 45.4261 54.3262 45.6433L47.4923 52.9205C47.2511 53.1707 46.9689 53.3764 46.6581 53.5285C46.8838 53.0503 47.0108 52.5303 47.0312 52.0006C47.0517 51.4709 46.9652 50.9425 46.7772 50.4478V50.4498ZM60.689 46.7286L52.6199 58.0209C51.9702 58.9293 51.1177 59.669 50.132 60.1798C49.1463 60.6906 48.0553 60.9578 46.9482 60.9598H26.6084C24.4546 60.9615 22.3487 60.3153 20.5576 59.1032C20.3931 58.9925 20.2001 58.9333 20.0026 58.933H17.0022V49.8124H20.0306C20.2281 49.8124 20.4213 49.7532 20.5856 49.6421L21.0857 49.3016C22.556 48.331 24.273 47.8142 26.0279 47.8142C27.7827 47.8142 29.4997 48.331 30.97 49.3016L31.4701 49.6421C31.6342 49.753 31.827 49.8122 32.0242 49.8124H43.0257C43.5562 49.8124 44.0649 50.0259 44.4401 50.406C44.8152 50.7861 45.0259 51.3017 45.0259 51.8392C45.0259 52.3767 44.8152 52.8923 44.4401 53.2724C44.0649 53.6525 43.5562 53.866 43.0257 53.866H33.0243C32.7591 53.866 32.5047 53.9728 32.3171 54.1628C32.1295 54.3529 32.0242 54.6106 32.0242 54.8794C32.0242 55.1482 32.1295 55.4059 32.3171 55.596C32.5047 55.786 32.7591 55.8928 33.0243 55.8928H45.319C45.9966 55.8916 46.6669 55.7515 47.2897 55.4809C47.9124 55.2102 48.4746 54.8146 48.9425 54.318L58.1077 44.5559C58.4019 44.2443 58.8018 44.0575 59.2267 44.0329C59.6516 44.0084 60.0699 44.148 60.3971 44.4237C60.7244 44.6994 60.9363 45.0906 60.9901 45.5183C61.0439 45.9461 60.9356 46.3786 60.687 46.7286H60.689Z" fill="white"/>
<path d="M30 33.5186V37.0012H28C27.8023 37.0012 27.609 37.0599 27.4446 37.1698C27.2801 37.2796 27.152 37.4358 27.0763 37.6185C27.0007 37.8011 26.9809 38.0021 27.0194 38.1961C27.058 38.39 27.1532 38.5681 27.293 38.708L33.293 44.7072C33.4805 44.8947 33.7348 45 34 45C34.2652 45 34.5195 44.8947 34.707 44.7072L40.707 38.708C40.8468 38.5681 40.942 38.39 40.9806 38.1961C41.0191 38.0021 40.9993 37.8011 40.9237 37.6185C40.848 37.4358 40.7199 37.2796 40.5554 37.1698C40.391 37.0599 40.1977 37.0012 40 37.0012H38V33.5186C42.0431 32.5399 45.5869 30.113 47.9606 26.6972C50.3343 23.2815 51.3731 19.1141 50.8802 14.984C50.3873 10.8539 48.3971 7.04786 45.2862 4.28647C42.1754 1.52507 38.1599 0 34 0C29.8401 0 25.8246 1.52507 22.7138 4.28647C19.6029 7.04786 17.6127 10.8539 17.1198 14.984C16.6269 19.1141 17.6657 23.2815 20.0394 26.6972C22.4131 30.113 25.9569 32.5399 30 33.5186ZM34 2.00547C37.7275 2.01405 41.3184 3.41007 44.0726 5.92145C46.8269 8.43283 48.5474 11.8796 48.8986 15.5902C49.2499 19.3007 48.2069 23.0091 45.9728 25.9926C43.7388 28.9761 40.4737 31.021 36.814 31.7288C36.5852 31.7721 36.3787 31.8939 36.2301 32.0732C36.0815 32.2524 36.0001 32.4779 36 32.7107V38.0011C36 38.2663 36.1054 38.5206 36.2929 38.7081C36.4804 38.8956 36.7348 39.0009 37 39.0009H37.586L34 42.5865L30.414 39.0009H31C31.2652 39.0009 31.5196 38.8956 31.7071 38.7081C31.8946 38.5206 32 38.2663 32 38.0011V32.7107C31.9999 32.4779 31.9185 32.2524 31.7699 32.0732C31.6213 31.8939 31.4148 31.7721 31.186 31.7288C27.5263 31.021 24.2612 28.9761 22.0272 25.9926C19.7931 23.0091 18.7501 19.3007 19.1014 15.5902C19.4526 11.8796 21.1731 8.43283 23.9274 5.92145C26.6816 3.41007 30.2725 2.01405 34 2.00547Z" fill="white"/>
</svg>
