<svg width="24" height="24" viewBox="0 0 24 24" fill="none" xmlns="http://www.w3.org/2000/svg">
<path d="M21.8906 4H2.10938C0.943922 4 0 4.95682 0 6.125V18.875C0 20.0501 0.950859 21 2.10938 21H21.8906C23.0463 21 24 20.0541 24 18.875V6.125C24 4.95889 23.0598 4 21.8906 4ZM21.5952 5.41667C21.1642 5.84851 13.7476 13.2807 13.4916 13.5373C13.0931 13.9387 12.5634 14.1597 12 14.1597C11.4366 14.1597 10.9069 13.9387 10.5071 13.536C10.3349 13.3634 3.00014 6.01327 2.40478 5.41667H21.5952ZM1.40625 18.5867V6.41424L7.48303 12.5038L1.40625 18.5867ZM2.40567 19.5833L8.48006 13.5029L9.51408 14.5391C10.1781 15.208 11.061 15.5764 12 15.5764C12.939 15.5764 13.8219 15.208 14.4846 14.5404L15.5199 13.5029L21.5943 19.5833H2.40567ZM22.5938 18.5867L16.517 12.5038L22.5938 6.41424V18.5867Z" fill="white"/>
<path d="M21.8906 4H2.10938C0.943922 4 0 4.95682 0 6.125V18.875C0 20.0501 0.950859 21 2.10938 21H21.8906C23.0463 21 24 20.0541 24 18.875V6.125C24 4.95889 23.0598 4 21.8906 4ZM21.5952 5.41667C21.1642 5.84851 13.7476 13.2807 13.4916 13.5373C13.0931 13.9387 12.5634 14.1597 12 14.1597C11.4366 14.1597 10.9069 13.9387 10.5071 13.536C10.3349 13.3634 3.00014 6.01327 2.40478 5.41667H21.5952ZM1.40625 18.5867V6.41424L7.48303 12.5038L1.40625 18.5867ZM2.40567 19.5833L8.48006 13.5029L9.51408 14.5391C10.1781 15.208 11.061 15.5764 12 15.5764C12.939 15.5764 13.8219 15.208 14.4846 14.5404L15.5199 13.5029L21.5943 19.5833H2.40567ZM22.5938 18.5867L16.517 12.5038L22.5938 6.41424V18.5867Z" fill="url(#paint0_linear_102_4923)"/>
<defs>
<linearGradient id="paint0_linear_102_4923" x1="12" y1="4" x2="12" y2="21" gradientUnits="userSpaceOnUse">
<stop stop-color="#00A39C"/>
<stop offset="1" stop-color="#7DF4CD"/>
</linearGradient>
</defs>
</svg>
