<svg width="44" height="26" viewBox="0 0 44 26" fill="none" xmlns="http://www.w3.org/2000/svg">
<path d="M36.9368 3.29587C36.3481 2.66751 35.5167 2.30725 34.6558 2.30725H32.5687C31.7078 2.30725 30.8764 2.66759 30.2878 3.29587C29.6993 3.92416 29.3939 4.77721 29.4499 5.63624L29.5425 7.0585L29.759 10.3801C29.8453 11.7026 30.5902 12.8734 31.7513 13.5121C32.334 13.8326 32.973 13.9928 33.6122 13.9928C34.2511 13.9928 34.8905 13.8326 35.473 13.5121C36.6343 12.8735 37.3791 11.7026 37.4653 10.3801L37.7128 6.58455L37.7746 5.63624C37.8308 4.77721 37.5254 3.92416 36.9368 3.29587ZM31.1627 5.52457C31.137 5.13166 31.2712 4.75693 31.5405 4.46955C31.8098 4.18217 32.1749 4.02396 32.5687 4.02396H34.0731L33.791 4.77637C33.6617 4.9626 33.0076 5.76718 31.1974 6.05675L31.1627 5.52457ZM35.7523 10.2684C35.7045 11.003 35.2909 11.6534 34.6457 12.0082C33.9985 12.3641 33.2258 12.3641 32.5786 12.0082C31.9335 11.6535 31.5198 11.0031 31.4718 10.2684L31.3092 7.77438C32.8296 7.55878 33.8184 7.03771 34.4338 6.5519C34.5496 6.63437 34.6784 6.71238 34.82 6.78551C35.0806 6.92015 35.4547 7.05345 35.953 7.1891L35.7523 10.2684ZM35.6081 5.26041C35.5518 5.2313 35.5077 5.20529 35.4719 5.18224L35.7223 4.5144C35.9453 4.77266 36.0658 5.09379 36.0648 5.43385C35.7994 5.35029 35.6668 5.29079 35.6081 5.26041Z" fill="#7DF4CD"/>
<path d="M43.0722 21.2858L42.7266 19.3778C42.3005 17.0257 40.4371 15.1485 38.0899 14.7065C37.7356 14.6397 37.3732 14.6059 37.0126 14.6059H35.9716C35.744 14.6059 35.5258 14.6964 35.3647 14.8573L33.6122 16.6098L31.8597 14.8572C31.6987 14.6963 31.4804 14.6058 31.2528 14.6058H30.2118C29.8513 14.6058 29.4888 14.6397 29.1346 14.7064C28.3714 14.85 27.6585 15.1415 27.0118 15.5695C26.709 15.5324 26.404 15.512 26.0997 15.512H24.2035C23.9753 15.512 23.7566 15.6028 23.5956 15.7644L21.5224 17.8445L19.3977 15.7579C19.2372 15.6003 19.0213 15.512 18.7963 15.512H16.9579C16.6622 15.512 16.3657 15.5317 16.071 15.5666C15.4243 15.1396 14.7118 14.8496 13.9511 14.7064C13.5968 14.6396 13.2344 14.6058 12.8739 14.6058H11.8329C11.6053 14.6058 11.387 14.6963 11.226 14.8572L9.47351 16.6098L7.72103 14.8572C7.56013 14.6963 7.34176 14.6058 7.11413 14.6058H6.07333C5.71282 14.6058 5.35037 14.6397 4.99609 14.7064C2.64874 15.1484 0.78544 17.0256 0.359376 19.3776L0.0137617 21.2856C-0.0315965 21.536 0.0363987 21.7935 0.19957 21.9888C0.362658 22.184 0.603923 22.2969 0.858316 22.2969H9.45701L9.10357 24.2484C9.05822 24.4987 9.12629 24.7562 9.28938 24.9515C9.45247 25.1467 9.69373 25.2595 9.94813 25.2595H33.11C33.3644 25.2595 33.6057 25.1467 33.7688 24.9515C33.9318 24.7562 33.9999 24.4986 33.9546 24.2484L33.601 22.297H42.2277C42.4821 22.297 42.7233 22.1842 42.8865 21.989C43.0495 21.7937 43.1175 21.5361 43.0722 21.2858ZM18.4453 17.2287L20.9275 19.6663C21.2639 19.9967 21.8039 19.9938 22.1369 19.6599L24.5599 17.2287H25.3773L21.5289 21.0772L17.6804 17.2287H18.4453ZM9.85741 20.5806H1.88599L2.0484 19.6838C2.34857 18.0269 3.66076 16.7047 5.31377 16.3934C5.56362 16.3464 5.8191 16.3225 6.07324 16.3225H6.75867L8.86668 18.4306C9.20186 18.7657 9.74532 18.7657 10.0806 18.4306L12.1886 16.3225H12.8741C13.0778 16.3225 13.2824 16.3386 13.4844 16.369C11.8003 17.2548 10.4868 18.7632 9.85741 20.5806ZM10.9757 23.5432L11.2571 21.9896C11.6559 19.7886 13.3156 18.0045 15.4519 17.4276L20.9221 22.8979C21.2574 23.2331 21.8007 23.2331 22.136 22.8979L27.6063 17.4276C29.7425 18.0046 31.4021 19.7887 31.8009 21.9896L32.0823 23.5432H10.9757ZM33.2005 20.5805C32.5719 18.7656 31.2611 17.2587 29.5803 16.3724C29.7892 16.3398 30.001 16.3225 30.2119 16.3225H30.8972L33.0053 18.4305C33.1663 18.5914 33.3846 18.6818 33.6122 18.6818C33.8399 18.6818 34.0581 18.5914 34.2191 18.4305L36.3271 16.3225H37.0126C37.2667 16.3225 37.5222 16.3464 37.7721 16.3933C39.4251 16.7045 40.7373 18.0269 41.0375 19.6837L41.2 20.5804H33.2005V20.5805Z" fill="#7DF4CD"/>
<path d="M12.7981 3.29575C12.2095 2.66747 11.3781 2.30713 10.5172 2.30713H8.43017C7.56929 2.30713 6.73794 2.66747 6.14938 3.29567C5.56073 3.92395 5.25526 4.777 5.31122 5.63612L5.40404 7.05846L5.62057 10.38C5.70682 11.7025 6.45166 12.8733 7.61279 13.512C8.19538 13.8324 8.83452 13.9927 9.47366 13.9927C10.1128 13.9927 10.7519 13.8325 11.3345 13.512C12.4957 12.8733 13.2406 11.7024 13.3267 10.38L13.5742 6.58443L13.6361 5.63612C13.6922 4.77709 13.3867 3.92403 12.7981 3.29575ZM7.02415 5.52453C6.99848 5.13154 7.1327 4.75681 7.40199 4.46943C7.67128 4.18196 8.03642 4.02384 8.43017 4.02384H9.93447L9.65029 4.78172C9.54182 4.93597 8.8808 5.76108 7.0589 6.05587L7.02415 5.52453ZM11.6139 10.2681C11.5661 11.0029 11.1524 11.6532 10.5073 12.008C9.86008 12.3639 9.08731 12.3639 8.44009 12.008C7.79507 11.6533 7.38137 11.0029 7.33349 10.2682L7.17082 7.77418C8.69129 7.55858 9.68 7.03751 10.2955 6.55169C10.4112 6.63416 10.54 6.71209 10.6817 6.7853C10.9424 6.91994 11.3164 7.05324 11.8147 7.1889L11.6139 10.2681ZM11.4696 5.26029C11.4133 5.23117 11.3692 5.20509 11.3333 5.18211L11.5838 4.51428C11.8068 4.77254 11.9273 5.09375 11.9264 5.43373C11.6609 5.35017 11.5284 5.29067 11.4696 5.26029Z" fill="#7DF4CD"/>
<path d="M25.7816 1.23544C25.046 0.450384 24.007 0 22.9312 0H20.1256C19.0497 0 18.0108 0.450384 17.2752 1.23544C16.5396 2.0205 16.1579 3.08663 16.2279 4.16016L16.3525 6.0721L16.6438 10.5369C16.7531 12.2134 17.6973 13.6977 19.1694 14.5074C19.908 14.9136 20.7179 15.1166 21.5283 15.1166C22.3384 15.1166 23.1489 14.9135 23.8873 14.5074C25.3595 13.6977 26.3036 12.2134 26.4129 10.5369L26.7456 5.43499V5.4349L26.8287 4.16016C26.8988 3.08663 26.5171 2.02058 25.7816 1.23544ZM18.0083 5.08247L17.9409 4.04849C17.901 3.43771 18.1096 2.85554 18.5279 2.40903C18.9463 1.96243 19.5136 1.71654 20.1256 1.71654H22.574L22.0327 3.16009C21.873 3.40548 20.8958 4.71228 18.0083 5.08247ZM24.7 10.4251C24.6291 11.5137 24.016 12.4775 23.0601 13.0032C22.1009 13.5306 20.9558 13.5306 19.9967 13.0032C19.0408 12.4775 18.4277 11.5137 18.3567 10.4251L18.1201 6.79699C20.4055 6.52055 21.8094 5.71353 22.6182 5.02592C22.8049 5.18219 23.0282 5.32769 23.2875 5.46166C23.6593 5.65378 24.219 5.84548 24.9857 6.04341L24.7 10.4251ZM25.1159 4.04841L25.0998 4.29682C24.5007 4.12928 24.21 4.00608 24.0756 3.93665C23.8546 3.82246 23.736 3.72905 23.6748 3.67014L24.2436 2.15329C24.3446 2.22945 24.4404 2.31444 24.5289 2.40903C24.9472 2.85554 25.1557 3.43771 25.1159 4.04841Z" fill="#7DF4CD"/>
<path d="M15.1914 21.1997H12.9598C12.4858 21.1997 12.1016 21.5839 12.1016 22.058C12.1016 22.532 12.4858 22.9162 12.9598 22.9162H15.1914C15.6654 22.9162 16.0497 22.532 16.0497 22.058C16.0497 21.5839 15.6654 21.1997 15.1914 21.1997Z" fill="#7DF4CD"/>
<path d="M17.7663 21.1997H17.5946C17.1206 21.1997 16.7363 21.5839 16.7363 22.058C16.7363 22.532 17.1206 22.9162 17.5946 22.9162H17.7663C18.2403 22.9162 18.6245 22.532 18.6245 22.058C18.6245 21.5839 18.2403 21.1997 17.7663 21.1997Z" fill="#7DF4CD"/>
</svg>
