<svg width="110" height="110" viewBox="0 0 110 110" fill="none" xmlns="http://www.w3.org/2000/svg">
<path fill-rule="evenodd" clip-rule="evenodd" d="M98.1871 3.47239H105.058L101.409 8.66933L98.1871 3.47239ZM84.8614 3.47239H91.7436L88.0947 8.66933L84.8614 3.47239ZM71.5473 3.47239H78.418C77.8637 4.31136 77.4249 5.09206 76.836 5.98929C76.3626 6.70008 75.3926 7.93523 75.1963 8.66933L71.5473 3.47239ZM58.2217 3.47239H65.1039L61.4434 8.66933L58.2217 3.47239ZM44.9076 3.47239H51.7783C51.2125 4.33466 50.7621 5.0105 50.1848 5.97764C49.6998 6.78165 48.776 7.86532 48.5566 8.66933L44.9076 3.47239ZM31.582 3.47239H38.4642L34.8037 8.66933L31.582 3.47239ZM18.2679 3.47239H25.1386L21.4896 8.66933L18.2679 3.47239ZM4.94226 3.47239H11.8129L8.16397 8.66933C7.95612 7.86532 7.07852 6.86322 6.61663 6.11747C6.01617 5.15033 5.53118 4.36962 4.94226 3.47239ZM0 1.7362C0 2.7383 1.25866 4.24144 1.70901 4.99885L6.74365 12.9224C8.84527 16.0802 11.0508 11.2328 11.94 9.88117C12.4942 9.05385 12.8406 8.44793 13.3603 7.63227C13.8106 6.92148 14.6189 5.97764 14.8268 5.20859H15.254C15.4503 5.95434 18.903 10.9532 19.5958 12.0951C20.9007 14.2508 22.1132 14.8101 23.7644 12.2699L26.6859 7.63227C27.1363 6.92148 27.9446 5.97764 28.1409 5.20859H28.5797C28.7644 5.93103 29.5035 6.82826 29.9538 7.50409L32.9099 12.0951C35.5889 16.4997 37.194 12.0485 40 7.63227C40.4503 6.92148 41.2587 5.97764 41.4665 5.20859H41.8938C42.0901 5.95434 45.5427 10.9648 46.2356 12.0951C48.9145 16.4997 50.5196 12.0485 53.3256 7.63227C53.776 6.92148 54.5843 5.97764 54.7921 5.20859H55.2194C55.4157 5.95434 58.8684 10.9648 59.5497 12.0951C60.843 14.2158 62.2055 14.8334 63.7182 12.2699C64.3995 11.1163 67.933 5.87277 68.1062 5.20859H68.5335C68.7413 5.95434 72.1824 10.9648 72.8753 12.0951C75.4157 16.2666 76.8591 12.4447 78.545 9.88117L81.8591 5.20859C82.0554 5.93103 82.7829 6.82826 83.2333 7.50409L86.1663 12.1301C87.4827 14.3906 88.9838 14.612 90.3695 12.2699C91.0508 11.1163 94.5727 5.87277 94.746 5.20859L98.06 9.89282C99.9884 12.7942 101.247 16.4647 104.192 11.4775C105.127 9.89282 110 2.93638 110 1.7362C110 0.687487 109.33 0 108.291 0H1.72055C0.681293 0 0 0.687487 0 1.7362ZM46.6282 81.0885H63.3834C62.5866 84.5492 58.1409 86.1223 55 88.243C54.0993 87.7536 53.5681 87.2875 52.5751 86.7865C50.254 85.6329 48.1409 84.2113 46.9284 81.8692C46.6975 81.4264 46.7436 81.3448 46.6282 81.0885ZM45.7621 76.5324C45.7621 73.899 48.3834 64.7986 48.5566 62.6545H61.4434C61.5012 65.1248 64.2379 73.2581 64.2379 77.3947H45.7621V76.5324ZM42.1132 76.9636C42.1132 82.5334 45.3118 87.0778 49.6305 89.3267C50.3695 89.7112 51.0046 90.0025 51.7436 90.4453C52.5289 90.9114 53.2794 91.1444 53.2794 92.3563V107.539C50.8083 107.539 47.4596 106.922 47.5404 109.24C47.5635 109.881 48.2564 111 48.9838 111H61.0162C62.8984 111 62.7598 107.539 61.0162 107.539H56.7206V92.3563C56.7206 90.0258 60.7275 89.9326 64.0878 86.5651C66.1547 84.491 67.8984 81.0419 67.8984 76.9636C67.8984 74.6098 66.0046 66.8843 65.3118 63.9596C65.127 63.1439 64.9538 62.0136 64.6998 61.3262C64.1339 59.7881 62.8522 58.9724 60.8083 58.9724C43.8106 58.9724 46.3048 57.7839 44.1339 66.4299C43.5566 68.7021 42.1132 74.8778 42.1132 76.9636ZM25.1386 84.3395C26.2356 84.0831 26.0277 84.0831 26.9515 84.6658C27.7829 85.1785 27.8406 85.0736 28.3603 85.8543C24.6998 88.3246 25.2309 87.7303 25.1039 86.099C25.0115 84.9804 24.8845 85.3998 25.1386 84.3395ZM3.86836 64.3907C3.86836 60.7086 4.23787 59.1705 6.92841 56.4205C10.5427 52.7151 16.6051 53.1812 20.7506 56.4555C22.5058 57.8421 24.0416 59.9628 24.7921 62.3516C25.8891 65.8589 25.7737 72.3026 25.5658 76.1013C25.4965 77.4763 25.1386 79.2241 25.1386 80.6574C22.7598 81.2167 24.1455 81.776 18.4757 78.9212C16.3395 77.8375 14.2148 76.7655 12.2055 75.4954C8.71824 73.2814 3.86836 69.9372 3.86836 64.3907ZM0.2194 63.5284C0.2194 72.4308 7.30947 77.15 14.388 80.8671C15.5196 81.4614 16.6975 82.0207 17.8291 82.6033C19.0185 83.2092 20.3233 83.7103 21.4896 84.3395C21.4896 87.1943 21.5358 91.0629 25.5658 91.0629C26.6513 91.0629 26.5242 90.8648 27.5058 90.8415C28.0485 91.6572 28.5104 92.2747 29.0531 93.1836C30.0346 94.8149 30.6697 97.3784 30.97 99.2661C31.5242 102.715 33.0947 106.63 35.6351 108.658C36.5358 109.369 38.2333 111 39.5381 111C40.5774 111 41.2471 110.324 41.2471 109.275C41.2471 107.959 40.3349 107.667 39.4919 107.143C38.6143 106.607 38.1409 106.024 37.4365 105.314C33.4411 101.329 35.4272 96.9706 31.9515 91.1211C31.3626 90.1423 30.8545 89.5248 30.2887 88.6742C31.7898 88.2663 32.6328 84.8172 30.6813 82.8596C30.2425 82.4169 29.1455 81.8226 28.5797 81.5196C28.6143 79.8533 29.2148 76.113 29.2148 72.8503C29.2148 63.5518 28.9954 57.5508 21.0162 52.284C13.0831 47.0637 0.2194 52.0975 0.2194 63.5284ZM81.6397 85.8543C82.1363 85.1085 82.2171 85.1319 83.0716 84.6891C83.2563 84.5958 83.776 84.3162 83.9261 84.2696C85.127 83.955 83.7067 84.3395 84.8614 84.3395C85.127 85.4698 84.9884 84.9221 84.9076 86.099C84.7806 87.7303 85.3002 88.3246 81.6397 85.8543ZM84.8614 80.6574C84.8614 79.3173 84.5497 77.5578 84.4457 76.2994C84.388 75.542 84.4804 74.6914 84.4342 73.934C84.388 72.9552 84.2148 72.7454 84.2148 71.5569C84.2032 68.8769 84.5497 64.6587 85.1617 62.5263C85.8661 60.091 87.4365 57.9353 89.1339 56.5487C97.0901 50.0234 106.132 56.2924 106.132 62.6545C106.132 67.1989 105.45 69.4828 101.905 72.4774C97.8868 75.8916 93.0831 78.2686 88.3025 80.436C85.7275 81.6128 87.1824 81.1934 84.8614 80.6574ZM80.7852 68.9468L81.0046 77.185C81.0277 78.758 81.3972 80.1447 81.4319 81.5196C78.8568 82.8946 78.2102 83.5122 78.2102 86.2854C78.2102 86.903 78.4411 87.2759 78.7067 87.7303C79.0185 88.243 79.0993 88.511 79.7113 88.6742C79.1801 89.4665 78.6836 90.0608 78.1409 90.993C74.6189 96.9007 76.5935 103.041 70.7852 106.98C69.4342 107.889 68.7529 107.842 68.7529 109.275C68.7529 113.319 75.6813 109.66 78.2102 102.773C78.776 101.224 79.2032 98.1941 79.7113 96.2598C80.3349 93.8128 81.3048 92.6476 82.5058 90.8415C85.3349 90.9114 88.5219 92.2864 88.5219 84.3395C89.6536 83.7336 90.8083 83.2908 92.0323 82.6732C97.1709 80.0747 103.88 76.7305 107.217 71.9764C113.695 62.7361 107.125 50.3031 97.3326 50.3031C93.1409 50.3031 89.8383 51.142 86.7436 53.9269L84.6074 56.1059C81.7898 59.322 80.7852 64.4606 80.7852 68.9468ZM5.16166 22.7686C7.87529 23.3979 6.17783 24.7612 10.3118 22.7686C10.2425 23.6542 9.65358 24.8544 10.0462 25.6118C10.3695 26.241 11.4203 26.7654 11.8129 27.313C11.0277 27.4995 9.5843 27.4762 9.00693 27.9539C8.53349 28.3501 8.36028 29.5153 7.51732 30.1329C6.9746 27.7791 6.03926 27.3713 3.64896 27.313C4.21478 26.4741 5.09238 26.2294 5.4157 25.6235C5.72748 25.0292 5.40416 23.2813 5.16166 22.7686ZM0 26.8819C0 30.1679 1.46651 30.3426 3.49885 30.9369C4.65358 31.2865 4.28406 31.7293 5.02309 32.6615C6.43187 34.4559 10.3811 34.421 11.1778 31.0068C16.2702 31.0068 16.0393 26.4857 14.5612 24.9826C13.1293 23.5377 13.9607 24.4 13.9607 22.5472C13.9607 20.578 12.4365 19.0748 10.0924 19.0748C9.07621 19.0748 8.79908 19.774 7.88684 19.8439C6.77829 19.9371 7.24018 19.0748 4.94226 19.0748C3.14088 19.0748 1.83603 20.4149 1.72055 22.1161C1.61663 23.7474 2.11316 23.8057 1.14319 24.7845C0.612009 25.3088 0 25.8915 0 26.8819ZM106.351 27.313C103.938 27.3713 103.014 27.849 102.483 30.1329C101.628 29.5037 101.663 28.688 101.109 28.0588C100.543 27.4179 99.0416 27.5228 98.1871 27.313C98.5797 26.7654 99.6305 26.241 99.9538 25.6118C100.346 24.8544 99.7691 23.6542 99.6882 22.7686C103.822 24.7612 102.136 23.3979 104.85 22.7686C104.607 23.2813 104.273 25.0292 104.584 25.6235C104.908 26.2294 105.797 26.4741 106.351 27.313ZM96.0393 22.5472C96.0393 24.0387 96.7898 23.6659 95.6813 24.7728C93.3256 27.1383 94.4226 31.0068 98.8337 31.0068C99.6074 34.3394 103.406 34.4443 104.885 32.778C105.854 31.6943 105.185 31.3331 106.501 30.9369C108.383 30.3892 110 30.1912 110 26.8819C110 25.9963 109.457 25.3554 108.984 24.8777C107.933 23.8523 108.349 24.132 108.291 22.3258C108.222 19.8789 106.559 19.0748 104.423 19.0748C103.43 19.0748 103.002 19.8206 102.263 19.8556C101.605 19.8789 99.2263 17.9213 97.0554 20.1003C96.6166 20.543 96.0393 21.7432 96.0393 22.5472ZM55 50.9439C50.6351 50.9439 50.4503 44.1157 55 44.1157C59.5612 44.1157 59.3649 50.9439 55 50.9439ZM48.1293 46.8307C48.1293 49.1844 48.3603 50.5827 50 52.3073C54.3072 56.84 61.8822 53.6356 61.8822 47.9143C61.8822 45.7004 61.5127 44.1623 59.8961 42.5426C55.3695 37.9633 48.1293 41.8435 48.1293 46.8307ZM75.6236 49.8603C75.6236 50.9906 75.8891 52.0393 77.3441 52.0393C78.4411 52.0393 79.0416 51.0838 79.6536 50.4662L89.3303 40.7016C90.5312 39.4897 92.8176 37.6253 92.8176 36.4252C92.8176 35.3764 92.1363 34.689 91.097 34.689C90.0346 34.689 89.4919 35.5512 88.8914 36.1571L77.4018 47.7512C76.963 48.194 75.6236 49.2194 75.6236 49.8603ZM17.194 36.4252C17.194 37.6253 19.4688 39.4897 20.6813 40.7016L30.3464 50.4662C30.9584 51.0838 31.5704 52.0393 32.6559 52.0393C33.6951 52.0393 34.3764 51.3518 34.3764 50.3031C34.3764 49.1029 32.0901 47.2385 30.8891 46.015L21.2125 36.262C20.6005 35.6444 20 34.689 18.903 34.689C17.8637 34.689 17.194 35.3764 17.194 36.4252ZM90.2425 105.582C90.2425 106.747 90.739 107.539 91.9515 107.539C94.0647 107.539 93.6721 104.964 94.3995 103.286C95.0924 101.678 96.8014 101.026 98.3718 100.35C103.903 97.996 105.681 90.189 102.275 90.189C98.8337 90.189 102.679 94.5935 96.0393 97.5649C92.7829 99.0098 90.2425 101.27 90.2425 105.582ZM6.01617 91.9251C6.01617 95.6189 8.31409 98.8699 11.4781 100.292C13.1178 101.026 14.7575 101.538 15.5427 103.135C16.3626 104.801 15.8776 107.539 18.0485 107.539C21.3048 107.539 19.157 102.144 18.0947 100.548C17.0785 99.0214 15.9007 98.3922 14.1224 97.6231C10.6236 96.1316 10.2771 95.1528 9.50346 91.8669C8.87991 89.1636 6.01617 90.0025 6.01617 91.9251ZM67.0323 44.8847C67.0323 46.0383 67.5404 46.8307 68.7529 46.8307C70.3695 46.8307 70.8083 44.8148 71.3395 43.5797C71.9284 42.2164 74.8268 37.2874 71.3279 37.2874C69.7113 37.2874 69.2841 39.3033 68.7413 40.5384C68.4527 41.2143 67.0323 44.2672 67.0323 44.8847ZM36.9515 39.0236C36.9515 39.8859 38.1871 42.5077 38.6028 43.4398C39.1801 44.7449 39.6189 46.8307 41.2471 46.8307C44.7113 46.8307 41.9169 42.0183 41.3279 40.6899C40.7506 39.3732 40.3002 37.2874 38.6721 37.2874C37.6328 37.2874 36.9515 37.9749 36.9515 39.0236ZM75.6236 24.7146L73.9146 24.4582C74.0878 25.1923 74.5843 25.5302 74.6651 26.0895C74.7344 26.6605 74.3072 26.9751 74.1224 27.7558C77.6559 27.2315 75.3695 28.0821 77.3441 28.6181C77.3441 25.6001 78.0254 27.2315 79.0647 25.7982C78.649 25.705 77.8291 25.3788 77.5866 25.1224C77.552 25.0874 77.5173 25.0408 77.4827 25.0059L77.2402 24.3883C77.1247 23.8989 77.1478 23.9572 77.1363 23.4095C76.836 23.6193 75.7506 24.7379 75.6236 24.7146ZM3.44111 103.845C4.46882 105.279 5.16166 103.647 5.16166 106.665C7.13626 106.141 4.81524 105.314 8.37182 105.838C8.19861 105.022 7.75982 104.708 7.84065 104.137C7.92148 103.577 8.40647 103.24 8.59122 102.552C5.64665 102.983 7.37875 102.82 5.36951 101.468C5.33487 102.925 5.10393 103.461 3.44111 103.845ZM30.9353 25.7982C31.9746 27.2315 32.6559 25.6001 32.6559 28.6181C34.642 28.0821 32.321 27.2664 35.8776 27.7908C35.7044 26.9751 35.2656 26.6605 35.3464 26.0895C35.4157 25.5302 35.9122 25.1923 36.097 24.5048C33.1524 24.936 34.8845 24.7728 32.8753 23.4095C32.8406 25.0641 32.552 25.4254 30.9353 25.7982ZM103.129 102.762L101.42 102.517C101.594 103.24 102.09 103.577 102.159 104.137C102.24 104.708 101.801 105.022 101.628 105.803C105.162 105.279 102.864 106.141 104.85 106.665C104.85 103.647 105.531 105.279 106.57 103.845C104.781 103.426 104.896 103.065 104.769 102.412C104.7 102.074 104.677 101.981 104.63 101.468C104.33 101.666 103.256 102.785 103.129 102.762ZM54.1455 31.438C50.6582 31.438 53.6028 32.3119 53.4988 32.9528L53.2448 34.6773C53.9607 34.5258 54.5497 34.0364 55 34.0364C55.5081 34.0364 55.6351 34.4909 56.5012 34.689C56.5012 32.6731 56.1316 33.4422 56.5704 32.778C56.9746 32.1488 57.321 32.4284 57.5751 31.438C56.5242 31.438 55.6928 31.7759 55.2194 29.7018C54.6189 30.1446 54.5035 30.7505 54.1455 31.438ZM53.2794 23.4095C53.2794 25.74 56.7206 25.74 56.7206 23.4095C56.7206 21.0907 53.2794 21.0907 53.2794 23.4095ZM72.194 32.743C72.194 34.9337 75.6236 35.3764 75.6236 32.5216C75.6236 30.7854 72.194 30.7155 72.194 32.743ZM34.3764 32.5216C34.3764 35.5396 37.8176 34.619 37.8176 32.9528C37.8176 30.4941 34.3764 30.902 34.3764 32.5216Z" fill="url(#paint0_linear_576_4096)"/>
<defs>
<linearGradient id="paint0_linear_576_4096" x1="95.4882" y1="94.118" x2="16.2392" y2="17.2327" gradientUnits="userSpaceOnUse">
<stop stop-color="#00A39C"/>
<stop offset="1" stop-color="#7DF4CD"/>
</linearGradient>
</defs>
</svg>
