<svg width="84" height="89" viewBox="0 0 84 89" fill="none" xmlns="http://www.w3.org/2000/svg">
<path d="M80.7965 82.6623H72.6422V55.4628C72.6422 53.7151 71.2014 52.3016 69.454 52.3016C67.7067 52.3016 66.2659 53.7303 66.2659 55.4628V82.6623H48.923V38.2259C48.923 36.4781 47.4823 35.0646 45.7349 35.0646C43.9876 35.0646 42.5468 36.4933 42.5468 38.2259V82.6623H25.7695V61.8517C25.7695 60.1039 24.3286 58.6904 22.5813 58.6904C20.834 58.6904 19.3932 60.1191 19.3932 61.8517V82.6623H7.3763V4.16125C7.3763 2.41345 5.9355 1 4.18815 1C2.42547 1 1 2.42864 1 4.16125V85.8387C1 87.5865 2.4408 89 4.18815 89H80.6432C82.4059 89 84 87.5713 84 85.8387C84 84.1062 82.5591 82.6623 80.7965 82.6623Z" fill="url(#paint0_linear_693_5379)"/>
<path d="M22.6388 49C28.0808 49 32.416 44.6075 32.5697 39.4329C32.5697 37.3269 31.8626 35.3863 30.6788 33.8068L41.8832 20.6679C42.8209 20.9538 43.8048 21.1193 44.8194 21.1193C46.0646 21.1193 47.2637 20.8786 48.3859 20.4574L60.0606 30.8931C59.6609 31.9462 59.4457 33.0894 59.4457 34.2777C59.4457 39.6029 63.9346 43.8449 69.2229 43.8449C74.5112 43.8449 79 39.6179 79 34.2777C79 28.9526 74.5112 24.7106 69.2229 24.7106C67.3474 24.7106 65.6102 25.207 64.119 26.0945L53.2437 16.4109C54.1046 14.9969 54.5965 13.3422 54.5965 11.5671C54.5965 6.24204 50.1077 2 44.8194 2C39.3773 2 35.0422 6.227 35.0422 11.5671C35.0422 13.5678 35.6725 15.418 36.7486 16.9524L25.4213 30.2418C24.5758 30.0011 23.6842 29.8807 22.7771 29.8807C17.3352 29.8807 13 34.1078 13 39.4478C13.0153 44.6075 17.3505 49 22.6388 49ZM69.2075 30.9984C71.1291 30.9984 72.5741 32.4125 72.7278 34.4432C72.7278 36.3236 71.1291 37.888 69.2075 37.888C67.2859 37.888 65.6871 36.3236 65.6871 34.4432C65.6871 32.5629 67.2859 30.9984 69.2075 30.9984ZM44.8347 8.12237C46.6026 8.12237 48.3551 9.68685 48.3551 11.5671C48.3551 13.4475 46.7563 15.0269 44.8347 15.0269C42.9132 15.0269 41.3143 13.4626 41.3143 11.5822C41.3143 9.70182 42.8977 8.12237 44.8347 8.12237ZM22.6388 35.988C24.5604 35.988 26.1592 37.5525 26.1592 39.4329C26.1592 41.3131 24.5604 42.8776 22.6388 42.8776C20.7172 42.8776 19.1184 41.3131 19.1184 39.4329C19.103 37.5525 20.7018 35.988 22.6388 35.988Z" fill="url(#paint1_linear_693_5379)"/>
<defs>
<linearGradient id="paint0_linear_693_5379" x1="76.9318" y1="88.9998" x2="3.15811" y2="4.91298" gradientUnits="userSpaceOnUse">
<stop stop-color="#00A39C"/>
<stop offset="1" stop-color="#7DF4CD"/>
</linearGradient>
<linearGradient id="paint1_linear_693_5379" x1="77.0324" y1="88.0033" x2="4.14623" y2="3.8206" gradientUnits="userSpaceOnUse">
<stop stop-color="#00A39C"/>
<stop offset="1" stop-color="#7DF4CD"/>
</linearGradient>
</defs>
</svg>
