<svg width="24" height="24" viewBox="0 0 24 24" fill="none" xmlns="http://www.w3.org/2000/svg">
<g clip-path="url(#clip0_102_3908)">
<mask id="path-1-inside-1_102_3908" fill="white">
<path d="M4.892 15.9536C7.25918 18.7833 10.1087 21.0112 13.3611 22.5877C14.5994 23.1745 16.2554 23.8707 18.1005 23.9901C18.2148 23.995 18.3242 24 18.4386 24C19.6769 24 20.6715 23.5723 21.4821 22.6921C21.4871 22.6871 21.4971 22.6772 21.502 22.6672C21.7905 22.3191 22.1187 22.0058 22.4618 21.6726C22.6956 21.4488 22.9343 21.2151 23.163 20.9764C24.2223 19.8724 24.2223 18.47 23.1531 17.4007L20.1643 14.4119C19.657 13.8848 19.0503 13.6063 18.4138 13.6063C17.7772 13.6063 17.1655 13.8848 16.6433 14.407L14.863 16.1873C14.6989 16.0928 14.5298 16.0083 14.3707 15.9287C14.1717 15.8293 13.9877 15.7348 13.8236 15.6303C12.2024 14.6009 10.7304 13.2582 9.323 11.5325C8.61185 10.6324 8.13444 9.8765 7.80124 9.10568C8.26871 8.68297 8.70634 8.24037 9.12905 7.80771C9.27824 7.65354 9.43241 7.49938 9.58657 7.34521C10.1237 6.80812 10.4121 6.18649 10.4121 5.55491C10.4121 4.92333 10.1286 4.3017 9.58657 3.76461L8.1046 2.28264C7.93054 2.10858 7.76643 1.93949 7.59735 1.76544C7.26912 1.42727 6.92598 1.07915 6.58781 0.765852C6.07559 0.263572 5.47385 0 4.8373 0C4.20572 0 3.599 0.263572 3.06689 0.770825L1.20696 2.63075C0.530624 3.30709 0.147698 4.12764 0.0681294 5.0775C-0.0263587 6.26606 0.192456 7.52922 0.759385 9.05595C1.62967 11.4182 2.94256 13.6113 4.892 15.9536ZM1.28156 5.18193C1.34123 4.52051 1.59486 3.9685 2.07227 3.49109L3.92225 1.64111C4.21069 1.36262 4.52897 1.2184 4.8373 1.2184C5.14065 1.2184 5.44898 1.36262 5.73245 1.65106C6.06564 1.95939 6.37895 2.28264 6.71711 2.62578C6.8862 2.79983 7.06026 2.97389 7.23431 3.15292L8.71628 4.63489C9.02462 4.94322 9.18375 5.25653 9.18375 5.56486C9.18375 5.87319 9.02462 6.18649 8.71628 6.49482C8.56212 6.64898 8.40796 6.80812 8.25379 6.96229C7.7913 7.42976 7.35864 7.87236 6.88123 8.29507C6.87128 8.30501 6.86631 8.30999 6.85636 8.31993C6.4436 8.7327 6.50825 9.12557 6.60771 9.42395C6.61268 9.43887 6.61765 9.44882 6.62263 9.46374C7.00555 10.3838 7.53767 11.259 8.36817 12.3034C9.86009 14.1434 11.4316 15.5707 13.1622 16.6697C13.376 16.809 13.6048 16.9184 13.8186 17.0278C14.0176 17.1272 14.2016 17.2217 14.3657 17.3261C14.3856 17.3361 14.4005 17.346 14.4204 17.356C14.5845 17.4405 14.7436 17.4803 14.9028 17.4803C15.3006 17.4803 15.5592 17.2267 15.6438 17.1421L17.5037 15.2822C17.7921 14.9938 18.1054 14.8396 18.4138 14.8396C18.7917 14.8396 19.1 15.0734 19.294 15.2822L22.2927 18.276C22.8895 18.8728 22.8845 19.5193 22.2778 20.1509C22.069 20.3746 21.8501 20.5885 21.6164 20.8123C21.2683 21.1504 20.9053 21.4986 20.577 21.8914C20.0051 22.5081 19.3238 22.7965 18.4436 22.7965C18.3591 22.7965 18.2695 22.7915 18.185 22.7866C16.5538 22.6821 15.037 22.0456 13.8982 21.5035C10.805 20.0066 8.08968 17.8831 5.83688 15.1877C3.98193 12.9548 2.73369 10.8761 1.90816 8.64816C1.39594 7.28056 1.20199 6.18152 1.28156 5.18193Z"/>
</mask>
<path d="M4.892 15.9536L1.8175 18.5124L1.82398 18.5202L4.892 15.9536ZM13.3611 22.5877L11.6164 26.1871L11.6323 26.1948L11.6482 26.2023L13.3611 22.5877ZM18.1005 23.9901L17.8422 27.9817L17.8844 27.9844L17.9267 27.9863L18.1005 23.9901ZM21.4821 22.6921L18.6537 19.8637L18.5955 19.9219L18.5397 19.9824L21.4821 22.6921ZM21.502 22.6672L18.4219 20.1151L18.1294 20.4682L17.9243 20.8784L21.502 22.6672ZM22.4618 21.6726L19.6955 18.7834L19.6854 18.7931L19.6753 18.8029L22.4618 21.6726ZM23.163 20.9764L20.2767 18.2071L20.2751 18.2088L23.163 20.9764ZM20.1643 14.4119L17.282 17.1855L17.3087 17.2132L17.3358 17.2404L20.1643 14.4119ZM16.6433 14.407L19.4718 17.2354V17.2354L16.6433 14.407ZM14.863 16.1873L12.8671 19.6538L15.5238 21.1834L17.6914 19.0157L14.863 16.1873ZM14.3707 15.9287L12.5818 19.5064L14.3707 15.9287ZM13.8236 15.6303L15.9711 12.2557L15.9678 12.2536L13.8236 15.6303ZM9.323 11.5325L6.18436 14.0122L6.20359 14.0366L6.22319 14.0606L9.323 11.5325ZM7.80124 9.10568L5.11842 6.13879L2.99217 8.06146L4.12958 10.6928L7.80124 9.10568ZM9.12905 7.80771L11.9902 10.6031L11.9968 10.5962L12.0035 10.5894L9.12905 7.80771ZM9.58657 3.76461L6.75814 6.59304L6.76466 6.59955L6.77121 6.60604L9.58657 3.76461ZM8.1046 2.28264L5.27617 5.11106L5.27617 5.11106L8.1046 2.28264ZM7.59735 1.76544L4.72702 4.55134L4.72823 4.55258L7.59735 1.76544ZM6.58781 0.765852L3.78725 3.62187L3.82773 3.66157L3.86932 3.7001L6.58781 0.765852ZM3.06689 0.770825L0.306914 -2.12444L0.272287 -2.09143L0.238459 -2.0576L3.06689 0.770825ZM1.20696 2.63075L4.03539 5.45918L1.20696 2.63075ZM0.0681294 5.0775L-3.91791 4.74359L-3.91862 4.75205L-3.91929 4.76051L0.0681294 5.0775ZM0.759385 9.05595L4.51277 7.67312L4.5092 7.66351L0.759385 9.05595ZM1.28156 5.18193L-2.70226 4.82249L-2.70416 4.8435L-2.70583 4.86453L1.28156 5.18193ZM2.07227 3.49109L-0.756153 0.662662L-0.756154 0.662663L2.07227 3.49109ZM3.92225 1.64111L1.14387 -1.2365L1.11863 -1.21213L1.09383 -1.18732L3.92225 1.64111ZM5.73245 1.65106L2.87953 4.45478L2.94604 4.52246L3.01569 4.58691L5.73245 1.65106ZM6.71711 2.62578L9.58623 -0.161366L9.57621 -0.171684L9.56611 -0.18193L6.71711 2.62578ZM7.23431 3.15292L4.36633 5.94124L4.38597 5.96143L4.40589 5.98135L7.23431 3.15292ZM8.71628 4.63489L11.5447 1.80647V1.80647L8.71628 4.63489ZM8.25379 6.96229L5.42536 4.13386L5.4178 4.14142L5.41028 4.14903L8.25379 6.96229ZM6.88123 8.29507L4.22958 5.30027L4.13867 5.38077L4.0528 5.46664L6.88123 8.29507ZM6.85636 8.31993L4.02793 5.49151L6.85636 8.31993ZM6.60771 9.42395L10.4024 8.15904L6.60771 9.42395ZM6.62263 9.46374L2.82789 10.7286L2.87387 10.8666L2.92973 11.0008L6.62263 9.46374ZM8.36817 12.3034L5.23744 14.793L5.24922 14.8079L5.26115 14.8226L8.36817 12.3034ZM13.1622 16.6697L15.3449 13.3177L15.3258 13.3053L15.3066 13.2931L13.1622 16.6697ZM13.8186 17.0278L11.9967 20.5888L12.0132 20.5972L12.0298 20.6055L13.8186 17.0278ZM14.3657 17.3261L12.2182 20.7008L12.3923 20.8116L12.5768 20.9039L14.3657 17.3261ZM14.4204 17.356L16.2522 13.8001L16.2308 13.7891L16.2092 13.7783L14.4204 17.356ZM15.6438 17.1421L18.4722 19.9706H18.4722L15.6438 17.1421ZM17.5037 15.2822L14.6753 12.4538L14.6753 12.4538L17.5037 15.2822ZM19.294 15.2822L16.3628 18.004L16.4143 18.0595L16.4679 18.113L19.294 15.2822ZM22.2927 18.276L25.1212 15.4476L25.1188 15.4452L22.2927 18.276ZM22.2778 20.1509L19.3932 17.3798L19.3732 17.4005L19.3536 17.4216L22.2778 20.1509ZM21.6164 20.8123L18.8501 17.923L18.8397 17.9331L18.8293 17.9431L21.6164 20.8123ZM20.577 21.8914L23.5099 24.6114L23.5803 24.5355L23.6467 24.456L20.577 21.8914ZM18.185 22.7866L17.9294 26.7784L17.9398 26.7791L17.9501 26.7797L18.185 22.7866ZM13.8982 21.5035L12.1558 25.1041L12.1674 25.1097L12.1791 25.1153L13.8982 21.5035ZM5.83688 15.1877L2.76005 17.7438L2.76771 17.7529L5.83688 15.1877ZM1.90816 8.64816L5.65898 7.25834L5.65404 7.24515L1.90816 8.64816ZM1.82398 18.5202C4.54894 21.7775 7.84747 24.3602 11.6164 26.1871L15.1058 18.9882C12.37 17.6621 9.96941 15.789 7.96002 13.387L1.82398 18.5202ZM11.6482 26.2023C12.9801 26.8335 15.2061 27.8112 17.8422 27.9817L18.3587 19.9984C17.3048 19.9302 16.2188 19.5154 15.0741 18.973L11.6482 26.2023ZM17.9267 27.9863C18.0207 27.9904 18.2209 28 18.4386 28V20C18.439 20 18.4298 20 18.4028 19.9991C18.3717 19.9981 18.3389 19.9966 18.2742 19.9938L17.9267 27.9863ZM18.4386 28C20.7518 28 22.8278 27.1356 24.4245 25.4018L18.5397 19.9824C18.5046 20.0205 18.4888 20.0308 18.4946 20.0267C18.5014 20.0217 18.5182 20.0111 18.5413 20.0012C18.564 19.9914 18.5755 19.9898 18.5673 19.9914C18.5576 19.9932 18.5175 20 18.4386 20V28ZM24.3106 25.5205C24.3116 25.5195 24.4144 25.4185 24.5291 25.2847C24.6234 25.1746 24.8658 24.884 25.0797 24.4561L17.9243 20.8784C18.0378 20.6514 18.1529 20.476 18.2355 20.3596C18.3207 20.2395 18.3984 20.1445 18.455 20.0784C18.5623 19.9533 18.6576 19.8597 18.6537 19.8637L24.3106 25.5205ZM24.5821 25.2193C24.7021 25.0745 24.8516 24.9276 25.2484 24.5423L19.6753 18.8029C19.3858 19.084 18.8789 19.5637 18.4219 20.1151L24.5821 25.2193ZM25.2281 24.5618C25.4813 24.3194 25.766 24.0414 26.051 23.744L20.2751 18.2088C20.1026 18.3888 19.9098 18.5783 19.6955 18.7834L25.2281 24.5618ZM26.0494 23.7457C27.1731 22.5745 27.9599 20.9891 27.9562 19.1675C27.9526 17.3366 27.1506 15.7414 25.9815 14.5723L20.3247 20.2292C20.2248 20.1293 19.9574 19.7699 19.9562 19.1835C19.9551 18.6065 20.2122 18.2743 20.2767 18.2071L26.0494 23.7457ZM25.9815 14.5723L22.9927 11.5835L17.3358 17.2404L20.3247 20.2292L25.9815 14.5723ZM23.0466 11.6384C21.9047 10.4518 20.2989 9.6063 18.4138 9.6063V17.6063C18.1363 17.6063 17.8784 17.5432 17.6661 17.4455C17.4598 17.3506 17.3368 17.2425 17.282 17.1855L23.0466 11.6384ZM18.4138 9.6063C16.5352 9.6063 14.9486 10.4448 13.8149 11.5785L19.4718 17.2354C19.4329 17.2742 19.3262 17.3683 19.1363 17.4544C18.94 17.5433 18.6911 17.6063 18.4138 17.6063V9.6063ZM13.8149 11.5785L12.0346 13.3589L17.6914 19.0157L19.4718 17.2354L13.8149 11.5785ZM16.8588 12.7208C16.5764 12.5582 16.3028 12.4227 16.1595 12.351L12.5818 19.5064C12.7568 19.5939 12.8213 19.6274 12.8671 19.6538L16.8588 12.7208ZM16.1595 12.351C16.0671 12.3048 16.0148 12.2779 15.9776 12.258C15.9423 12.239 15.9456 12.2395 15.9711 12.2557L11.6761 19.005C12.0343 19.2329 12.3878 19.4094 12.5818 19.5064L16.1595 12.351ZM15.9678 12.2536C14.7639 11.4891 13.604 10.4527 12.4228 9.00445L6.22319 14.0606C7.8568 16.0637 9.64095 17.7127 11.6795 19.0071L15.9678 12.2536ZM12.4616 9.05283C11.8847 8.32259 11.6241 7.86832 11.4729 7.51857L4.12958 10.6928C4.64479 11.8847 5.33899 12.9422 6.18436 14.0122L12.4616 9.05283ZM10.4841 12.0726C11.0515 11.5594 11.5643 11.0389 11.9902 10.6031L6.26793 5.01236C5.84834 5.44182 5.4859 5.80649 5.11842 6.13879L10.4841 12.0726ZM12.0035 10.5894C12.126 10.4628 12.2567 10.3319 12.415 10.1736L6.75814 4.51679C6.60812 4.66681 6.43052 4.84428 6.25464 5.02602L12.0035 10.5894ZM12.415 10.1736C13.5312 9.05739 14.4121 7.4669 14.4121 5.55491H6.4121C6.4121 4.90608 6.71607 4.55886 6.75814 4.51679L12.415 10.1736ZM14.4121 5.55491C14.4121 3.65727 13.5482 2.0589 12.4019 0.923177L6.77121 6.60604C6.7091 6.5445 6.4121 6.1894 6.4121 5.55491H14.4121ZM12.415 0.936181L10.933 -0.545792L5.27617 5.11106L6.75814 6.59304L12.415 0.936181ZM10.933 -0.545791C10.7831 -0.695715 10.6396 -0.84349 10.4665 -1.02171L4.72823 4.55258C4.89327 4.72248 5.07798 4.91287 5.27617 5.11106L10.933 -0.545791ZM10.4677 -1.02046C10.1331 -1.36512 9.72759 -1.77809 9.30631 -2.16839L3.86932 3.7001C4.12438 3.9364 4.4051 4.21966 4.72702 4.55134L10.4677 -1.02046ZM9.38838 -2.09017C8.23316 -3.22296 6.65925 -4 4.8373 -4V4C4.59179 4 4.35622 3.94687 4.1555 3.85902C3.96024 3.77357 3.8412 3.67478 3.78725 3.62187L9.38838 -2.09017ZM4.8373 -4C3.01374 -4 1.4549 -3.21879 0.306914 -2.12444L5.82686 3.66609C5.79401 3.6974 5.69275 3.78382 5.51082 3.86298C5.32254 3.94491 5.09013 4 4.8373 4V-4ZM0.238459 -2.0576L-1.62147 -0.197677L4.03539 5.45918L5.89531 3.59925L0.238459 -2.0576ZM-1.62147 -0.197677C-2.96077 1.14162 -3.75876 2.84369 -3.91791 4.74359L4.05417 5.41141C4.05572 5.39292 4.05742 5.38999 4.05506 5.39905C4.05261 5.40841 4.04774 5.42324 4.03976 5.44038C4.03179 5.45749 4.02411 5.46962 4.01996 5.47549C4.01601 5.48107 4.01929 5.47527 4.03539 5.45918L-1.62147 -0.197677ZM-3.91929 4.76051C-4.07342 6.6993 -3.69084 8.56219 -2.99043 10.4484L4.5092 7.66351C4.07575 6.49624 4.0207 5.83282 4.05555 5.39449L-3.91929 4.76051ZM-2.99399 10.4388C-1.93729 13.3069 -0.365084 15.8899 1.81751 18.5124L7.96649 13.3948C6.2502 11.3326 5.19664 9.52937 4.51276 7.67313L-2.99399 10.4388ZM5.26537 5.54137C5.25776 5.62578 5.22929 5.77803 5.14643 5.95597C5.0633 6.13451 4.96383 6.25639 4.9007 6.31952L-0.756154 0.662663C-1.90355 1.81006 -2.55939 3.23902 -2.70226 4.82249L5.26537 5.54137ZM4.9007 6.31952L6.75068 4.46954L1.09383 -1.18732L-0.756153 0.662662L4.9007 6.31952ZM6.70063 4.51872C6.44883 4.76184 5.81978 5.2184 4.8373 5.2184V-2.7816C3.23815 -2.7816 1.97255 -2.0366 1.14387 -1.2365L6.70063 4.51872ZM4.8373 5.2184C3.79625 5.2184 3.13373 4.71344 2.87953 4.45478L8.58536 -1.15267C7.76424 -1.9882 6.48505 -2.7816 4.8373 -2.7816V5.2184ZM3.01569 4.58691C3.26329 4.81603 3.49408 5.05394 3.86812 5.43348L9.56611 -0.18193C9.26381 -0.488673 8.868 -0.897258 8.44921 -1.28479L3.01569 4.58691ZM3.848 5.41292C3.94446 5.51222 4.04053 5.60966 4.12529 5.69564C4.21339 5.78501 4.29062 5.86336 4.36633 5.94124L10.1023 0.364608C10.004 0.263457 9.90712 0.165263 9.82241 0.0793337C9.73435 -0.00998933 9.65885 -0.0866118 9.58623 -0.161366L3.848 5.41292ZM4.40589 5.98135L5.88786 7.46332L11.5447 1.80647L10.0627 0.324494L4.40589 5.98135ZM5.88786 7.46332C5.77549 7.35096 5.18375 6.70673 5.18375 5.56486H13.1838C13.1838 3.80633 12.2737 2.53549 11.5447 1.80647L5.88786 7.46332ZM5.18375 5.56486C5.18375 4.42299 5.77549 3.77876 5.88786 3.66639L11.5447 9.32325C12.2737 8.59422 13.1838 7.32339 13.1838 5.56486H5.18375ZM5.88786 3.66639C5.79755 3.7567 5.70922 3.84649 5.63408 3.92284C5.55506 4.00314 5.48922 4.07 5.42536 4.13386L11.0822 9.79071C11.1725 9.70041 11.2609 9.61062 11.336 9.53427C11.415 9.45397 11.4809 9.38711 11.5447 9.32325L5.88786 3.66639ZM5.41028 4.14903C4.91588 4.64874 4.58641 4.98433 4.22958 5.30027L9.53287 11.2899C10.1309 10.7604 10.6667 10.2108 11.0973 9.77555L5.41028 4.14903ZM4.0528 5.46664C4.05198 5.46746 4.05177 5.46767 4.05099 5.46845C4.05021 5.46923 4.05003 5.46941 4.04928 5.47016C4.04856 5.47088 4.04918 5.47026 4.04846 5.47098C4.04774 5.4717 4.04838 5.47106 4.04766 5.47178C4.04661 5.47283 4.04715 5.47229 4.04612 5.47332C4.03803 5.4814 4.04829 5.47115 4.04037 5.47907C4.03713 5.48231 4.03241 5.48703 4.02793 5.49151L9.68479 11.1484C9.68562 11.1475 9.68442 11.1487 9.68525 11.1479C9.68527 11.1479 9.68529 11.1479 9.68531 11.1478C9.68533 11.1478 9.68535 11.1478 9.68536 11.1478C9.68538 11.1478 9.6854 11.1477 9.68542 11.1477C9.68544 11.1477 9.68546 11.1477 9.68548 11.1477C9.68588 11.1473 9.6853 11.1478 9.68571 11.1474C9.68591 11.1472 9.6864 11.1467 9.6866 11.1466C9.68699 11.1462 9.68708 11.1461 9.68746 11.1457C9.68748 11.1457 9.6875 11.1457 9.68752 11.1456C9.68753 11.1456 9.68755 11.1456 9.68757 11.1456C9.68759 11.1456 9.6876 11.1455 9.68762 11.1455C9.68764 11.1455 9.68766 11.1455 9.68767 11.1455C9.68786 11.1453 9.6877 11.1455 9.68789 11.1453C9.68798 11.1452 9.6879 11.1453 9.68799 11.1452C9.68808 11.1451 9.688 11.1451 9.6881 11.1451C9.68847 11.1447 9.68793 11.1452 9.6883 11.1448C9.68903 11.1441 9.6884 11.1447 9.68912 11.144C9.68984 11.1433 9.68921 11.1439 9.68992 11.1432C9.69273 11.1404 9.68868 11.1445 9.69147 11.1417C9.69407 11.1391 9.69186 11.1413 9.6944 11.1387C9.69948 11.1337 9.69216 11.141 9.69722 11.1359C9.70443 11.1287 9.7012 11.1319 9.70965 11.1235L4.0528 5.46664ZM4.02793 5.49151C3.25209 6.26735 2.71185 7.27145 2.56983 8.42682C2.44036 9.48006 2.68937 10.318 2.81297 10.6889L10.4024 8.15904C10.4266 8.23147 10.5935 8.72383 10.5101 9.40286C10.414 10.184 10.0479 10.7853 9.68479 11.1484L4.02793 5.49151ZM2.81297 10.6889C2.83568 10.757 2.85679 10.8145 2.87349 10.8584C2.88156 10.8795 2.88842 10.8971 2.8931 10.9089C2.89737 10.9197 2.90115 10.9291 2.90126 10.9294C2.90239 10.9322 2.89985 10.9259 2.89683 10.9183C2.8934 10.9096 2.88778 10.8952 2.88095 10.8773C2.86674 10.84 2.84811 10.7893 2.82789 10.7286L10.4174 8.19883C10.3947 8.1307 10.3735 8.07317 10.3568 8.02934C10.3488 8.00815 10.3419 7.99064 10.3372 7.9788C10.333 7.968 10.3292 7.95857 10.3291 7.95827C10.3279 7.95546 10.3305 7.96178 10.3335 7.96944C10.3369 7.97813 10.3426 7.99245 10.3494 8.01038C10.3636 8.04768 10.3822 8.09838 10.4024 8.15904L2.81297 10.6889ZM2.92973 11.0008C3.48786 12.3417 4.23637 13.5342 5.23744 14.793L11.4989 9.81368C10.839 8.98382 10.5232 8.42577 10.3155 7.92669L2.92973 11.0008ZM5.26115 14.8226C6.98769 16.952 8.87466 18.6853 11.0178 20.0463L15.3066 13.2931C13.9885 12.456 12.7325 11.3348 11.4752 9.78415L5.26115 14.8226ZM10.9795 20.0217C11.4194 20.3081 11.9153 20.5471 11.9967 20.5888L15.6405 13.4668C15.5793 13.4355 15.5029 13.3969 15.465 13.3777C15.4164 13.3531 15.3842 13.3365 15.3583 13.3228C15.305 13.2947 15.3112 13.2958 15.3449 13.3177L10.9795 20.0217ZM12.0298 20.6055C12.1222 20.6517 12.1745 20.6786 12.2117 20.6985C12.247 20.7175 12.2437 20.717 12.2182 20.7008L16.5132 13.9515C16.155 13.7235 15.8015 13.5471 15.6075 13.4501L12.0298 20.6055ZM12.5768 20.9039C12.5218 20.8764 12.4773 20.8524 12.4475 20.8359C12.433 20.8279 12.4216 20.8215 12.4152 20.8179C12.4097 20.8147 12.4052 20.8122 12.4085 20.814C12.4096 20.8147 12.4184 20.8197 12.4283 20.8253C12.4391 20.8314 12.4549 20.8403 12.4739 20.8508C12.5128 20.8723 12.5666 20.9012 12.6315 20.9337L16.2092 13.7783C16.2643 13.8058 16.3088 13.8298 16.3386 13.8462C16.3531 13.8542 16.3645 13.8607 16.3709 13.8643C16.3764 13.8674 16.3808 13.87 16.3776 13.8681C16.3765 13.8675 16.3677 13.8624 16.3578 13.8568C16.347 13.8507 16.3312 13.8418 16.3121 13.8313C16.2733 13.8099 16.2195 13.7809 16.1545 13.7484L12.5768 20.9039ZM12.5886 20.9119C13.2561 21.2558 14.039 21.4803 14.9028 21.4803V13.4803C15.4482 13.4803 15.9128 13.6253 16.2522 13.8001L12.5886 20.9119ZM14.9028 21.4803C17.0376 21.4803 18.3135 20.1292 18.4722 19.9706L12.8153 14.3137C12.8049 14.3242 13.5636 13.4803 14.9028 13.4803V21.4803ZM18.4722 19.9706L20.3321 18.1106L14.6753 12.4538L12.8153 14.3137L18.4722 19.9706ZM20.3321 18.1106C20.1383 18.3045 19.493 18.8396 18.4138 18.8396V10.8396C16.7179 10.8396 15.446 11.6831 14.6753 12.4538L20.3321 18.1106ZM18.4138 18.8396C17.7578 18.8396 17.2522 18.6342 16.9446 18.4591C16.6491 18.291 16.4627 18.1116 16.3628 18.004L22.2252 12.5604C21.7449 12.0432 20.4453 10.8396 18.4138 10.8396V18.8396ZM16.4679 18.113L19.4667 21.1068L25.1188 15.4452L22.1201 12.4514L16.4679 18.113ZM19.4643 21.1044C19.2585 20.8986 18.7283 20.2376 18.7367 19.1688C18.7449 18.1327 19.2552 17.5235 19.3932 17.3798L25.1625 22.9219C25.9072 22.1467 26.7233 20.8984 26.7365 19.2319C26.7499 17.5328 25.9238 16.2502 25.1212 15.4476L19.4643 21.1044ZM19.3536 17.4216C19.2239 17.5606 19.071 17.7116 18.8501 17.923L24.3827 23.7015C24.6293 23.4654 24.914 23.1887 25.202 22.8801L19.3536 17.4216ZM18.8293 17.9431C18.5219 18.2418 17.9955 18.7425 17.5073 19.3269L23.6467 24.456C23.815 24.2546 24.0147 24.0591 24.4036 23.6814L18.8293 17.9431ZM17.6442 19.1714C17.6972 19.1143 17.8386 18.9884 18.0644 18.8926C18.1679 18.8487 18.2612 18.8233 18.3343 18.8097C18.4053 18.7964 18.4451 18.7965 18.4436 18.7965V26.7965C20.3753 26.7965 22.1401 26.0884 23.5099 24.6114L17.6442 19.1714ZM18.4436 18.7965C18.4613 18.7965 18.4738 18.7968 18.4801 18.7969C18.4864 18.7971 18.4886 18.7972 18.4855 18.7971C18.4824 18.7969 18.476 18.7966 18.4647 18.796C18.453 18.7954 18.4394 18.7946 18.4199 18.7935L17.9501 26.7797C18.0248 26.7841 18.2254 26.7965 18.4436 26.7965V18.7965ZM18.4406 18.7947C17.6108 18.7416 16.6715 18.3936 15.6173 17.8918L12.1791 25.1153C13.4026 25.6976 15.4969 26.6227 17.9294 26.7784L18.4406 18.7947ZM15.6406 17.903C13.0664 16.6572 10.801 14.8898 8.90605 12.6225L2.76771 17.7529C5.37836 20.8765 8.54357 23.356 12.1558 25.1041L15.6406 17.903ZM8.9137 12.6317C7.28639 10.6728 6.29716 8.98074 5.65896 7.25835L-1.84263 10.038C-0.82978 12.7714 0.677473 15.2368 2.76007 17.7437L8.9137 12.6317ZM5.65404 7.24515C5.26753 6.2132 5.25108 5.72377 5.26894 5.49933L-2.70583 4.86453C-2.8471 6.63926 -2.47565 8.34792 -1.83771 10.0512L5.65404 7.24515Z" fill="url(#paint0_linear_102_3908)" mask="url(#path-1-inside-1_102_3908)"/>
</g>
<defs>
<linearGradient id="paint0_linear_102_3908" x1="12.0016" y1="0" x2="12.0016" y2="24" gradientUnits="userSpaceOnUse">
<stop stop-color="#00A39C"/>
<stop offset="1" stop-color="#7DF4CD"/>
</linearGradient>
<clipPath id="clip0_102_3908">
<rect width="24" height="24" fill="white"/>
</clipPath>
</defs>
</svg>
