<?xml version="1.0" encoding="UTF-8"?>
<!DOCTYPE svg PUBLIC "-//W3C//DTD SVG 1.0//EN" "http://www.w3.org/TR/2001/REC-SVG-20010904/DTD/svg10.dtd">
<!-- Creator: CorelDRAW X8 -->
<svg xmlns="http://www.w3.org/2000/svg" xml:space="preserve" width="204.653mm" height="196.129mm" version="1.0" style="shape-rendering:geometricPrecision; text-rendering:geometricPrecision; image-rendering:optimizeQuality; fill-rule:evenodd; clip-rule:evenodd"
viewBox="0 0 8805 8438"
 xmlns:xlink="http://www.w3.org/1999/xlink">
 <defs>
  <style type="text/css">
   <![CDATA[
    .fil0 {fill:black}
   ]]>
  </style>
 </defs>
 <g id="Слой_x0020_1">
  <metadata id="CorelCorpID_0Corel-Layer"/>
  <path class="fil0" d="M4219 0l367 0c2320,0 4219,1899 4219,4219l0 0c0,2321 -1899,4219 -4219,4219l-367 0c-2320,0 -4219,-1898 -4219,-4219l0 0c0,-2320 1899,-4219 4219,-4219zm966 4435c-62,-16 -100,-30 -144,35 -63,100 -197,319 -326,254 -65,-30 -263,-95 -500,-305 -184,-165 -311,-363 -344,-423 -54,-101 118,-208 181,-336 21,-42 12,-78 -6,-107 -12,-30 -136,-335 -189,-456 -51,-125 -103,-104 -137,-104 -343,0 -505,244 -505,586 0,68 14,142 35,207 62,219 198,396 220,426 29,42 426,680 1055,926 633,245 633,163 746,154 110,-8 364,-145 417,-293 51,-142 51,-266 33,-292 -21,-37 -536,-270 -536,-272zm1785 -346c-34,-1355 -1149,-2441 -2522,-2441 -1357,0 -2464,1059 -2520,2394 -4,35 -4,74 -4,107 0,475 134,917 362,1298l-456 1343 1399 -444c362,198 779,309 1219,309 1394,0 2527,-1119 2527,-2506 0,-21 -5,-39 -5,-60zm-2522 2171c-431,0 -831,-129 -1168,-349l-814 258 264 -784c-255,-343 -406,-775 -406,-1236 0,-69 6,-133 14,-202 104,-1068 1012,-1902 2110,-1902 1115,0 2033,857 2118,1941 4,56 4,112 4,163 0,1163 -952,2111 -2122,2111z"/>
 </g>
</svg>
