<svg width="74" height="156" viewBox="0 0 74 156" fill="none" xmlns="http://www.w3.org/2000/svg">
<path d="M74 115.685H36.8754V37.3098L10.4646 46.825C7.97306 45.3226 5.56453 43.236 3.23906 40.565C1.07969 37.8941 0 34.2215 0 29.5474C0 20.6998 5.31537 14.5233 15.9461 11.0176L45.596 0H53.8182C59.9641 0 64.8642 1.83627 68.5185 5.50882C72.1728 9.18137 74 14.1059 74 20.2825V115.685ZM36.8754 87.8909H74V153.746C72.3389 154.247 70.0135 154.748 67.0236 155.249C64.0337 155.75 60.7946 156 57.3064 156C50.33 156 45.1807 154.748 41.8586 152.244C38.5365 149.74 36.8754 145.149 36.8754 138.472V87.8909Z" fill="#00A39C" fill-opacity="0.1"/>
</svg>
