<svg width="112" height="160" viewBox="0 0 112 160" fill="none" xmlns="http://www.w3.org/2000/svg">
<path d="M50.613 0C68.9873 0 83.1857 3.92894 93.2081 11.7868C103.23 19.4775 108.242 30.0105 108.242 43.3856C108.242 49.07 107.156 54.1693 104.984 58.6834C102.813 63.0303 100.057 66.7085 96.7159 69.7179C93.3751 72.7273 89.7837 75.0679 85.9418 76.7398C90.6189 78.2445 94.8784 80.5852 98.7204 83.7618C102.729 86.9384 105.903 91.0345 108.242 96.0502C110.747 100.899 112 106.917 112 114.107C112 123.636 109.411 131.912 104.233 138.934C99.0544 145.789 91.8717 151.055 82.6846 154.734C73.6644 158.245 63.1409 160 51.1141 160C40.2565 160 30.9858 158.913 23.302 156.74C15.7852 154.734 10.0224 151.891 6.01342 148.213C2.00447 144.368 0 140.188 0 135.674C0 131.661 0.918718 128.15 2.75615 125.141C4.76063 122.132 7.1827 119.875 10.0224 118.37C13.6972 120.878 18.3743 123.469 24.0537 126.144C29.9001 128.819 37.4169 130.157 46.604 130.157C55.6242 130.157 62.5563 128.401 67.4004 124.89C72.2446 121.379 74.6667 116.698 74.6667 110.846C74.6667 105.162 72.6622 100.731 68.6532 97.5549C64.6443 94.3783 58.1298 92.79 49.1096 92.79H26.3087C25.1394 91.1181 24.1372 89.1118 23.302 86.7712C22.6339 84.2633 22.2998 81.4211 22.2998 78.2445C22.2998 74.9007 22.6339 71.9749 23.302 69.4671C24.1372 66.9593 25.1394 64.953 26.3087 63.4483H48.6085C56.2923 63.4483 61.8881 62.0272 65.396 59.185C68.9038 56.3427 70.6577 52.2466 70.6577 46.8966C70.6577 41.7137 68.4862 37.6176 64.1432 34.6082C59.8001 31.4316 53.4526 29.8433 45.1007 29.8433C38.085 29.8433 31.821 30.7628 26.3087 32.6019C20.9635 34.441 16.5369 36.6144 13.0291 39.1223C10.5235 37.2832 8.35198 35.0261 6.51454 32.3511C4.84415 29.6761 4.00895 26.5831 4.00895 23.0721C4.00895 18.0564 5.9299 13.8767 9.77181 10.5329C13.6137 7.18914 19.0425 4.5977 26.0582 2.75862C33.2409 0.919538 41.4258 0 50.613 0Z" fill="#00A39C" fill-opacity="0.1"/>
</svg>
