<svg width="74" height="74" viewBox="0 0 74 74" fill="none" xmlns="http://www.w3.org/2000/svg">
<path d="M21.4708 74H52.4923C65.967 74 74 65.971 74 52.503V21.534C74 8.029 65.967 0 52.4923 0H21.5078C8.03313 0 0.00012207 8.029 0.00012207 21.497V52.503C-0.0368958 65.971 7.99611 74 21.4708 74ZM38.4253 37.592C38.4253 26.196 40.9055 23.643 47.5318 19.721C47.976 19.462 48.4573 19.351 48.9385 19.351C49.901 19.351 50.8265 19.832 51.3447 20.72C52.1221 22.052 51.6779 23.754 50.3822 24.531C45.903 27.195 44.3482 28.157 44.0521 34.854H51.0856C55.1206 34.854 58.2672 37.999 58.2672 42.032V47.508C58.2672 51.541 55.1206 54.686 51.0856 54.686H45.5698C41.6089 54.686 38.3883 51.467 38.3883 47.508V37.592H38.4253ZM15.6959 37.592C15.6959 26.196 18.1762 23.643 24.8025 19.721C25.2467 19.462 25.7279 19.351 26.2092 19.351C27.1717 19.351 28.0971 19.832 28.6154 20.72C29.3928 22.052 28.9485 23.754 27.6529 24.531C23.1737 27.195 21.6189 28.157 21.3228 34.854H28.3933C32.4283 34.854 35.5749 37.999 35.5749 42.032V47.508C35.5749 51.541 32.4283 54.686 28.3933 54.686H22.8775C18.9165 54.686 15.6959 51.467 15.6959 47.508V37.592Z" fill="url(#paint0_linear_156_2707)"/>
<defs>
<linearGradient id="paint0_linear_156_2707" x1="68.859" y1="74" x2="11.7798" y2="-0.0276025" gradientUnits="userSpaceOnUse">
<stop stop-color="#00A39C"/>
<stop offset="1" stop-color="#7DF4CD"/>
</linearGradient>
</defs>
</svg>
