<svg width="195" height="170" viewBox="0 0 195 170" fill="none" xmlns="http://www.w3.org/2000/svg">
<path d="M127.634 0C150.084 0 178.106 5.75847 187.575 27.4069C198.223 51.7476 180.287 60.0687 180.287 80.4765C180.287 95.5909 195 106.236 195 121.587C195 150.274 161.169 170.028 133.387 170C104.143 169.97 76.9247 166.591 49.0286 158.088C18.622 148.819 -1.77279 109.441 0.121731 81.7223C1.35567 63.6682 5.83722 45.7593 9.58978 28.0297C12.1767 15.8073 23.7973 8.96952 37.7896 8.96952C67.9339 8.96952 96.9186 0 127.634 0Z" fill="url(#paint0_linear_576_3804)"/>
<defs>
<linearGradient id="paint0_linear_576_3804" x1="31.2718" y1="11.5671" x2="142.982" y2="158.796" gradientUnits="userSpaceOnUse">
<stop offset="0.361809" stop-color="#7DF4CD"/>
<stop offset="1" stop-color="#00A39C"/>
</linearGradient>
</defs>
</svg>
