<svg width="48" height="35" viewBox="0 0 48 35" fill="none" xmlns="http://www.w3.org/2000/svg">
<path d="M41.4546 2.19532H31.0649C31.9266 3.50661 32.4595 5.00716 32.6183 6.56928H41.4546C42.0332 6.56928 42.5882 6.7997 42.9974 7.20983C43.4065 7.61997 43.6364 8.17624 43.6364 8.75626V10.9432H29.7732C30.5533 9.31705 30.7336 7.46647 30.2821 5.71974C29.8305 3.97301 28.7764 2.44304 27.3066 1.4012C25.8369 0.359357 24.0465 -0.127008 22.253 0.02837C20.4596 0.183748 18.779 0.970828 17.5093 2.25C16.5512 3.33934 15.7939 4.59083 15.273 5.94599C14.7521 4.59083 13.9948 3.33934 13.0366 2.25C11.6045 0.814443 9.66207 0.00795602 7.63669 0.00795603C5.61131 0.00795605 3.66889 0.814443 2.23674 2.25C0.804578 3.68556 1.50902e-08 5.63259 0 7.66277C-1.50902e-08 9.69295 0.804578 11.64 2.23674 13.0755C4.30944 14.5376 6.78891 15.3082 9.32322 15.2778C7.04516 17.6023 5.09011 20.2241 3.51091 23.0722L7.39669 25.058C9.42011 21.4915 12.0915 18.336 15.273 15.7546C18.4541 18.3375 21.1248 21.4945 23.1471 25.0624L27.0329 23.0766C25.4631 20.2426 23.5207 17.6328 21.2577 15.3172H43.6364V28.4391C43.6364 29.0191 43.4065 29.5754 42.9974 29.9855C42.5882 30.3956 42.0332 30.626 41.4546 30.626H15.273C14.6943 30.626 14.1394 30.3956 13.7302 29.9855C13.3211 29.5754 13.0912 29.0191 13.0912 28.4391V20.8481C11.6431 22.4308 10.3844 24.1776 9.34068 26.0531L8.72759 27.2581V28.4391C8.72759 30.1791 9.41719 31.8479 10.6447 33.0783C11.8722 34.3088 13.537 35 15.273 35H41.4546C43.1905 35 44.8554 34.3088 46.0829 33.0783C47.3104 31.8479 48 30.1791 48 28.4391V8.75626C48 7.01619 47.3104 5.34739 46.0829 4.11698C44.8554 2.88656 43.1905 2.19532 41.4546 2.19532ZM5.31962 9.97878C4.70625 9.36309 4.36201 8.52837 4.36262 7.65826C4.36324 6.78816 4.70866 5.95393 5.32289 5.33911C5.93713 4.72428 6.76987 4.37922 7.63791 4.37984C8.50596 4.38045 9.33821 4.72669 9.95158 5.34239C11.1169 7.0661 11.9624 8.9864 12.4476 11.011C10.0254 11.1773 7.59574 10.8254 5.31962 9.97878ZM25.2285 9.97878C23.6125 10.6665 21.8671 10.9955 20.1122 10.9432H18.1202C18.6077 8.9442 19.4454 7.04781 20.5944 5.34239C20.8981 5.03738 21.2588 4.79533 21.6558 4.63004C22.0528 4.46475 22.4785 4.37947 22.9084 4.37907C23.3383 4.37866 23.7641 4.46314 24.1614 4.62767C24.5588 4.79221 24.9199 5.03358 25.2242 5.33801C25.5285 5.64244 25.7699 6.00397 25.9348 6.40194C26.0997 6.79992 26.1848 7.22656 26.1852 7.65749C26.1856 8.08843 26.1014 8.51522 25.9372 8.91351C25.7731 9.3118 25.5323 9.67378 25.2285 9.97878Z" fill="white"/>
</svg>
