<svg width="100" height="100" viewBox="0 0 100 100" fill="none" xmlns="http://www.w3.org/2000/svg">
<path d="M44.1602 24.7285C34.7318 26.9052 27.1421 34.3085 24.8244 43.5893C22.4995 52.8999 25.1603 62.3901 31.9426 68.9755C34.3415 71.3051 35.774 75.039 35.774 78.9637V79.5902C35.774 82.1746 36.9129 84.5002 38.7188 86.1028V91.2529C38.7188 96.0761 42.6817 100 47.5529 100H53.4423C58.3134 100 62.2764 96.0761 62.2764 91.2529V86.1028C64.0823 84.5002 65.2212 82.1748 65.2212 79.5902V78.9522C65.2212 75.0872 66.7302 71.2824 69.258 68.7743C74.2504 63.8202 77 57.2375 77 50.2389C77 33.5069 61.3402 20.7636 44.1602 24.7285ZM56.387 91.2529C56.387 92.8606 55.066 94.1686 53.4423 94.1686H47.5529C45.9292 94.1686 44.6082 92.8606 44.6082 91.2529V88.3372H56.387V91.2529ZM65.0888 64.6552C61.4301 68.2856 59.3317 73.4966 59.3317 78.9522V79.5902C59.3317 81.1979 58.0107 82.5059 56.387 82.5059H44.6082C42.9845 82.5059 41.6635 81.1979 41.6635 79.5902V78.9637C41.6635 73.4241 39.6232 68.266 36.066 64.8121C30.7871 59.6863 28.722 52.276 30.5415 44.9891C32.3328 37.8151 38.2034 32.0914 45.4975 30.4077C58.9788 27.2951 71.1106 37.2598 71.1106 50.2389C71.1106 55.6823 68.9719 60.802 65.0888 64.6552Z" fill="url(#paint0_linear_693_5366)"/>
<path d="M27.1507 23.0502L18.9497 14.8493C17.8175 13.7169 15.9816 13.7169 14.8493 14.8493C13.7169 15.9816 13.7169 17.8174 14.8493 18.9498L23.0503 27.1507C24.1825 28.2831 26.0186 28.2831 27.1507 27.1507C28.2831 26.0184 28.2831 24.1826 27.1507 23.0502Z" fill="url(#paint1_linear_693_5366)"/>
<path d="M15.033 47H2.96703C1.32844 47 0 48.3432 0 50C0 51.6568 1.32844 53 2.96703 53H15.033C16.6716 53 18 51.6568 18 50C18 48.3432 16.6716 47 15.033 47Z" fill="url(#paint2_linear_693_5366)"/>
<path d="M97.033 47H84.967C83.3284 47 82 48.3432 82 50C82 51.6568 83.3284 53 84.967 53H97.033C98.6716 53 100 51.6568 100 50C100 48.3432 98.6716 47 97.033 47Z" fill="url(#paint3_linear_693_5366)"/>
<path d="M85.1507 14.8493C84.0188 13.7169 82.1828 13.7169 81.0503 14.8493L72.8493 23.0502C71.7169 24.1824 71.7169 26.0184 72.8493 27.1507C73.9814 28.2831 75.8173 28.2831 76.9497 27.1507L85.1507 18.9498C86.2831 17.8176 86.2831 15.9816 85.1507 14.8493Z" fill="url(#paint4_linear_693_5366)"/>
<path d="M50 0C48.3432 0 47 1.32844 47 2.96703V15.033C47 16.6716 48.3432 18 50 18C51.6568 18 53 16.6716 53 15.033V2.96703C53 1.32844 51.6568 0 50 0Z" fill="url(#paint5_linear_693_5366)"/>
<path d="M50.1017 35C48.9103 35 47.6966 35.1402 46.4965 35.4163C41.4988 36.5617 37.315 40.6013 36.0859 45.4682C35.7006 46.9939 36.6476 48.5372 38.2011 48.9157C39.755 49.294 41.3267 48.3637 41.712 46.8385C42.4193 44.0384 44.9285 41.6208 47.8164 40.9588C48.5858 40.7818 49.3549 40.692 50.1017 40.692C51.7023 40.692 53 39.4178 53 37.846C53 36.2743 51.7023 35 50.1017 35Z" fill="url(#paint6_linear_693_5366)"/>
<defs>
<linearGradient id="paint0_linear_693_5366" x1="78.3197" y1="100" x2="21.7655" y2="15.1465" gradientUnits="userSpaceOnUse">
<stop stop-color="#00A39C"/>
<stop offset="1" stop-color="#7DF4CD"/>
</linearGradient>
<linearGradient id="paint1_linear_693_5366" x1="78.3197" y1="100" x2="21.7655" y2="15.1465" gradientUnits="userSpaceOnUse">
<stop stop-color="#00A39C"/>
<stop offset="1" stop-color="#7DF4CD"/>
</linearGradient>
<linearGradient id="paint2_linear_693_5366" x1="78.3197" y1="100" x2="21.7655" y2="15.1465" gradientUnits="userSpaceOnUse">
<stop stop-color="#00A39C"/>
<stop offset="1" stop-color="#7DF4CD"/>
</linearGradient>
<linearGradient id="paint3_linear_693_5366" x1="78.3197" y1="100" x2="21.7655" y2="15.1465" gradientUnits="userSpaceOnUse">
<stop stop-color="#00A39C"/>
<stop offset="1" stop-color="#7DF4CD"/>
</linearGradient>
<linearGradient id="paint4_linear_693_5366" x1="78.3197" y1="100" x2="21.7655" y2="15.1465" gradientUnits="userSpaceOnUse">
<stop stop-color="#00A39C"/>
<stop offset="1" stop-color="#7DF4CD"/>
</linearGradient>
<linearGradient id="paint5_linear_693_5366" x1="78.3197" y1="100" x2="21.7655" y2="15.1465" gradientUnits="userSpaceOnUse">
<stop stop-color="#00A39C"/>
<stop offset="1" stop-color="#7DF4CD"/>
</linearGradient>
<linearGradient id="paint6_linear_693_5366" x1="78.3197" y1="100" x2="21.7655" y2="15.1465" gradientUnits="userSpaceOnUse">
<stop stop-color="#00A39C"/>
<stop offset="1" stop-color="#7DF4CD"/>
</linearGradient>
</defs>
</svg>
