<svg width="120" height="120" viewBox="0 0 120 120" fill="none" xmlns="http://www.w3.org/2000/svg">
<path d="M75.5489 77.6755V51.9367L93.3628 45.0072C94.1699 44.7505 94.9153 44.3446 95.5556 43.813C96.196 43.2814 96.7187 42.6348 97.0935 41.9105C97.4682 41.1862 97.6876 40.3987 97.7388 39.5935C97.7901 38.7884 97.6722 37.9816 97.392 37.2199C97.1118 36.4582 96.6749 35.7567 96.1066 35.1561C95.5383 34.5555 94.8498 34.0677 94.0811 33.7209C93.3124 33.3741 92.4787 33.1753 91.6283 33.1359C90.7779 33.0965 89.9277 33.2174 89.127 33.4915L72.8755 39.9999H47.1104L30.7311 33.4456C30.0661 33.2253 29.3665 33.1138 28.6621 33.1157C26.9535 33.1175 25.3155 33.7613 24.1074 34.9059C22.8993 36.0504 22.2198 37.6023 22.2179 39.2209C22.2101 40.4791 22.617 41.7083 23.3818 42.7369C24.1466 43.7655 25.2312 44.5424 26.4844 44.959L44.4392 51.9367V77.6755L36.7117 112.448C36.3725 113.974 36.6466 115.565 37.4803 116.91C38.314 118.254 39.6472 119.256 41.2192 119.718C42.7912 120.181 44.4888 120.071 45.9797 119.41C47.4707 118.749 48.6477 117.585 49.2805 116.146L59.9527 91.8838L70.0934 115.902C70.7321 117.416 71.9468 118.648 73.4978 119.355C75.0488 120.062 76.8231 120.192 78.4704 119.72C80.1177 119.247 81.5181 118.207 82.395 116.804C83.272 115.401 83.5617 113.737 83.207 112.142L75.5489 77.6755ZM28.0314 41.0134C27.6313 40.892 27.2825 40.6526 27.0362 40.3301C26.7898 40.0077 26.6588 39.619 26.6621 39.2209C26.6636 38.7189 26.8748 38.2377 27.2495 37.8827C27.6243 37.5277 28.1321 37.3276 28.6621 37.3262C28.8188 37.3253 28.9752 37.3401 29.1287 37.3704L45.7946 44.0441C46.0688 44.154 46.3635 44.2106 46.6613 44.2104H73.3268C73.6245 44.2105 73.9193 44.1539 74.1934 44.0439L90.6967 37.429C90.9967 37.3351 91.3158 37.3098 91.6281 37.3552C91.9404 37.4006 92.2368 37.5154 92.4933 37.6902C92.7497 37.865 92.9589 38.0948 93.1036 38.3609C93.2483 38.6269 93.3245 38.9216 93.3259 39.2209C93.3206 39.6421 93.1701 40.0501 92.8973 40.3827C92.6245 40.7153 92.2444 40.9542 91.8149 41.063L72.4824 48.5788C72.0749 48.7376 71.7265 49.0074 71.4812 49.3541C71.2359 49.7008 71.1048 50.1088 71.1047 50.5261V75.7892H48.8834V50.5261C48.8834 50.1087 48.7524 49.7006 48.5071 49.3537C48.2618 49.0069 47.9132 48.737 47.5057 48.5782L28.0314 41.0134ZM78.3679 114.937C78.0885 115.228 77.7377 115.449 77.3465 115.58C76.9553 115.711 76.5359 115.749 76.1255 115.69C75.7152 115.631 75.3266 115.477 74.9943 115.241C74.662 115.006 74.3963 114.696 74.2207 114.339L62.0577 85.5331C61.8932 85.145 61.6106 84.812 61.2459 84.5764C60.8811 84.3408 60.4506 84.2133 60.0091 84.2102H59.994C59.5554 84.2102 59.1267 84.3332 58.7617 84.5637C58.3968 84.7942 58.112 85.1218 57.9432 85.5053L45.1769 114.528C45.0171 114.841 44.7787 115.111 44.4826 115.317C44.1866 115.522 43.8419 115.655 43.4788 115.705C43.1157 115.754 42.7453 115.719 42.4001 115.601C42.0549 115.484 41.7454 115.287 41.4988 115.03C41.2954 114.793 41.1504 114.516 41.0745 114.219C40.9987 113.923 40.9939 113.613 41.0604 113.315L48.4645 79.9997H71.5235L78.8583 113.01C78.9338 113.345 78.9289 113.693 78.844 114.026C78.7591 114.36 78.5964 114.671 78.3679 114.937Z" fill="url(#paint0_linear_288_1216)"/>
<path d="M71.1098 29.4735C71.1098 27.3916 70.4581 25.3565 69.2373 23.6254C68.0164 21.8944 66.2812 20.5452 64.251 19.7485C62.2208 18.9518 59.9868 18.7434 57.8316 19.1495C55.6763 19.5557 53.6966 20.5582 52.1427 22.0303C50.5889 23.5024 49.5307 25.378 49.102 27.4199C48.6733 29.4618 48.8933 31.5783 49.7342 33.5017C50.5752 35.4252 51.9993 37.0691 53.8264 38.2258C55.6535 39.3824 57.8017 39.9998 59.9991 39.9998C62.9448 39.9965 65.7688 38.8864 67.8517 36.9131C69.9346 34.9397 71.1063 32.2642 71.1098 29.4735ZM59.9991 35.7893C58.6807 35.7893 57.3918 35.4189 56.2955 34.7249C55.1992 34.0309 54.3448 33.0445 53.8402 31.8904C53.3356 30.7364 53.2036 29.4665 53.4608 28.2414C53.7181 27.0162 54.353 25.8909 55.2853 25.0076C56.2176 24.1243 57.4054 23.5228 58.6986 23.2791C59.9917 23.0354 61.3321 23.1605 62.5502 23.6385C63.7684 24.1165 64.8095 24.926 65.542 25.9647C66.2745 27.0033 66.6655 28.2244 66.6655 29.4735C66.6636 31.148 65.9606 32.7534 64.7108 33.9374C63.4611 35.1214 61.7666 35.7874 59.9991 35.7893Z" fill="url(#paint1_linear_288_1216)"/>
<path d="M103.734 52.7392C99.2727 54.159 95.219 56.5387 91.8911 59.6917C88.5632 62.8448 86.0516 66.6854 84.5533 70.9124C84.4513 71.1768 84.4063 71.4578 84.4209 71.739C84.4356 72.0201 84.5096 72.2957 84.6386 72.5493C84.7676 72.8028 84.949 73.0294 85.172 73.2154C85.395 73.4014 85.6551 73.5431 85.937 73.6322C86.2188 73.7213 86.5167 73.756 86.8129 73.7341C87.1091 73.7122 87.3977 73.6343 87.6616 73.505C87.9255 73.3756 88.1593 73.1974 88.3493 72.9809C88.5392 72.7644 88.6813 72.514 88.7673 72.2446C90.0467 68.6368 92.1908 65.3588 95.0315 62.6677C97.8722 59.9766 101.332 57.9455 105.14 56.7337C105.7 56.557 106.162 56.1772 106.425 55.6777C106.689 55.1782 106.732 54.6001 106.545 54.0704C106.359 53.5406 105.958 53.1028 105.431 52.8532C104.904 52.6035 104.293 52.5625 103.734 52.7392Z" fill="url(#paint2_linear_288_1216)"/>
<path d="M16.2529 52.7392C15.9761 52.6517 15.6837 52.6168 15.3926 52.6363C15.1015 52.6559 14.8174 52.7296 14.5563 52.8532C14.0291 53.1028 13.6282 53.5406 13.4417 54.0704C13.3494 54.3326 13.3125 54.6096 13.3331 54.8854C13.3538 55.1612 13.4315 55.4304 13.562 55.6777C13.6925 55.925 13.8731 56.1456 14.0935 56.3268C14.314 56.508 14.5699 56.6462 14.8467 56.7337C18.6549 57.9455 22.115 59.9766 24.9557 62.6677C27.7964 65.3588 29.9405 68.6368 31.2198 72.2446C31.3058 72.514 31.448 72.7644 31.6379 72.9809C31.8278 73.1974 32.0616 73.3756 32.3255 73.505C32.5894 73.6343 32.878 73.7122 33.1743 73.7341C33.4705 73.756 33.7683 73.7213 34.0502 73.6322C34.332 73.5431 34.5922 73.4014 34.8152 73.2154C35.0382 73.0294 35.2196 72.8028 35.3486 72.5493C35.4776 72.2957 35.5516 72.0201 35.5662 71.739C35.5809 71.4578 35.5359 71.1768 35.4339 70.9124C33.9355 66.6854 31.4239 62.8448 28.096 59.6917C24.7681 56.5387 20.7144 54.159 16.2529 52.7392Z" fill="url(#paint3_linear_288_1216)"/>
<path d="M6.66638 35.7893C5.3479 35.7893 4.05902 36.1597 2.96274 36.8537C1.86646 37.5477 1.01201 38.534 0.507451 39.6881C0.00288843 40.8421 -0.129128 42.112 0.128096 43.3372C0.385319 44.5623 1.02023 45.6877 1.95254 46.5709C2.88485 47.4542 4.07268 48.0557 5.36583 48.2994C6.65898 48.5431 7.99937 48.418 9.21749 47.94C10.4356 47.462 11.4768 46.6525 12.2093 45.6139C12.9418 44.5752 13.3328 43.3542 13.3328 42.105C13.3308 40.4305 12.6278 38.8252 11.3781 37.6411C10.1283 36.4571 8.43382 35.7911 6.66638 35.7893ZM6.66638 44.2103C6.22689 44.2103 5.79726 44.0868 5.43183 43.8555C5.06641 43.6242 4.78159 43.2954 4.6134 42.9107C4.44522 42.526 4.40121 42.1027 4.48695 41.6943C4.57269 41.2859 4.78433 40.9108 5.0951 40.6164C5.40587 40.322 5.80181 40.1215 6.23286 40.0402C6.66392 39.959 7.11071 40.0007 7.51675 40.16C7.92279 40.3194 8.26984 40.5892 8.51401 40.9354C8.75818 41.2816 8.8885 41.6886 8.8885 42.105C8.88798 42.6632 8.65369 43.1984 8.23707 43.5931C7.82046 43.9878 7.25556 44.2098 6.66638 44.2103Z" fill="url(#paint4_linear_288_1216)"/>
<path d="M113.334 35.7893C112.015 35.7893 110.726 36.1597 109.63 36.8537C108.534 37.5477 107.679 38.534 107.175 39.6881C106.67 40.8421 106.538 42.112 106.795 43.3372C107.053 44.5623 107.687 45.6877 108.62 46.5709C109.552 47.4542 110.74 48.0557 112.033 48.2994C113.326 48.5431 114.667 48.418 115.885 47.94C117.103 47.462 118.144 46.6525 118.877 45.6139C119.609 44.5752 120 43.3542 120 42.105C119.998 40.4305 119.295 38.8252 118.045 37.6411C116.796 36.4571 115.101 35.7911 113.334 35.7893ZM113.334 44.2103C112.894 44.2103 112.465 44.0868 112.099 43.8555C111.734 43.6242 111.449 43.2954 111.281 42.9107C111.112 42.526 111.068 42.1027 111.154 41.6943C111.24 41.2859 111.452 40.9108 111.762 40.6164C112.073 40.322 112.469 40.1215 112.9 40.0402C113.331 39.959 113.778 40.0007 114.184 40.16C114.59 40.3194 114.937 40.5892 115.181 40.9354C115.425 41.2816 115.556 41.6886 115.556 42.105C115.555 42.6632 115.321 43.1984 114.904 43.5931C114.488 43.9878 113.923 44.2098 113.334 44.2103Z" fill="url(#paint5_linear_288_1216)"/>
<path d="M10.3492 22.6549L9.88053 25.2419C9.81035 25.6291 9.85596 26.0272 10.0122 26.3912C10.1684 26.7552 10.4291 27.0704 10.7646 27.3014C11.1001 27.5323 11.4972 27.6697 11.9109 27.6979C12.3245 27.7261 12.7383 27.6442 13.1053 27.4612L15.5552 26.2395L18.0051 27.4606C18.372 27.6435 18.7857 27.7254 19.1993 27.6972C19.6129 27.669 20.0099 27.5317 20.3454 27.3008C20.6809 27.07 20.9415 26.7548 21.0978 26.391C21.2541 26.0271 21.2998 25.6291 21.2298 25.2419L20.7612 22.6556L22.7446 20.824C23.0415 20.5497 23.2515 20.2022 23.3507 19.8208C23.45 19.4394 23.4347 19.0392 23.3064 18.6656C23.1782 18.292 22.9422 17.9599 22.625 17.7068C22.3079 17.4536 21.9224 17.2896 21.512 17.2333L18.7733 16.8571L17.5473 14.5051C17.3429 14.1768 17.0516 13.9047 16.7022 13.7157C16.3529 13.5267 15.9575 13.4272 15.5552 13.4272C15.1529 13.4272 14.7575 13.5267 14.4081 13.7157C14.0588 13.9047 13.7675 14.1768 13.563 14.5051L12.3371 16.8571L9.59832 17.2333C9.18795 17.2896 8.80241 17.4536 8.4853 17.7068C8.16819 17.9599 7.93217 18.292 7.80393 18.6656C7.67568 19.0392 7.66033 19.4394 7.75961 19.8208C7.85889 20.2022 8.06884 20.5497 8.36571 20.824L10.3492 22.6549ZM15.5552 20.0871C15.8075 20.389 16.1421 20.6197 16.5229 20.7543C16.299 21.0758 16.1715 21.4489 16.154 21.8337C15.7624 21.7295 15.348 21.7295 14.9563 21.8337C14.9389 21.4489 14.8114 21.0758 14.5874 20.7543C14.9682 20.6197 15.3029 20.389 15.5552 20.0871Z" fill="url(#paint6_linear_288_1216)"/>
<path d="M99.2281 22.6549L98.7595 25.2419C98.6893 25.6291 98.7349 26.0272 98.8912 26.3912C99.0474 26.7552 99.308 27.0704 99.6435 27.3014C99.9791 27.5323 100.376 27.6697 100.79 27.6979C101.203 27.7261 101.617 27.6442 101.984 27.4612L104.434 26.2395L106.884 27.4606C107.251 27.6435 107.665 27.7254 108.078 27.6972C108.492 27.669 108.889 27.5317 109.224 27.3008C109.56 27.07 109.82 26.7548 109.977 26.391C110.133 26.0271 110.179 25.6291 110.109 25.2419L109.64 22.6556L111.624 20.824C111.92 20.5497 112.13 20.2022 112.23 19.8208C112.329 19.4394 112.314 19.0392 112.185 18.6656C112.057 18.292 111.821 17.9599 111.504 17.7068C111.187 17.4536 110.801 17.2896 110.391 17.2333L107.652 16.8571L106.426 14.5051C106.222 14.1768 105.931 13.9047 105.581 13.7157C105.232 13.5267 104.836 13.4272 104.434 13.4272C104.032 13.4272 103.636 13.5267 103.287 13.7157C102.938 13.9047 102.646 14.1768 102.442 14.5051L101.216 16.8571L98.4773 17.2333C98.0669 17.2896 97.6814 17.4536 97.3643 17.7068C97.0471 17.9599 96.8111 18.292 96.6829 18.6656C96.5546 19.0392 96.5393 19.4394 96.6386 19.8208C96.7378 20.2022 96.9478 20.5497 97.2447 20.824L99.2281 22.6549ZM104.434 20.0871C104.686 20.389 105.021 20.6197 105.402 20.7543C105.178 21.0758 105.05 21.4489 105.033 21.8337C104.641 21.7295 104.227 21.7295 103.835 21.8337C103.818 21.4489 103.69 21.0758 103.466 20.7543C103.847 20.6197 104.182 20.389 104.434 20.0871Z" fill="url(#paint7_linear_288_1216)"/>
<path d="M82.2187 27.3682C82.8081 27.3682 83.3733 27.1464 83.79 26.7516C84.2067 26.3568 84.4409 25.8213 84.4409 25.2629C84.4341 22.8686 84.9285 20.4968 85.8955 18.2847C86.8624 16.0726 88.2828 14.0641 90.0744 12.3754L92.6783 9.90932C92.8905 9.71512 93.0598 9.48282 93.1763 9.22597C93.2927 8.96912 93.354 8.69287 93.3566 8.41333C93.3591 8.1338 93.3029 7.85658 93.1912 7.59785C93.0795 7.33913 92.9145 7.10407 92.7058 6.9064C92.4972 6.70873 92.2491 6.55241 91.976 6.44656C91.7029 6.34071 91.4103 6.28744 91.1152 6.28987C90.8202 6.2923 90.5286 6.35037 90.2575 6.46071C89.9864 6.57104 89.7412 6.73142 89.5362 6.9325L86.9321 9.39859C84.7264 11.4772 82.9778 13.9496 81.7873 16.6727C80.5969 19.3958 79.9882 22.3155 79.9966 25.2629C79.9966 25.8213 80.2307 26.3568 80.6475 26.7516C81.0642 27.1464 81.6294 27.3682 82.2187 27.3682Z" fill="url(#paint8_linear_288_1216)"/>
<path d="M29.9217 12.3754C31.7133 14.0641 33.1337 16.0726 34.1007 18.2847C35.0677 20.4968 35.5621 22.8686 35.5553 25.2629C35.5553 25.8213 35.7894 26.3568 36.2061 26.7516C36.6229 27.1464 37.1881 27.3682 37.7774 27.3682C38.3667 27.3682 38.932 27.1464 39.3487 26.7516C39.7654 26.3568 39.9995 25.8213 39.9995 25.2629C40.0079 22.3155 39.3993 19.3958 38.2088 16.6727C37.0183 13.9496 35.2697 11.4772 33.0641 9.39859L30.4599 6.9325C30.255 6.73142 30.0098 6.57104 29.7386 6.46071C29.4675 6.35037 29.176 6.2923 28.8809 6.28987C28.5858 6.28744 28.2932 6.34071 28.0202 6.44656C27.7471 6.55241 27.499 6.70873 27.2903 6.9064C27.0817 7.10407 26.9167 7.33913 26.8049 7.59785C26.6932 7.85658 26.637 8.1338 26.6396 8.41333C26.6421 8.69287 26.7034 8.96912 26.8199 9.22597C26.9363 9.48282 27.1056 9.71512 27.3179 9.90932L29.9217 12.3754Z" fill="url(#paint9_linear_288_1216)"/>
<path d="M60.0009 14.7368C60.5902 14.7368 61.1554 14.515 61.5721 14.1201C61.9889 13.7253 62.223 13.1899 62.223 12.6315V2.10525C62.223 1.5469 61.9889 1.01143 61.5721 0.616614C61.1554 0.221803 60.5902 0 60.0009 0C59.4115 0 58.8463 0.221803 58.4296 0.616614C58.0129 1.01143 57.7787 1.5469 57.7787 2.10525V12.6315C57.7787 13.1899 58.0129 13.7253 58.4296 14.1201C58.8463 14.515 59.4115 14.7368 60.0009 14.7368Z" fill="url(#paint10_linear_288_1216)"/>
<defs>
<linearGradient id="paint0_linear_288_1216" x1="111.301" y1="116.414" x2="-10.1185" y2="28.2555" gradientUnits="userSpaceOnUse">
<stop stop-color="#00A39C"/>
<stop offset="1" stop-color="#7DF4CD"/>
</linearGradient>
<linearGradient id="paint1_linear_288_1216" x1="111.301" y1="116.414" x2="-10.1185" y2="28.2555" gradientUnits="userSpaceOnUse">
<stop stop-color="#00A39C"/>
<stop offset="1" stop-color="#7DF4CD"/>
</linearGradient>
<linearGradient id="paint2_linear_288_1216" x1="111.301" y1="116.414" x2="-10.1185" y2="28.2555" gradientUnits="userSpaceOnUse">
<stop stop-color="#00A39C"/>
<stop offset="1" stop-color="#7DF4CD"/>
</linearGradient>
<linearGradient id="paint3_linear_288_1216" x1="111.301" y1="116.414" x2="-10.1185" y2="28.2555" gradientUnits="userSpaceOnUse">
<stop stop-color="#00A39C"/>
<stop offset="1" stop-color="#7DF4CD"/>
</linearGradient>
<linearGradient id="paint4_linear_288_1216" x1="111.301" y1="116.414" x2="-10.1185" y2="28.2555" gradientUnits="userSpaceOnUse">
<stop stop-color="#00A39C"/>
<stop offset="1" stop-color="#7DF4CD"/>
</linearGradient>
<linearGradient id="paint5_linear_288_1216" x1="111.301" y1="116.414" x2="-10.1185" y2="28.2555" gradientUnits="userSpaceOnUse">
<stop stop-color="#00A39C"/>
<stop offset="1" stop-color="#7DF4CD"/>
</linearGradient>
<linearGradient id="paint6_linear_288_1216" x1="111.301" y1="116.414" x2="-10.1185" y2="28.2555" gradientUnits="userSpaceOnUse">
<stop stop-color="#00A39C"/>
<stop offset="1" stop-color="#7DF4CD"/>
</linearGradient>
<linearGradient id="paint7_linear_288_1216" x1="111.301" y1="116.414" x2="-10.1185" y2="28.2555" gradientUnits="userSpaceOnUse">
<stop stop-color="#00A39C"/>
<stop offset="1" stop-color="#7DF4CD"/>
</linearGradient>
<linearGradient id="paint8_linear_288_1216" x1="111.301" y1="116.414" x2="-10.1185" y2="28.2555" gradientUnits="userSpaceOnUse">
<stop stop-color="#00A39C"/>
<stop offset="1" stop-color="#7DF4CD"/>
</linearGradient>
<linearGradient id="paint9_linear_288_1216" x1="111.301" y1="116.414" x2="-10.1185" y2="28.2555" gradientUnits="userSpaceOnUse">
<stop stop-color="#00A39C"/>
<stop offset="1" stop-color="#7DF4CD"/>
</linearGradient>
<linearGradient id="paint10_linear_288_1216" x1="111.301" y1="116.414" x2="-10.1185" y2="28.2555" gradientUnits="userSpaceOnUse">
<stop stop-color="#00A39C"/>
<stop offset="1" stop-color="#7DF4CD"/>
</linearGradient>
</defs>
</svg>
