<svg width="102" height="99" viewBox="0 0 102 99" fill="none" xmlns="http://www.w3.org/2000/svg">
<path d="M30.8088 60.1031L21.8802 69.742C19.5063 72.3048 19.5063 76.4599 21.8802 79.0227C24.2541 81.5854 28.103 81.5854 30.477 79.0227L39.4056 69.3838M30.8088 60.1031C33.1827 57.5402 37.0316 57.5402 39.4056 60.1031C41.7797 62.6659 41.7797 66.821 39.4056 69.3838M30.8088 60.1031C33.1829 57.5404 33.1828 53.3851 30.8087 50.8223C28.4348 48.2595 24.5859 48.2595 22.2119 50.8223L14.9074 58.7081C12.5333 61.2709 12.5333 65.426 14.9074 67.9887C17.2814 70.5517 21.1302 70.5517 23.5042 67.9887M39.4056 69.3838C41.7795 66.821 45.6285 66.821 48.0024 69.3838C50.3763 71.9467 50.3765 76.1018 48.0026 78.6646M61.58 84.7972L58.4804 81.451M61.58 84.7972C63.9539 87.36 63.954 91.5151 61.5801 94.0779C59.206 96.6406 55.3571 96.6406 52.9832 94.0779L51.9509 92.9635M61.58 84.7972L63.204 86.5503C65.5779 89.1131 69.4268 89.1131 71.8007 86.5503C74.1748 83.9875 74.1749 79.8323 71.8007 77.2695M71.8007 77.2695L59.8732 64.3931M71.8007 77.2695L73.4248 79.0228C75.7987 81.5855 79.6476 81.5855 82.0215 79.0228C84.3955 76.4598 84.3955 72.3047 82.0215 69.7419L80.3978 67.989M80.3978 67.989L68.1405 54.7566M80.3978 67.989C82.7717 70.5516 86.6205 70.5514 88.9944 67.9888C91.3683 65.4261 91.3683 61.2708 88.9944 58.708L85.3725 54.7979M85.3725 54.7979L79.047 48.2023M85.3725 54.7979L91.8854 47.7672C100.773 38.1725 101.334 22.9933 93.5687 12.6936M48.0026 78.6646L40.6979 86.5504C38.324 89.1132 34.4751 89.1132 32.1011 86.5504C29.727 83.9876 29.727 79.8323 32.1011 77.2696M48.0026 78.6646C50.3765 76.1018 54.2254 76.1018 56.5993 78.6646C58.9732 81.2273 58.9732 85.3824 56.5993 87.9452L50.9187 94.0779C48.5447 96.6407 44.6957 96.6407 42.3217 94.0779C39.9478 91.5149 39.9478 87.3599 42.3217 84.7971M13.8546 51.8045L17.5783 55.8245M9.40516 46.9686C0.634573 36.6804 0.871194 20.66 10.1148 10.6808C19.6013 0.439725 34.9817 0.439725 44.468 10.6808L50.9494 17.6779L51 17.6231L51.0507 17.6779L57.532 10.6809C66.1031 1.42795 79.4857 0.535046 88.9853 8.00255M50.5373 18.1584L37.8666 31.837C36.7351 33.0586 36.7351 35.0391 37.8666 36.2607C41.483 40.1647 47.3463 40.1647 50.9628 36.2607L59.1342 27.439L74.5051 43.4665" stroke="url(#paint0_linear_102_5249)" stroke-width="5" stroke-miterlimit="10" stroke-linecap="round" stroke-linejoin="round"/>
<defs>
<linearGradient id="paint0_linear_102_5249" x1="51" y1="3" x2="51" y2="96" gradientUnits="userSpaceOnUse">
<stop stop-color="#7DF4CD"/>
<stop offset="1" stop-color="#00A39C"/>
</linearGradient>
</defs>
</svg>
