<svg width="120" height="129" viewBox="0 0 120 129" fill="none" xmlns="http://www.w3.org/2000/svg">
<path d="M88.4453 67.2714L89.5757 62.4193H69.1329L70.2634 67.2714C71.3066 71.7655 75.046 74.9033 79.3543 74.9033C83.6626 74.9031 87.402 71.7655 88.4453 67.2714ZM74.0994 66.5805H84.609C83.8986 69.0482 81.7794 70.7418 79.3541 70.7418C76.929 70.7418 74.8098 69.0482 74.0994 66.5805Z" fill="url(#paint0_linear_102_5261)"/>
<path d="M69.6795 54.0966H73.5505V52.016C73.5505 48.5746 70.9454 45.7741 67.744 45.7741C64.5427 45.7741 61.9376 48.5746 61.9376 52.016V54.0966H65.8086V52.016C65.8086 50.8696 66.6758 49.9354 67.744 49.9354C68.8123 49.9354 69.6795 50.8696 69.6795 52.016V54.0966Z" fill="url(#paint1_linear_102_5261)"/>
<path d="M89.0274 52.016C89.0274 50.8696 89.8946 49.9354 90.9628 49.9354C92.0311 49.9354 92.8983 50.8696 92.8983 52.016V54.0966H96.7693V52.016C96.7693 48.5746 94.1642 45.7741 90.9628 45.7741C87.7615 45.7741 85.1564 48.5746 85.1564 52.016V54.0966H89.0274V52.016Z" fill="url(#paint2_linear_102_5261)"/>
<path d="M108.387 74.9032H97.4693C101.402 70.5088 103.959 64.6996 104.418 58.2579H106.452C109.653 58.2579 112.258 55.4574 112.258 52.016C112.258 49.5836 110.946 47.4967 109.053 46.467L109.593 45.0167C111.362 40.2624 112.258 35.2543 112.258 29.9673C112.258 20.9081 109.359 12.0197 104.092 4.94131L103.115 3.62839L101.714 4.37946C96.9175 6.95946 91.5464 8.32227 86.1831 8.32227H69.4837C56.785 8.32227 46.4513 19.4309 46.4513 33.084C46.4513 36.2465 47.0049 39.3405 48.0985 42.2805L49.6567 46.4667C48.3348 47.1865 47.3108 48.4204 46.8095 49.9351H30.9676V54.0964H46.8076C47.6089 56.5121 49.738 58.2576 52.258 58.2576H54.2921C55.0876 69.4161 62.189 78.7041 71.7794 81.9667C70.1188 83.5918 68.9322 85.7868 68.5375 88.3335L68.0361 91.5482H52.258C49.0567 91.5482 46.4516 94.3486 46.4516 97.7901C46.4516 101.231 49.0567 104.032 52.258 104.032H54.1935C54.1935 106.327 55.9295 108.193 58.0644 108.193H67.7418V112.354H15.484V62.4194H7.74189C5.60696 62.4194 3.87095 60.5532 3.87095 58.2581C3.87095 55.9631 5.60696 54.0969 7.74189 54.0969H19.3547V49.9356H7.74189C3.47227 49.9356 0 53.6683 0 58.2581V112.355C0 116.945 3.47227 120.677 7.74189 120.677H15.4838V116.516H67.742V129H100.645V120.677H110.323C115.659 120.677 120 116.011 120 110.274V87.3872C120 80.5023 114.792 74.9032 108.387 74.9032ZM54.1937 99.8709H52.2582C51.1899 99.8709 50.3228 98.9367 50.3228 97.7903C50.3228 96.6439 51.1899 95.7097 52.2582 95.7097H54.1937V99.8709ZM11.6128 116.516H7.74189C5.60696 116.516 3.87095 114.65 3.87095 112.355V65.4632C5.01095 66.1747 6.33283 66.5806 7.74189 66.5806H11.6128V116.516ZM116.129 87.3872V95.7097H112.258C112.258 93.4146 110.522 91.5484 108.387 91.5484H104.516C102.382 91.5484 100.646 93.4146 100.646 95.7097H96.7746V83.717C96.7746 82.0629 96.3351 80.4794 95.6018 79.0647H108.388C112.657 79.0644 116.129 82.7971 116.129 87.3872ZM108.389 99.8709H104.516V95.7097H108.387L108.389 99.8709ZM89.0324 85.3065C89.0324 83.1488 90.0562 81.2451 91.6085 80.1236C92.4234 81.1141 92.9034 82.3791 92.9034 83.717V104.032H89.0324V85.3065ZM89.0324 108.193H92.9034V116.133C90.6562 115.272 89.0324 112.983 89.0324 110.274V108.193ZM106.452 54.0969H104.516V49.9356H106.452C107.52 49.9356 108.387 50.8698 108.387 52.0162C108.387 53.1626 107.52 54.0969 106.452 54.0969ZM50.3228 52.0162C50.3228 50.8698 51.1899 49.9356 52.2582 49.9356H54.1937V54.0969H52.2582C51.1897 54.0969 50.3228 53.1626 50.3228 52.0162ZM54.1937 43.6479V45.7743H53.5686L51.6931 40.735C50.7835 38.2903 50.3228 35.7166 50.3228 33.0845C50.3228 21.7242 58.9182 12.484 69.4841 12.484H86.1836C91.6087 12.484 97.0396 11.2293 101.993 8.84281C106.127 14.9577 108.388 22.4065 108.388 30.1361C108.388 34.7239 107.584 39.2097 105.999 43.469L105.142 45.7743H104.517C104.517 41.1845 101.045 37.4518 96.775 37.4518H78.1654C72.6318 37.4518 67.7235 33.8814 65.6699 28.3553L62.0757 29.9013C62.579 31.2495 63.212 32.5083 63.959 33.6632L58.8899 35.9978C56.0361 37.3102 54.1937 40.3125 54.1937 43.6479ZM58.0647 56.1775V43.6479C58.0647 41.9812 58.986 40.479 60.4105 39.8237L66.6641 36.9441C69.7609 39.8985 73.81 41.6151 78.1628 41.6151H96.7746C98.9095 41.6151 100.646 43.4813 100.646 45.7764V56.1795C100.646 68.7986 91.0938 79.0667 79.3551 79.0667C67.6164 79.0667 58.0647 68.7966 58.0647 56.1775ZM58.0647 95.7097H71.3188L72.3543 89.0183C72.8748 85.6623 75.5498 83.2259 78.7143 83.2259C82.2698 83.2259 85.1615 86.3345 85.1615 90.1566C85.1615 97.8072 79.3724 104.032 72.2537 104.032H58.0647V95.7097ZM96.7743 124.839H71.613V108.193H72.2535C77.4386 108.193 82.0818 105.651 85.1613 101.664V110.274C85.1613 116.01 89.5026 120.677 94.8386 120.677H96.7741L96.7743 124.839ZM110.323 116.516H96.7746V99.8709H100.646C100.646 102.166 102.382 104.032 104.516 104.032H108.387C110.522 104.032 112.258 102.166 112.258 99.8709H116.129V110.274C116.129 113.716 113.524 116.516 110.323 116.516Z" fill="url(#paint3_linear_102_5261)"/>
<path d="M25.1618 29.1291C30.4978 29.1291 34.8391 24.4622 34.8391 18.726C34.8391 12.9898 30.4978 8.32285 25.1618 8.32285C19.8257 8.32285 15.4844 12.9898 15.4844 18.726C15.4844 24.4622 19.8255 29.1291 25.1618 29.1291ZM25.1618 12.4839C28.3631 12.4839 30.9682 15.2843 30.9682 18.7257C30.9682 22.1672 28.3631 24.9676 25.1618 24.9676C21.9604 24.9676 19.3554 22.1672 19.3554 18.726C19.3554 15.2848 21.9604 12.4839 25.1618 12.4839Z" fill="url(#paint4_linear_102_5261)"/>
<path d="M25.1617 56.2107L40.3108 27.7121C41.7972 24.9177 42.5812 21.7405 42.5812 18.5198C42.5809 8.3079 34.8526 0 25.3532 0H24.9718C15.4707 0 7.7422 8.3079 7.7422 18.5218C7.7422 21.7405 8.52619 24.9177 10.0126 27.7101L25.1617 56.2107ZM24.97 4.16126H25.3513C32.7177 4.16126 38.71 10.6029 38.71 18.5218C38.71 21.0187 38.1023 23.48 36.9505 25.6438L25.1615 47.8215L13.3724 25.6438C12.2206 23.48 11.6129 21.0164 11.6129 18.5196C11.6131 10.6029 17.6054 4.16126 24.97 4.16126Z" fill="url(#paint5_linear_102_5261)"/>
<path d="M29.7225 56.6601L25.1566 60.7505L20.5907 56.6601L18.1094 59.8558L22.1334 63.4595L18.1094 67.0632L20.5907 70.259L25.1566 66.1685L29.7225 70.259L32.2036 67.0632L28.1798 63.4595L32.2036 59.8558L29.7225 56.6601Z" fill="url(#paint6_linear_102_5261)"/>
<path d="M50.3235 87.3872V79.0647C50.3235 74.4748 46.8512 70.7421 42.5816 70.7421C38.312 70.7421 34.8397 74.4748 34.8397 79.0647V95.7099C34.8397 98.005 33.1037 99.8712 30.9687 99.8712C28.8338 99.8712 27.0978 98.005 27.0978 95.7099V70.7421H23.2266V95.7099C23.2266 100.3 26.6989 104.032 30.9685 104.032C35.2381 104.032 38.7104 100.3 38.7104 95.7099V79.0647C38.7104 76.7696 40.4464 74.9034 42.5813 74.9034C44.7163 74.9034 46.4523 76.7696 46.4523 79.0647V87.3872H50.3235Z" fill="url(#paint7_linear_102_5261)"/>
<defs>
<linearGradient id="paint0_linear_102_5261" x1="111.301" y1="125.145" x2="-16.038" y2="39.139" gradientUnits="userSpaceOnUse">
<stop stop-color="#00A39C"/>
<stop offset="1" stop-color="#7DF4CD"/>
</linearGradient>
<linearGradient id="paint1_linear_102_5261" x1="111.301" y1="125.145" x2="-16.038" y2="39.139" gradientUnits="userSpaceOnUse">
<stop stop-color="#00A39C"/>
<stop offset="1" stop-color="#7DF4CD"/>
</linearGradient>
<linearGradient id="paint2_linear_102_5261" x1="111.301" y1="125.145" x2="-16.038" y2="39.139" gradientUnits="userSpaceOnUse">
<stop stop-color="#00A39C"/>
<stop offset="1" stop-color="#7DF4CD"/>
</linearGradient>
<linearGradient id="paint3_linear_102_5261" x1="111.301" y1="125.145" x2="-16.038" y2="39.139" gradientUnits="userSpaceOnUse">
<stop stop-color="#00A39C"/>
<stop offset="1" stop-color="#7DF4CD"/>
</linearGradient>
<linearGradient id="paint4_linear_102_5261" x1="111.301" y1="125.145" x2="-16.038" y2="39.139" gradientUnits="userSpaceOnUse">
<stop stop-color="#00A39C"/>
<stop offset="1" stop-color="#7DF4CD"/>
</linearGradient>
<linearGradient id="paint5_linear_102_5261" x1="111.301" y1="125.145" x2="-16.038" y2="39.139" gradientUnits="userSpaceOnUse">
<stop stop-color="#00A39C"/>
<stop offset="1" stop-color="#7DF4CD"/>
</linearGradient>
<linearGradient id="paint6_linear_102_5261" x1="111.301" y1="125.145" x2="-16.038" y2="39.139" gradientUnits="userSpaceOnUse">
<stop stop-color="#00A39C"/>
<stop offset="1" stop-color="#7DF4CD"/>
</linearGradient>
<linearGradient id="paint7_linear_102_5261" x1="111.301" y1="125.145" x2="-16.038" y2="39.139" gradientUnits="userSpaceOnUse">
<stop stop-color="#00A39C"/>
<stop offset="1" stop-color="#7DF4CD"/>
</linearGradient>
</defs>
</svg>
