<svg width="118" height="180" viewBox="0 0 118 180" fill="none" xmlns="http://www.w3.org/2000/svg">
<path d="M16.3612 171.9C19.3193 171.966 22.0227 170.238 23.2025 167.528C24.3807 164.816 23.7982 161.663 21.73 159.551C19.6618 157.437 16.5178 156.785 13.7777 157.901C11.0377 159.016 9.24615 161.678 9.24615 164.632C9.20663 168.599 12.3887 171.85 16.3612 171.9ZM16.3612 161.856C17.5014 161.787 18.5669 162.42 19.0514 163.452C19.5344 164.486 19.3383 165.709 18.5552 166.538C17.7736 167.369 16.5631 167.638 15.502 167.218C14.4393 166.797 13.7426 165.772 13.7426 164.632C13.7016 163.144 14.8711 161.903 16.3612 161.856Z" fill="url(#paint0_linear_224_3780)"/>
<path d="M103.01 0H64.7904C56.5176 0.00877079 49.8124 6.70527 49.8022 14.9688V50.1382L15.2736 77.5996C15.2019 77.6566 15.1346 77.718 15.0702 77.7823C12.2657 80.6211 10.6967 84.451 10.7069 88.4373V148.617H5.99529C2.68588 148.62 0.0043911 151.299 0 154.604V174.012C0.0043911 177.318 2.68588 179.996 5.99529 180H68.2549C71.5643 179.996 74.2458 177.318 74.2502 174.012V154.604C74.2458 151.299 71.5643 148.62 68.2549 148.617H65.815V143.538C73.2681 142.417 78.7833 136.026 78.7921 128.499V119.002H103.012C111.286 118.993 117.991 112.297 118 104.033V14.9688C117.991 6.70527 111.285 0.00877079 103.01 0ZM66.1165 73.739L63.8229 71.4483C63.0149 70.6429 61.7313 70.5683 60.8369 71.2758L54.2986 76.4462V19.4405H113.502V89.0644H67.4557C70.7842 84.3063 70.2207 77.8495 66.1165 73.739ZM64.7904 4.49064H103.01C108.795 4.49649 113.486 9.17278 113.502 14.9498H54.2986C54.3162 9.17278 59.0059 4.49649 64.7904 4.49064ZM69.7538 154.604V174.012C69.7538 174.84 69.0819 175.509 68.2549 175.509H5.99529C5.16684 175.509 4.49646 174.84 4.49646 174.012V154.604C4.49646 153.777 5.16684 153.107 5.99529 153.107H68.2549C69.0819 153.107 69.7538 153.777 69.7538 154.604ZM74.2956 128.499C74.2897 134.414 69.4903 139.207 63.5667 139.214C62.3255 139.214 61.3185 140.22 61.3185 141.46V148.617H15.2034V88.4373C15.1961 85.6731 16.266 83.0141 18.1864 81.0231L49.8022 55.8787V80.0013L29.6705 95.9217C28.7016 96.6936 28.5405 98.1013 29.3105 99.0704C30.0789 100.041 31.4884 100.206 32.4618 99.4432L62.0591 76.0369L62.9373 76.914C65.8545 79.8361 65.8545 84.565 62.9373 87.4857L49.1728 101.232C48.782 101.623 48.5492 102.142 48.517 102.691L48.3443 105.689C48.3414 105.733 48.3399 105.776 48.3399 105.82C48.3546 108.061 48.8669 110.269 49.8387 112.288C52.0987 117.132 51.6742 122.801 48.719 127.257C48.4731 127.625 48.3414 128.059 48.3414 128.502V134.982C48.3414 136.222 49.3484 137.228 50.5896 137.228C51.8308 137.228 52.8379 136.222 52.8379 134.982V129.156C55.2866 125.159 56.2439 120.429 55.5413 115.796C58.1759 117.874 61.4356 119.004 64.7918 119.001H74.2956V128.499ZM103.01 114.511H64.7904C59 114.506 54.3059 109.818 54.2986 104.033V102.463L63.2198 93.5551H113.505V104.033C113.498 109.818 108.804 114.506 103.01 114.511Z" fill="url(#paint1_linear_224_3780)"/>
<path d="M89.7932 101.788H78.009C76.7663 101.788 75.7607 102.794 75.7607 104.033C75.7607 105.273 76.7663 106.279 78.009 106.279H89.7932C91.0344 106.279 92.0414 105.273 92.0414 104.033C92.0414 102.794 91.0344 101.788 89.7932 101.788Z" fill="url(#paint2_linear_224_3780)"/>
<path d="M104.799 65.3994V45.7119H105.436C106.677 45.7119 107.684 44.7062 107.684 43.4666V37.7685C107.68 34.2762 104.846 31.4447 101.348 31.4418H99.3423C100.875 28.8062 100.212 25.4455 97.7937 23.5876C95.3757 21.7296 91.9536 21.9518 89.7961 24.1065L83.4627 30.4303L79.0028 25.9747C77.1117 24.086 74.2063 23.6548 71.8468 24.912C69.4888 26.1706 68.23 28.8208 68.7497 31.4418H65.3568C61.8601 31.4447 59.0249 34.2762 59.022 37.7685V43.4666C59.022 44.7062 60.0275 45.7119 61.2702 45.7119H61.9069V65.3994C61.9098 68.8931 64.745 71.7231 68.2418 71.7275H98.4612C101.959 71.7246 104.795 68.8931 104.799 65.3994ZM100.302 65.3994C100.301 66.4139 99.4784 67.2354 98.4626 67.2369H90.0976V45.7119H100.302V65.3994ZM85.6012 35.9325V41.2212H81.0022V35.9325H85.6012ZM85.6012 45.7119V67.2369H81.0022V45.7119H85.6012ZM103.189 37.7685V41.2212H90.0976V35.9325H101.349C102.365 35.9325 103.187 36.7555 103.189 37.7685ZM92.9767 27.2801C93.3763 26.8679 93.9676 26.7041 94.5224 26.8532C95.0771 27.0009 95.5074 27.4394 95.645 27.9964C95.7841 28.5533 95.6084 29.1409 95.1869 29.5312L93.3251 31.4404H88.8125L92.9767 27.2801ZM73.5916 31.3804C73.1773 30.9857 73.0105 30.3966 73.1539 29.8441C73.2988 29.2901 73.7306 28.8574 74.2853 28.7141C74.8401 28.5708 75.4285 28.7375 75.8237 29.1512L78.1173 31.4433H73.6501L73.5916 31.3804ZM63.5184 37.7685C63.5184 36.7555 64.3425 35.9325 65.3568 35.9325H76.5058V41.2212H63.5184V37.7685ZM66.4034 65.3994V45.7119H76.5043V67.2369H68.2418C67.2274 67.2354 66.4063 66.4124 66.4048 65.3994H66.4034Z" fill="url(#paint3_linear_224_3780)"/>
<defs>
<linearGradient id="paint0_linear_224_3780" x1="109.446" y1="174.62" x2="-39.2126" y2="103.863" gradientUnits="userSpaceOnUse">
<stop stop-color="#00A39C"/>
<stop offset="1" stop-color="#7DF4CD"/>
</linearGradient>
<linearGradient id="paint1_linear_224_3780" x1="109.446" y1="174.62" x2="-39.2126" y2="103.863" gradientUnits="userSpaceOnUse">
<stop stop-color="#00A39C"/>
<stop offset="1" stop-color="#7DF4CD"/>
</linearGradient>
<linearGradient id="paint2_linear_224_3780" x1="109.446" y1="174.62" x2="-39.2126" y2="103.863" gradientUnits="userSpaceOnUse">
<stop stop-color="#00A39C"/>
<stop offset="1" stop-color="#7DF4CD"/>
</linearGradient>
<linearGradient id="paint3_linear_224_3780" x1="109.446" y1="174.62" x2="-39.2126" y2="103.863" gradientUnits="userSpaceOnUse">
<stop stop-color="#00A39C"/>
<stop offset="1" stop-color="#7DF4CD"/>
</linearGradient>
</defs>
</svg>
