<svg width="85" height="88" viewBox="0 0 85 88" fill="none" xmlns="http://www.w3.org/2000/svg">
<g filter="url(#filter0_d_576_3294)">
<path d="M40.9539 77.9983C49.3204 78.0826 57.3152 74.9892 64.1618 70.1647C71.0963 65.2784 77.9136 59.0535 79.6485 50.7323C81.3224 42.7038 76.6711 35.0066 73.0224 27.6664C69.8886 21.3623 65.5183 16.1484 60.1813 11.5704C54.3794 6.59366 48.5415 0.998426 40.9539 0.158472C32.9488 -0.72771 24.881 2.18028 18.3749 6.94239C11.8774 11.6982 5.98966 18.4069 5.07072 26.4229C4.20157 34.0046 11.5888 39.6687 13.7855 46.9753C16.0605 54.5421 12.8824 63.7629 18.0823 69.7005C23.5673 75.9638 32.6439 77.9146 40.9539 77.9983Z" fill="white"/>
</g>
<g clip-path="url(#clip0_576_3294)">
<path fill-rule="evenodd" clip-rule="evenodd" d="M53.8585 12.7377C52.8506 12.7377 52.7588 12.7591 52.7066 12.7759C52.6021 12.8097 52.5054 12.8651 52.423 12.9386C52.3817 12.9754 52.3168 13.0441 51.8052 13.9161C51.7976 13.9292 51.7897 13.9422 51.7817 13.9551L43.1818 27.8308C46.7604 28.3379 50.2234 29.8655 53.1044 32.4135L61.8554 16.3126C62.2752 15.5491 62.7277 14.7953 63.0809 13.9971C63.25 13.6148 63.2759 13.455 63.2799 13.4229C63.251 13.2144 63.1408 13.0257 62.9731 12.8985C62.9436 12.8865 62.7923 12.831 62.3762 12.7927C61.8 12.7396 61.0095 12.7377 59.784 12.7377H53.8585ZM65.1313 9.85407C64.373 9.30558 63.4939 9.14226 62.7156 9.07056C61.9488 8.99991 60.9852 8.99995 59.8691 9C57.808 9 55.7471 9.00411 53.6861 8.99976C52.9799 8.99826 52.2511 8.99672 51.5671 9.21801C50.9701 9.41105 50.4203 9.72682 49.952 10.1449C49.4149 10.6249 49.0458 11.2567 48.6883 11.8691C48.663 11.9124 48.6378 11.9556 48.6126 11.9986L40.4999 25.0881L32.3866 11.9976C31.8577 11.0999 31.2153 10.2718 30.2611 9.71572C29.2967 9.15364 28.2392 9 27.1413 9H21.2158C21.1873 9 21.159 9 21.1308 9C20.0145 8.99995 19.051 8.99991 18.2841 9.07056C17.5058 9.14226 16.6268 9.30558 15.8685 9.85408C14.8381 10.5993 14.1679 11.7464 14.0227 13.0139C13.9159 13.947 14.203 14.798 14.5204 15.5155C14.8331 16.2225 15.3033 17.0674 15.8479 18.0461L15.8848 18.1124L25.2286 35.304C19.5973 42.8179 20.1874 53.5418 26.9987 60.383C34.4553 67.8723 46.5446 67.8723 54.0012 60.383C60.8125 53.5418 61.4025 42.8179 55.7713 35.304L65.1151 18.1125C65.5897 17.2594 66.0838 16.4096 66.4795 15.5155C66.7968 14.798 67.0839 13.9472 66.9771 13.0142C66.8319 11.7468 66.1616 10.5993 65.1313 9.85407ZM27.8955 32.4135L19.1445 16.3126L19.1356 16.2964C18.5377 15.2219 18.1538 14.528 17.9189 13.9971C17.7498 13.6148 17.724 13.455 17.7199 13.4231C17.7487 13.2145 17.859 13.0257 18.0266 12.8985C18.0561 12.8865 18.2075 12.831 18.6236 12.7927C19.1998 12.7396 19.9903 12.7377 21.2158 12.7377H27.1413C27.9172 12.7377 28.2294 12.8524 28.3952 12.949C28.564 13.0474 28.8098 13.2601 29.1944 13.916C29.2022 13.9291 29.2101 13.9422 29.2181 13.9551L37.8181 27.8308C34.2394 28.3379 30.7765 29.8655 27.8955 32.4135ZM51.372 35.9025C45.3677 29.8718 35.6322 29.8718 29.6279 35.9025C23.6241 41.9327 23.6241 51.7091 29.6278 57.7393C35.6322 63.77 45.3677 63.77 51.372 57.7393C57.3758 51.7091 57.3758 41.9327 51.372 35.9025ZM41.3777 38.5155C41.9822 38.8407 42.3596 39.474 42.3596 40.1631V51.6098H43.8143C44.8413 51.6098 45.6739 52.4465 45.6739 53.4787C45.6739 54.5109 44.8413 55.3475 43.8143 55.3475H37.1855C36.1586 55.3475 35.3259 54.5109 35.3259 53.4787C35.3259 52.4465 36.1586 51.6098 37.1855 51.6098H38.6403V43.654L37.5539 44.3815C36.6992 44.9538 35.5446 44.7214 34.9751 43.8625C34.4056 43.0036 34.6368 41.8433 35.4916 41.271L39.4688 38.6079C40.0395 38.2258 40.7731 38.1903 41.3777 38.5155Z" fill="url(#paint0_linear_576_3294)"/>
</g>
<defs>
<filter id="filter0_d_576_3294" x="0" y="0" width="85" height="88" filterUnits="userSpaceOnUse" color-interpolation-filters="sRGB">
<feFlood flood-opacity="0" result="BackgroundImageFix"/>
<feColorMatrix in="SourceAlpha" type="matrix" values="0 0 0 0 0 0 0 0 0 0 0 0 0 0 0 0 0 0 127 0" result="hardAlpha"/>
<feOffset dy="5"/>
<feGaussianBlur stdDeviation="2.5"/>
<feComposite in2="hardAlpha" operator="out"/>
<feColorMatrix type="matrix" values="0 0 0 0 0 0 0 0 0 0 0 0 0 0 0 0 0 0 0.15 0"/>
<feBlend mode="normal" in2="BackgroundImageFix" result="effect1_dropShadow_576_3294"/>
<feBlend mode="normal" in="SourceGraphic" in2="effect1_dropShadow_576_3294" result="shape"/>
</filter>
<linearGradient id="paint0_linear_576_3294" x1="40.5" y1="10.8689" x2="40.5" y2="64.1311" gradientUnits="userSpaceOnUse">
<stop stop-color="#FF7E00"/>
<stop offset="1" stop-color="#FEB200"/>
</linearGradient>
<clipPath id="clip0_576_3294">
<rect width="53" height="57" fill="white" transform="translate(14 9)"/>
</clipPath>
</defs>
</svg>
