<svg width="55" height="100" viewBox="0 0 55 100" fill="none" xmlns="http://www.w3.org/2000/svg">
<g clip-path="url(#clip0_288_1175)">
<path fill-rule="evenodd" clip-rule="evenodd" d="M23.9902 -21H26.0097C40.2598 -21.001 48.4988 -21.0016 55.3876 -19.028C72.6696 -14.0763 86.1767 -0.370846 91.0568 17.1657C93.0019 24.1556 93.0013 32.5161 92.9999 46.9754V49.0245C93.0013 63.4842 93.0019 71.8443 91.0568 78.8345C86.1767 96.3706 72.6696 110.076 55.3876 115.028C48.4988 117.002 40.2598 117.001 26.0097 117C25.6766 117 25.3403 117 25 117C24.6603 117 24.3233 117 23.9902 117C9.7405 117.001 1.50109 117.002 -5.38747 115.028C-22.6698 110.076 -36.1767 96.3706 -41.0565 78.8345C-43.0016 71.8443 -43.001 63.4842 -43 49.0245C-43 48.6866 -43 48.3453 -43 48C-43 47.6553 -43 47.3133 -43 46.9754C-43.001 32.5162 -43.0016 24.1556 -41.0565 17.1657C-36.1767 -0.370846 -22.6698 -14.0763 -5.38747 -19.028C1.50116 -21.0016 9.74057 -21.001 23.9902 -21ZM25 -10.9024C9.45211 -10.9024 2.70598 -10.8545 -2.68333 -9.31034C-16.6357 -5.31279 -27.5401 5.75191 -31.4798 19.9095C-33.0015 25.3781 -33.0487 32.2235 -33.0487 48C-33.0487 63.7764 -33.0015 70.6218 -31.4798 76.0907C-27.5401 90.2481 -16.6358 101.313 -2.6834 105.31C2.70598 106.855 9.45211 106.902 25 106.902C40.5477 106.902 47.294 106.855 52.6836 105.31C66.6358 101.313 77.5404 90.2481 81.4798 76.0907C83.0016 70.6218 83.0487 63.7764 83.0487 48C83.0487 32.2235 83.0016 25.3781 81.4798 19.9096C77.5404 5.75198 66.6358 -5.31279 52.6836 -9.31034C47.294 -10.8545 40.5477 -10.9024 25 -10.9024ZM25 2.56109C27.7478 2.56109 29.9756 4.82146 29.9756 7.60986V16.1747H30.1534C40.36 16.1747 48.6341 24.5705 48.6341 34.927C48.6341 37.7159 46.4063 39.9758 43.6585 39.9758C40.9106 39.9758 38.6829 37.7159 38.6829 34.927C38.6829 30.1473 34.8643 26.2722 30.1534 26.2722H29.9756V43.0414H30.509C40.5192 43.0414 48.6341 51.2756 48.6341 61.4331C48.6341 71.5912 40.5192 79.8254 30.509 79.8254H29.9756V88.3902C29.9756 91.1785 27.7478 93.439 25 93.439C22.2521 93.439 20.0243 91.1785 20.0243 88.3902V79.8254H19.4916C9.48097 79.8254 1.36588 71.5912 1.36588 61.4331C1.36588 58.6448 3.59356 56.3843 6.34149 56.3843C9.08949 56.3843 11.3171 58.6448 11.3171 61.4331C11.3171 66.014 14.9771 69.7279 19.4916 69.7279H20.0243V53.1389H19.5799C9.52071 53.1389 1.36588 44.8643 1.36588 34.6571C1.36588 24.4494 9.52071 16.1747 19.5799 16.1747H20.0243V7.60986C20.0243 4.82146 22.2521 2.56109 25 2.56109ZM20.0243 26.2722H19.5799C15.0169 26.2722 11.3171 30.0262 11.3171 34.6571C11.3171 39.2878 15.0169 43.0414 19.5799 43.0414H20.0243V26.2722ZM29.9756 53.1389V69.7279H30.509C35.0235 69.7279 38.6829 66.014 38.6829 61.4331C38.6829 56.8528 35.0235 53.1389 30.509 53.1389H29.9756Z" fill="url(#paint0_linear_288_1175)"/>
</g>
<defs>
<linearGradient id="paint0_linear_288_1175" x1="25.5262" y1="101.449" x2="32.5182" y2="-8.05638" gradientUnits="userSpaceOnUse">
<stop stop-color="#00A39C"/>
<stop offset="1" stop-color="#7DF4CD"/>
</linearGradient>
<clipPath id="clip0_288_1175">
<rect width="55" height="100" fill="white"/>
</clipPath>
</defs>
</svg>
