<svg width="224" height="34" viewBox="0 0 224 34" fill="none" xmlns="http://www.w3.org/2000/svg">
<path d="M15 33.4C14.9 33.2 14.9 32.8 14.8 32.2C14.7 31.6 14.6 30.9 14.5 30.1C14.4 29.3 14.2 28.5 14.1 27.6C14 26.7 13.8 25.9 13.7 25.1C12.8 25.2 11.8 25.3 10.7 25.4C9.6 25.5 8.6 25.6 7.7 25.6C7.6 26 7.5 26.4 7.5 27C7.4 27.6 7.3 28.2 7.3 28.7C7.2 29.3 7.1 29.8 7.1 30.3C7 30.8 7 31.1 7 31.2H0C0.1 30.5 0.3 29.3 0.6 27.8C0.9 26.3 1.2 24.6 1.7 22.7C2.1 20.8 2.5 18.8 3 16.7C3.5 14.6 3.9 12.7 4.3 10.8C4.7 8.99997 5.1 7.39998 5.5 5.99998C5.8 4.59998 6.1 3.59998 6.2 3.09998C6.5 3.09998 7.1 3.09998 8 3.09998C8.9 3.09998 9.9 3.09998 11 3.09998C12.1 3.09998 13.1 3.09998 14 3.09998C14.9 3.09998 15.5 3.09998 15.8 3.09998C15.9 3.49998 16 4.19998 16.3 5.19998C16.5 6.19998 16.8 7.49998 17.1 8.89998C17.4 10.3 17.8 11.9 18.1 13.6C18.5 15.3 18.9 17 19.2 18.8C19.6 20.5 19.9 22.2 20.3 23.9C20.7 25.6 21 27.1 21.3 28.4C21.6 29.7 21.8 30.9 22 31.8C22.2 32.7 22.3 33.3 22.3 33.5H15V33.4ZM8.7 20.6C9.4 20.6 10.1 20.6 10.8 20.7C11.5 20.7 12.2 20.7 12.8 20.8C12.6 19.9 12.4 18.9 12.2 18C12 17.1 11.8 16.2 11.7 15.4C11.5 14.6 11.4 13.8 11.2 13.1C11 12.4 10.9 11.8 10.8 11.4C10.7 11.9 10.6 12.5 10.4 13.2C10.3 13.9 10.1 14.6 9.9 15.5C9.7 16.3 9.5 17.2 9.3 18.1C9.1 18.8 8.9 19.7 8.7 20.6Z" fill="white"/>
<path d="M41.6 5C41.6 5.5 41.6 6.3 41.5 7.6C41.4 8.9 41.4 10.4 41.3 12.1C41.2 13.8 41.1 15.7 41 17.7C40.9 19.7 40.8 21.6 40.7 23.4C40.6 25.2 40.5 26.8 40.4 28.2C40.3 29.6 40.2 30.6 40.2 31.3H34.7C34.7 30.8 34.7 30.3 34.7 29.7C34.7 29.1 34.7 28.4 34.8 27.8C34.5 28.8 34 29.6 33.2 30.2C32.5 30.8 31.7 31.2 30.8 31.4C29.9 31.6 29 31.6 28 31.4C27 31.2 26.1 30.8 25.3 30.2C24.5 29.6 23.8 28.8 23.3 27.8C22.8 26.8 22.5 25.6 22.5 24.3C22.5 22.5 22.7 20.9 23.2 19.5C23.7 18.1 24.3 16.9 25 16C25.7 15.1 26.6 14.4 27.5 13.9C28.4 13.4 29.4 13.2 30.3 13.3C31.2 13.3 32.1 13.6 32.9 14.2C33.7 14.8 34.4 15.6 35 16.7C35 15.8 35 14.8 35 13.7C35 12.5 35 11.4 35 10.3C35 9.2 35 8.1 35 7.2C35 6.3 35 5.6 35 5.1H41.6V5ZM27.7 25.2C27.9 26.1 28.2 26.7 28.8 27.2C29.4 27.6 30 27.8 30.6 27.7C31.2 27.6 31.8 27.2 32.3 26.6C32.8 26 33.1 25 33.1 23.8C33.1 22.9 32.9 22.2 32.6 21.7C32.3 21.2 31.9 20.8 31.4 20.6C30.9 20.4 30.5 20.4 29.9 20.5C29.4 20.6 28.9 20.9 28.5 21.3C28.1 21.7 27.8 22.2 27.6 22.9C27.5 23.5 27.5 24.3 27.7 25.2Z" fill="white"/>
<path d="M58.4992 11C58.4992 11.2 58.3992 11.8 58.1992 12.8C57.9992 13.8 57.7992 15 57.4992 16.4C57.1992 17.8 56.8992 19.3 56.5992 20.9C56.2992 22.5 55.9992 24 55.6992 25.5C55.3992 26.9 55.1992 28.2 54.9992 29.3C54.7992 30.4 54.5992 31.1 54.5992 31.4H46.4992C46.3992 31.1 46.1992 30.4 45.9992 29.5C45.7992 28.6 45.4992 27.6 45.2992 26.4C45.0992 25.2 44.7992 24 44.4992 22.6C44.1992 21.3 43.9992 20 43.6992 18.8C43.4992 17.6 43.1992 16.5 43.0992 15.5C42.8992 14.5 42.7992 13.8 42.6992 13.3H48.8992C48.9992 13.8 49.0992 14.5 49.1992 15.6C49.2992 16.7 49.4992 17.9 49.5992 19.1C49.6992 20.4 49.8992 21.6 49.9992 22.8C50.0992 24 50.2992 25 50.3992 25.8C50.4992 25.1 50.5992 24.3 50.7992 23.4C50.8992 22.5 51.0992 21.5 51.1992 20.5C51.2992 19.5 51.4992 18.4 51.5992 17.4C51.6992 16.4 51.8992 15.4 51.9992 14.6C52.0992 13.7 52.1992 13 52.2992 12.4C52.3992 11.8 52.3992 11.4 52.4992 11.1H58.4992V11Z" fill="white"/>
<path d="M72.4007 22.7C72.6007 23 72.7007 23.4 72.9007 23.8C73.1007 24.2 73.3007 24.6 73.5007 25C73.7007 25.4 73.9007 25.7 74.0007 26.1C74.1007 26.4 74.3007 26.7 74.3007 26.9C74.0007 27.5 73.6007 28.1 73.0007 28.7C72.5007 29.3 71.8007 29.8 71.1007 30.3C70.4007 30.7 69.5007 31.1 68.6007 31.3C67.7007 31.5 66.7007 31.6 65.7007 31.4C64.4007 31.2 63.2007 30.8 62.2007 30C61.1007 29.2 60.3007 28.2 59.7007 26.9C59.1007 25.6 58.7007 24.1 58.6007 22.4C58.5007 20.7 58.7007 18.9 59.3007 16.9C59.6007 15.9 60.1007 15 60.6007 14.3C61.2007 13.5 61.8007 12.9 62.5007 12.4C63.2007 11.9 64.0007 11.6 64.8007 11.4C65.6007 11.2 66.4007 11.1 67.2007 11.2C69.2007 11.4 70.6007 12.1 71.6007 13.4C72.6007 14.7 73.1007 16.3 73.1007 18.3C73.1007 19.3 72.9007 20.2 72.6007 21C72.2007 21.9 71.8007 22.6 71.2007 23.3C70.6007 23.9 69.9007 24.5 69.0007 24.8C68.2007 25.2 67.2007 25.4 66.3007 25.4C65.9007 25.4 65.5007 25.4 65.1007 25.3C64.7007 25.2 64.3007 25.1 63.9007 25C64.5007 25.9 65.2007 26.4 66.1007 26.6C67.0007 26.8 67.8007 26.8 68.7007 26.6C69.5007 26.4 70.3007 25.9 71.0007 25.2C71.7007 24.4 72.2007 23.6 72.4007 22.7ZM66.4007 16.6C65.7007 16.7 65.1007 16.9 64.6007 17.3C64.1007 17.7 63.9007 18.4 63.9007 19.3C64.0007 20.1 64.2007 20.7 64.8007 21C65.3007 21.4 65.9007 21.5 66.6007 21.5C67.4007 21.5 68.0007 21.2 68.6007 20.7C69.1007 20.2 69.4007 19.5 69.2007 18.5C69.1007 17.7 68.8007 17.2 68.2007 16.9C67.7007 16.6 67.1007 16.5 66.4007 16.6Z" fill="white"/>
<path d="M91.2 16.4C91.4 17.5 91.5 18.8 91.6 20.2C91.6 21.6 91.6 22.9 91.5 24.3C91.4 25.7 91.2 27 91 28.2C90.8 29.4 90.6 30.5 90.4 31.3H84.2C84.3 30.7 84.5 29.9 84.7 29.1C84.9 28.2 85.1 27.3 85.2 26.4C85.3 25.4 85.5 24.5 85.5 23.6C85.6 22.7 85.6 21.8 85.5 21.1C85.4 20.4 85.3 19.8 85 19.3C84.7 18.8 84.4 18.6 83.9 18.6C83.3 18.6 82.8 19 82.3 19.8C81.8 20.5 81.4 21.4 81.2 22.3C81.1 23.4 81 24.5 81 25.5C80.9 26.5 80.9 27.5 80.8 28.3C80.7 29.1 80.7 29.8 80.6 30.4C80.6 31 80.5 31.3 80.5 31.5H75.5V11H82C81.9 11.4 81.9 12.3 81.8 13.8C82.6 12.6 83.5 11.8 84.4 11.4C85.4 11 86.3 10.9 87.2 11.1C88.1 11.3 88.9 11.9 89.6 12.8C90.4 13.7 90.9 14.9 91.2 16.4Z" fill="white"/>
<path d="M104.7 4.99998C104.7 5.39998 104.6 5.79998 104.6 6.19998C104.5 6.59998 104.5 7.09997 104.4 7.59997C104.3 8.09997 104.2 8.49998 104.2 8.89998C104.1 9.29998 104.1 9.69998 104 9.99998H100.2C100.1 11.4 100 12.9 100 14.4C99.9004 15.9 99.8004 17.5 99.8004 19C99.7004 20.5 99.6004 22 99.6004 23.4C99.5004 24.8 99.5004 26.1 99.4004 27.2C99.3004 28.3 99.3004 29.2 99.3004 30C99.3004 30.8 99.3004 31.3 99.3004 31.5H93.8004C93.8004 30.7 93.8004 29.5 93.8004 27.9C93.8004 26.3 93.8004 24.5 93.7004 22.5C93.7004 20.5 93.6004 18.4 93.6004 16.2C93.6004 14 93.5004 12 93.5004 9.99998H91.4004V5.49998C91.7004 5.49998 92.0004 5.49998 92.2004 5.49998C92.5004 5.49998 92.9004 5.49997 93.4004 5.39997V1.59998C93.7004 1.59998 94.2004 1.59998 94.9004 1.59998C95.5004 1.59998 96.2004 1.59998 96.9004 1.59998C97.6004 1.59998 98.3004 1.59998 99.0004 1.59998C99.7004 1.59998 100.2 1.59998 100.7 1.59998C100.7 1.69998 100.7 1.79998 100.7 2.09998C100.7 2.39998 100.7 2.69998 100.7 3.09998C100.7 3.49998 100.7 3.89998 100.7 4.19998C100.7 4.59998 100.7 4.89998 100.7 4.99998C101 4.99998 101.3 4.99998 101.7 4.99998C102.1 4.99998 102.5 4.99998 102.9 4.99998C103.3 4.99998 103.7 4.99998 104.1 4.99998C104.3 4.99998 104.6 4.99998 104.7 4.99998Z" fill="white"/>
<path d="M118.201 11C118.201 11.2 118.201 11.9 118.101 12.9C118.001 13.9 118.001 15.2 117.901 16.6C117.801 18 117.701 19.6 117.701 21.2C117.601 22.8 117.501 24.4 117.501 25.8C117.401 27.2 117.301 28.4 117.301 29.5C117.201 30.5 117.201 31.1 117.201 31.4H112.401V27.9C111.801 29.2 111.101 30.1 110.101 30.7C109.101 31.3 108.101 31.5 107.101 31.4C106.101 31.3 105.101 30.7 104.201 29.8C103.301 28.9 102.601 27.5 102.201 25.8C102.001 24.6 101.801 23.4 101.801 22C101.801 20.7 101.801 19.3 101.901 18C102.001 16.7 102.201 15.4 102.401 14.2C102.601 13 102.801 12 103.001 11.1H108.801C108.501 12.2 108.201 13.3 108.001 14.5C107.801 15.7 107.601 16.8 107.401 18C107.301 19.1 107.201 20.2 107.201 21.2C107.201 22.2 107.301 23.1 107.401 23.9C107.501 24.7 107.801 25.3 108.101 25.8C108.501 26.3 108.901 26.5 109.501 26.5C109.901 26.5 110.201 26.4 110.601 26.1C110.901 25.8 111.201 25.4 111.401 24.9C111.601 24.4 111.801 23.8 112.001 23.2C112.201 22.6 112.301 21.9 112.401 21.3C112.401 20.1 112.401 19 112.401 17.8C112.401 16.7 112.401 15.6 112.401 14.7C112.401 13.8 112.401 13 112.401 12.3C112.401 11.7 112.401 11.2 112.401 11.1H118.201V11Z" fill="white"/>
<path d="M137 18.4C136.2 18.9 135.5 19.3 134.8 19.8C134.2 20.2 133.5 20.6 132.9 21C132.2 21.4 131.6 21.8 131.2 22.1C131.3 21.4 131.3 20.7 131.3 20.1C131.2 19.5 131.1 18.9 130.9 18.5C130.7 18 130.5 17.7 130.2 17.4C129.9 17.1 129.6 17 129.4 17C129 17 128.6 17.1 128.2 17.4C127.8 17.7 127.5 18.1 127.2 18.5C126.9 19 126.6 19.5 126.4 20.1C126.2 20.7 126 21.4 125.9 22C125.8 23.1 125.7 24.2 125.6 25.3C125.5 26.4 125.4 27.3 125.4 28.2C125.3 29.1 125.3 29.8 125.2 30.3C125.1 30.9 125.1 31.2 125.1 31.3H119.9C119.9 30.9 119.9 30.1 120 29C120 27.9 120 26.6 120 25.2C120 23.8 120 22.3 120 20.7C120 19.1 120 17.7 120 16.3C120 14.9 120 13.8 120 12.8C120 11.8 120 11.3 120 11.1H126.7C126.7 11.3 126.6 11.8 126.6 12.4C126.5 13.1 126.5 13.9 126.4 14.8C126.9 13.8 127.4 13 128.1 12.5C128.8 11.9 129.5 11.5 130.3 11.3C131.1 11.1 131.8 11.1 132.6 11.3C133.4 11.5 134.1 11.9 134.7 12.5C135.3 13.1 135.9 13.9 136.3 14.9C136.7 15.8 136.9 17 137 18.4Z" fill="white"/>
<path d="M151.901 22.7C152.101 23 152.201 23.4 152.401 23.8C152.601 24.2 152.801 24.6 153.001 25C153.201 25.4 153.401 25.7 153.501 26.1C153.601 26.4 153.801 26.7 153.801 26.9C153.501 27.5 153.101 28.1 152.501 28.7C152.001 29.3 151.301 29.8 150.601 30.3C149.901 30.7 149.001 31.1 148.101 31.3C147.201 31.5 146.201 31.6 145.201 31.4C143.901 31.2 142.701 30.8 141.701 30C140.601 29.2 139.801 28.2 139.201 26.9C138.601 25.6 138.201 24.1 138.101 22.4C138.001 20.7 138.201 18.9 138.801 16.9C139.101 15.9 139.601 15 140.101 14.3C140.701 13.5 141.301 12.9 142.001 12.4C142.701 11.9 143.501 11.6 144.301 11.4C145.101 11.2 145.901 11.1 146.701 11.2C148.701 11.4 150.101 12.1 151.101 13.4C152.101 14.7 152.601 16.3 152.601 18.3C152.601 19.3 152.401 20.2 152.101 21C151.701 21.9 151.301 22.6 150.701 23.3C150.101 23.9 149.401 24.5 148.501 24.8C147.701 25.2 146.701 25.4 145.801 25.4C145.401 25.4 145.001 25.4 144.601 25.3C144.201 25.2 143.801 25.1 143.401 25C144.001 25.9 144.701 26.4 145.601 26.6C146.501 26.8 147.301 26.8 148.201 26.6C149.001 26.4 149.801 25.9 150.501 25.2C151.201 24.4 151.601 23.6 151.901 22.7ZM145.901 16.6C145.201 16.7 144.601 16.9 144.101 17.3C143.601 17.7 143.401 18.4 143.401 19.3C143.501 20.1 143.701 20.7 144.301 21C144.801 21.4 145.401 21.5 146.101 21.5C146.901 21.5 147.501 21.2 148.101 20.7C148.601 20.2 148.901 19.5 148.701 18.5C148.601 17.7 148.301 17.2 147.701 16.9C147.201 16.6 146.601 16.5 145.901 16.6Z" fill="white"/>
<path d="M185.2 5.49998V5.39998L185.3 5.19998C185.3 5.09998 185.3 4.99998 185.2 4.89998C185.2 4.79998 185.2 4.69998 185.2 4.69998C185.2 4.59998 185.1 4.39998 185.1 4.29998C185 4.19998 184.9 4.19998 184.8 4.09998L184.7 3.99998C184.6 3.89998 184.6 3.79998 184.5 3.69998C184.4 3.59998 184.3 3.49998 184.2 3.39998C184.2 3.29998 184.1 3.19998 184 3.09998L183.9 2.99998C183.8 2.99998 183.8 2.89998 183.7 2.89998L183.5 2.79998C183.3 2.69998 183.2 2.69998 183.1 2.69998H183L182.9 2.59998C182.7 2.59998 182.6 2.49998 182.4 2.39998C182.2 2.29998 182.1 2.29998 181.9 2.19998C181.9 2.19998 181.9 2.09998 181.8 2.09998L181.7 1.99998C181.5 1.89998 181.3 1.89998 181.2 1.89998C181.2 1.89998 181.1 1.89998 181 1.79998H180.9C180.7 1.79998 180.5 1.69998 180.3 1.69998L179.6 1.49998C179.4 1.49998 179.2 1.49998 179 1.59998C178.9 1.59998 178.9 1.59998 178.8 1.59998C178.7 1.59998 178.6 1.49998 178.5 1.49998C178.4 1.49998 178.2 1.39998 177.9 1.39998C177.7 1.39998 177.5 1.29998 177.2 1.29998C177 1.29998 176.8 1.29998 176.5 1.29998C176.4 1.29998 176.4 1.29998 176.3 1.29998C176.2 1.19998 176 1.19998 175.9 1.29998C175.9 1.29998 175.8 1.29998 175.8 1.39998C175.7 1.39998 175.7 1.39998 175.7 1.39998C175.6 1.39998 175.4 1.29998 175.3 1.29998H175.1C174.8 1.19998 174.6 1.29998 174.5 1.39998C174.4 1.39998 174.3 1.39998 174.2 1.39998C174 1.39998 173.8 1.39998 173.6 1.49998C173.4 1.49998 173.3 1.49998 173.1 1.49998C172.9 1.49998 172.7 1.59998 172.5 1.59998L171.7 1.69998C171.4 1.69998 171.2 1.79998 171 1.89998H170.9C170.7 1.89998 170.5 1.89998 170.4 1.99998H170.3H170.2H169.9L169.8 2.19998H169.7C169.6 2.19998 169.4 2.19998 169.3 2.29998C169.2 2.39998 169 2.39998 168.8 2.49998C168.6 2.59998 168.5 2.59998 168.4 2.59998H168.2L168.1 2.69998C168.1 2.69998 168 2.69998 168 2.79998L167.9 2.89998H167.7L167.6 2.99998C167.5 2.99998 167.4 2.99998 167.4 3.09998L167.3 3.19998C167.2 3.19998 167.1 3.19998 167 3.29998L166.7 3.39998V3.59998C166.5 3.59998 166.3 3.59998 166.2 3.79998C166 3.79998 165.8 3.89998 165.6 4.19998L165.5 4.29998C165.4 4.29998 165.3 4.39998 165.2 4.39998C165 4.49998 164.8 4.69998 164.7 4.79998C164.5 4.89998 164.3 5.09998 164.2 5.29998C164.1 5.39998 164 5.49998 163.9 5.69998C163.8 5.79998 163.8 5.89998 163.7 5.89998C163.7 5.89998 163.7 5.89998 163.6 5.89998L163.4 5.99998L163.3 6.09997H163.2L163.1 6.29998C163.1 6.39998 163 6.49998 163 6.69998L162.9 6.79998V6.99998C162.9 7.39998 163.1 7.59998 163.2 7.69998C163.2 7.69998 163.2 7.69998 163.3 7.69998C163.3 7.79998 163.4 7.99997 163.5 8.09997C163.8 8.39997 164.1 8.29998 164.4 8.29998L164.9 8.59997L165 7.99998C165.1 7.59998 165 7.29998 164.8 7.19998L164.9 7.09997L165.1 7.19998L165.4 6.79998C165.5 6.69998 165.6 6.69997 165.7 6.59997C165.8 6.49997 165.9 6.49998 166 6.39998L166.1 6.29998C166.2 6.29998 166.3 6.19998 166.5 6.19998C166.6 6.09998 166.7 5.99998 166.8 5.99998C166.9 5.99998 166.9 5.99998 167 5.99998C167.1 5.99998 167.2 5.89998 167.2 5.89998H167.3H167.7V5.69998C167.8 5.69998 168 5.59998 168.1 5.49998L168.2 5.39998C168.3 5.39998 168.3 5.29998 168.3 5.29998C168.2 5.39998 168.1 5.59998 168 5.69998C167.8 5.99998 167.7 6.19998 167.7 6.29998L167.3 7.29998C167.2 7.39998 167.2 7.49998 167.1 7.69998C167 7.79998 167 7.89998 166.9 7.89998L166.8 7.99998V8.39998V8.49998C166.7 8.59998 166.7 8.69998 166.7 8.89998C166.6 9.09998 166.5 9.19998 166.5 9.39998C166.4 9.59998 166.4 9.69998 166.3 9.79998C166.2 10.1 166.1 10.4 166 10.6C166 10.8 165.9 10.9 165.8 11.1L165.5 11.5L165.7 11.6C165.6 11.7 165.6 11.8 165.6 12C165.5 12.1 165.4 12.1 165.4 12.3C165.3 12.4 165.3 12.5 165.3 12.5L165.2 12.7C165.1 12.9 165 13.1 165 13.3L164.9 13.6C164.9 13.6 164.8 13.7 164.8 13.8C164.7 14 164.7 14.2 164.7 14.4L164.6 14.5L164.5 14.6C164.4 14.8 164.4 15 164.4 15.2C164.4 15.3 164.4 15.4 164.3 15.5C164.3 15.5 164.3 15.6 164.2 15.6C164.1 15.7 164.1 15.7 164.1 15.8H164L163.9 16.1C163.8 16.3 163.8 16.5 163.8 16.8C163.8 16.9 163.8 17 163.8 17.1L163.7 17.2C163.6 17.4 163.5 17.6 163.5 17.9C163.5 18.1 163.5 18.1 163.5 18.1C163.4 18.2 163.3 18.4 163.2 18.7V18.8C163 19.1 163 19.3 163 19.6C163 19.7 163 19.8 162.9 19.9C162.8 20.1 162.8 20.2 162.8 20.2C162.7 20.3 162.7 20.4 162.7 20.5L162.6 20.6V20.7C162.5 20.9 162.5 21 162.6 21.2C162.5 21.3 162.5 21.4 162.4 21.7C162.4 22 162.4 22.3 162.4 22.6C162.4 22.8 162.4 22.9 162.4 23C162.4 23.1 162.4 23.1 162.4 23.1C162.2 23.2 162 23.4 161.9 23.8V23.9V24C161.9 24.1 161.9 24.3 161.9 24.5L161.7 25C161.6 25.3 161.6 25.4 161.6 25.5C161.6 25.6 161.6 25.7 161.7 25.9C161.7 26.1 161.7 26.2 161.7 26.2C161.6 26.4 161.5 26.6 161.5 26.8C161.5 27 161.5 27.2 161.5 27.4C161.5 27.6 161.5 27.8 161.5 28C161.5 28 161.5 28.1 161.5 28.2C161.5 28.3 161.5 28.3 161.5 28.3C161.4 28.4 161.4 28.6 161.4 28.8C161.4 28.9 161.4 29.1 161.5 29.2C161.5 29.3 161.6 29.3 161.6 29.5C161.6 29.5 161.6 29.6 161.6 29.8V29.9C161.7 30.1 161.8 30.3 161.9 30.5L162.4 31.3C162.5 31.5 162.7 31.7 162.8 31.8C163 32 163.1 32.1 163.3 32.3C163.5 32.4 163.7 32.5 163.9 32.5C164 32.5 164 32.5 164.1 32.5C164.7 32.4 164.8 31.9 164.8 31.7C164.8 31.5 164.9 31.3 164.9 31L165 30.5H164.9C164.9 30.4 164.9 30.4 164.9 30.4C164.9 30.3 164.9 30.2 164.9 30.1V30L165 29.8C165.1 29.6 165.1 29.4 165 29.2C165.1 29.1 165.1 29 165.1 28.9L165.2 28.7C165.2 28.6 165.2 28.5 165.2 28.3L165.3 28.2V27.9C165.3 27.9 165.3 27.8 165.4 27.8L165.5 27.7C165.6 27.4 165.6 27.1 165.5 26.8L165.7 26.6V26.4V26.3C165.8 26.1 165.9 25.9 165.9 25.7L166 25.2C166.1 25 166.1 24.9 166 24.7C166 24.6 166.1 24.5 166 24.3L166.1 24.1C166.2 23.9 166.2 23.7 166.2 23.6C166.2 23.6 166.2 23.5 166.3 23.2C166.4 22.9 166.4 22.6 166.5 22.3C166.5 22.2 166.6 22.1 166.6 22C166.8 22.1 166.9 22.1 167.1 22.1H167.3L167.4 22C167.7 21.7 168.1 21.4 168.4 21.1C168.7 20.8 169 20.6 169.4 20.3C169.5 20.2 169.7 20 169.9 19.8C170 19.7 170.1 19.7 170.1 19.6C170.3 19.6 170.5 19.5 170.6 19.3C170.8 19.3 171 19.2 171.2 18.9C171.4 18.9 171.5 18.9 171.6 18.8C171.7 18.7 171.8 18.6 172 18.4C172.1 18.4 172.3 18.3 172.5 18.1L172.6 18H172.7C172.8 18 172.9 17.9 173 17.8C173.2 17.6 173.5 17.5 173.7 17.4C173.9 17.3 174.2 17.1 174.4 17C174.5 16.9 174.6 16.9 174.7 16.8L174.9 16.6C174.9 16.6 174.9 16.6 175 16.5C175.1 16.4 175.2 16.4 175.3 16.3C175.4 16.2 175.5 16.2 175.6 16.1L175.8 16C176 15.9 176.2 15.7 176.4 15.5C176.5 15.4 176.5 15.4 176.6 15.4C176.7 15.4 177 15.4 177.1 15C177.3 15 177.5 14.8 177.6 14.7L177.7 14.6L177.8 14.5C178 14.4 178.1 14.3 178.2 14.2C178.3 14.2 178.4 14.2 178.5 14.1L178.6 14C178.7 13.9 178.8 13.8 178.8 13.7V13.6C178.9 13.6 179 13.5 179.1 13.5C179.2 13.5 179.2 13.4 179.3 13.4C179.6 13.2 179.8 13 180 12.9C180.2 12.7 180.4 12.6 180.7 12.4C180.8 12.3 181 12.2 181.1 12.1C181.2 12 181.3 12 181.5 11.9L181.6 11.8C181.8 11.7 181.9 11.5 181.9 11.3L182 11.2C182.2 11.2 182.4 11.1 182.5 11L182.6 10.9V10.7C182.6 10.7 182.6 10.7 182.7 10.6L183.1 10.4V11C183.2 11 183.2 11 183.2 10.9C183.3 10.8 183.5 10.7 183.6 10.5C183.6 10.4 183.7 10.4 183.7 10.4C183.7 10.4 183.8 10.3 183.9 10.3C184 10.2 184.1 10.1 184.2 10.1C184.3 9.99997 184.5 9.79997 184.6 9.59997C184.7 9.49997 184.8 9.39998 184.9 9.39998L185.2 9.29998V8.99998L185.3 8.89998C185.3 8.79998 185.4 8.69998 185.4 8.69998H185.8V8.29998C185.8 8.19998 185.8 8.09997 185.8 8.09997C185.8 7.99997 185.9 7.89998 185.9 7.79998C185.9 7.69998 186 7.69998 186 7.69998C186.2 7.59998 186.3 7.39998 186.2 7.19998C186.3 6.89998 186.3 6.59998 186.3 6.29998C185.2 5.79998 185.2 5.59998 185.2 5.49998ZM168.4 16C168.4 16.1 168.4 16.1 168.4 16V16ZM181.4 4.99998C181.3 4.89998 181.3 4.79998 181.3 4.69998L181.4 4.99998ZM168.9 4.89998C169 4.89998 169.1 4.79998 169.2 4.79998L169.3 4.69998C169.4 4.69998 169.5 4.69998 169.5 4.69998C169.7 4.69998 169.8 4.59998 169.9 4.59998C169.9 4.59998 170 4.59998 170.1 4.59998H170.3C170.4 4.59998 170.4 4.49998 170.5 4.49998C170.6 4.49998 170.7 4.49998 170.8 4.39998C170.9 4.39998 171.1 4.39998 171.3 4.29998C171.4 4.29998 171.7 4.29998 172 4.19998C172.1 4.19998 172.2 4.19998 172.3 4.19998C172.4 4.19998 172.4 4.19998 172.5 4.19998C172.6 4.19998 172.6 4.19998 172.7 4.09998C172.9 4.09998 173.1 4.09998 173.3 4.09998C173.6 4.19998 173.9 4.19998 174.2 4.09998C174.4 4.09998 174.6 4.09998 174.8 3.99998C175.1 4.09998 175.3 3.99998 175.8 4.09998H175.9H176.1C176.3 4.09998 176.4 4.09998 176.6 4.09998H177.2H177.4C177.6 4.19998 177.9 4.19998 178.3 4.19998C178.4 4.19998 178.5 4.19998 178.6 4.19998C178.7 4.29998 178.8 4.29998 178.9 4.29998C179 4.39998 179.1 4.39998 179.2 4.39998C179.3 4.39998 179.4 4.39998 179.5 4.49998C179.6 4.49998 179.6 4.59998 179.7 4.59998H180H180.2C180.3 4.59998 180.4 4.59998 180.4 4.59998C180.5 4.69998 180.6 4.69998 180.7 4.79998V4.89998H181C181.1 4.99998 181.3 4.99998 181.4 4.99998C181.5 4.99998 181.5 4.99998 181.6 4.99998L181.9 5.09998C182 5.19998 182 5.29998 182.1 5.49998C182.2 5.59998 182.2 5.59998 182.3 5.59998C182.1 5.69998 181.9 5.79998 181.9 5.89998C181.7 5.99998 181.6 6.09998 181.5 6.29998H181.4C181.3 6.29998 181.3 6.29998 181.2 6.39998L181.1 6.49998C181 6.59998 181 6.69998 180.9 6.79998C180.8 6.79998 180.7 6.89998 180.6 6.99998C180.3 7.19998 180.1 7.29998 179.9 7.39998C179.7 7.49998 179.4 7.69998 179.2 7.89998C179.1 7.99998 179 8.09998 178.9 8.19998C178.7 8.19998 178.6 8.19998 178.4 8.39998L178.1 8.59997C178 8.69997 178 8.69998 177.9 8.79998C177.9 8.89998 177.8 8.89998 177.8 8.89998C177.5 8.89998 177.3 8.99997 177.3 9.09997C177.1 9.29997 176.9 9.39997 176.8 9.59997C176.7 9.69998 176.7 9.69998 176.6 9.69998C176.4 9.69998 176.1 9.79998 175.8 10.3L175.6 10.2L175.5 10.5C175.3 10.5 175.1 10.6 175 10.7L174.9 10.9C174.7 11 174.6 11.1 174.5 11.2C174.3 11.3 174.1 11.4 174 11.4C173.8 11.5 173.7 11.6 173.5 11.8C173.3 11.8 173.1 11.9 173 12L172.6 12.3C172.5 12.4 172.3 12.6 172.1 12.8C172 12.9 171.9 13 171.9 13C171.8 13 171.7 13 171.5 13.1C171.4 13.2 171.3 13.2 171.2 13.3C170.9 13.6 170.8 13.7 170.8 13.7L170.4 13.9C170.3 14 170.3 14 170.3 14C170.1 14.1 170 14.2 169.8 14.4L169.7 14.5C169.3 14.5 169.1 14.8 169 14.9C168.9 15 168.9 15.1 168.8 15.1C168.7 15.1 168.6 15.1 168.5 15.2L168.4 15.3C168.3 15.4 168.2 15.5 168.2 15.6C168 15.6 167.9 15.7 167.8 15.8L167.7 15.7C167.7 15.6 167.7 15.5 167.7 15.4C167.8 15.3 167.8 15.1 167.7 14.9C167.7 14.7 167.7 14.5 167.8 14.4C167.9 14.1 168 13.9 168 13.7C168.1 13.3 168.1 13 168.2 12.7C168.2 12.7 168.2 12.6 168.3 12.6L168.5 12.2L168.4 11.9L168.6 11.8L168.8 11.4L169 11.1L168.9 10.9C169 10.8 169 10.6 169 10.5V10.2H168.9V10.1C168.9 10.1 168.9 10.1 168.9 10.2L168.8 10.1C168.9 10.1 168.9 10.2 168.9 10.2C168.9 10.3 168.8 10.3 168.7 10.4L168.6 9.99998H169V9.69998V9.59997C169 9.49997 169.1 9.49998 169.1 9.29998H169.2V8.99998C169.4 8.89998 169.5 8.59997 169.4 8.09997C169.4 7.99997 169.4 7.89998 169.4 7.89998C169.7 7.69998 169.7 7.39998 169.6 6.99998C169.6 6.89998 169.6 6.89998 169.6 6.79998L169.9 6.39998L169.8 6.29998C169.9 6.09998 169.9 5.89998 169.9 5.69998L169.8 5.29998L169.6 5.39998C169.6 5.29998 169.6 5.29998 169.5 5.19998L169.3 4.79998L168.9 5.09998C168.9 5.09998 168.8 5.09998 168.7 5.09998C168.6 5.09998 168.5 5.09998 168.5 5.09998L168.3 5.49998L168.1 5.29998C168.2 5.29998 168.3 5.19998 168.4 5.19998C168.5 5.09998 168.7 4.99998 168.9 4.89998Z" fill="#F78A33"/>
<path d="M205.9 5.59993C205.9 5.39993 205.8 5.29993 205.7 5.09993C205.7 4.89993 205.6 4.59993 205.5 4.39993C205.4 4.19993 205.3 4.09993 205.2 3.99993C205.1 3.79993 205 3.59993 204.8 3.29993C204.6 2.99993 204.5 2.79993 204.3 2.59993C204.2 2.49993 204 2.39993 203.7 2.19993C203.5 2.09993 203.4 2.09993 203.3 1.99993V1.89993L203.1 1.79993C202.9 1.69993 202.8 1.69993 202.7 1.69993C202.6 1.69993 202.5 1.59993 202.5 1.59993C202.4 1.59993 202.3 1.59993 202.3 1.49993L202.1 1.39993L202 1.29993H201.8C201.7 1.29993 201.6 1.29993 201.4 1.29993C201.3 1.29993 201.3 1.29993 201.2 1.29993L201.1 1.19993V1.09993H200.9C200.7 1.09993 200.5 1.09993 200.4 1.09993C200.3 0.999927 200.1 0.999927 200 0.999927C199.9 0.999927 199.8 0.999927 199.8 0.999927C199.6 0.899927 199.5 0.899927 199.3 0.999927H199.2C198.6 0.899927 197.9 0.899927 197.3 0.999927C196.7 0.999927 196.2 1.09993 195.7 1.09993H195.5L195.4 1.19993C195.4 1.19993 195.4 1.19993 195.4 1.29993C195.1 1.29993 194.8 1.39993 194.5 1.39993C194.1 1.39993 193.8 1.49993 193.5 1.69993H193.4C193 1.79993 192.8 1.69993 192.4 1.79993L192.2 1.89993C191.9 1.89993 191.8 1.99993 191.6 2.09993L191.4 2.19993C191.3 2.29993 191.2 2.29993 191.1 2.29993L191 2.19993L190.7 2.29993C190.6 2.29993 190.6 2.39993 190.5 2.49993C190.4 2.49993 190.2 2.59993 190 2.69993L189.5 2.89993L189.3 2.99993C189.2 3.09993 189.1 3.09993 189 3.19993L188.9 3.29993C188.8 3.39993 188.8 3.39993 188.7 3.49993C188.6 3.49993 188.4 3.59993 188.3 3.69993L188.2 3.79993H188C187.9 3.79993 187.8 3.89993 187.7 3.99993C187.5 4.09993 187.3 4.19993 187.1 4.29993C187 4.29993 186.9 4.29993 186.8 4.39993L186.6 4.49993C186.4 4.59993 186.3 4.69993 186.2 4.89993C186 5.09993 185.9 5.19993 185.7 5.29993L185.6 5.49993V5.69993L185.5 6.09993L185.7 6.39993C185.7 6.49993 185.7 6.59993 185.7 6.69993V7.19993H186.1C186.2 7.29993 186.2 7.29993 186.4 7.39993L187 7.59993V7.19993C187.2 7.19993 187.3 7.09993 187.4 6.99993L187.5 6.89993H187.6C187.7 6.89993 187.9 6.79993 188 6.49993V6.39993C188.1 6.29993 188.2 6.29993 188.3 6.19993C188.2 6.39993 188 6.59993 187.9 6.79993C187.7 7.09993 187.5 7.39993 187.4 7.69993C187.3 7.79993 187.2 7.99993 187.1 8.29993C187 8.69993 187 8.59993 187 8.59993L186.9 8.89993V8.99993C186.9 9.09993 186.8 9.09993 186.8 9.19993C186.7 9.29993 186.7 9.39993 186.7 9.59993L186.6 9.69993V9.79993C186.5 9.99993 186.4 10.1999 186.3 10.2999C186.2 10.4999 186.2 10.4999 186.2 10.5999L186.1 10.6999L186 11.1999C185.8 11.4999 185.7 11.6999 185.6 11.9999C185.5 12.1999 185.4 12.4999 185.3 12.6999C185.2 12.7999 185.2 12.9999 185.1 13.0999C185.1 13.1999 185 13.2999 185 13.3999H184.8V13.7999C184.8 13.9999 184.7 14.0999 184.8 14.1999C184.7 14.2999 184.7 14.4999 184.7 14.5999C184.7 14.6999 184.6 14.7999 184.6 14.9999C184.6 15.0999 184.5 15.1999 184.5 15.1999L184.4 15.3999C184.4 15.4999 184.3 15.4999 184.3 15.5999C184.3 15.5999 184.2 15.6999 184.2 15.7999C184.1 15.9999 184.1 16.1999 184.1 16.4999C184.1 16.5999 184.1 16.7999 184 16.8999C183.9 17.1999 183.8 17.3999 183.6 17.4999V17.1999L183.5 17.6999V17.7999L182.8 20.5999C182.7 20.8999 182.7 21.1999 182.7 21.5999C182.7 21.7999 182.7 21.8999 182.7 21.8999L182.6 21.9999V22.3999C182.6 22.5999 182.5 22.6999 182.5 22.7999C182.5 22.8999 182.5 22.9999 182.5 23.0999C182.4 23.3999 182.4 23.7999 182.3 24.0999C182.3 24.3999 182.3 24.5999 182.2 24.9999L182.1 25.0999V24.9999C182.1 25.0999 182.1 25.1999 182.1 25.3999C182 25.8999 182 26.5999 182 27.1999C182 27.8999 182.1 28.3999 182.1 28.7999V29.3999C182.1 29.5999 182.2 29.7999 182.3 29.8999C182.2 30.1999 182.4 30.3999 182.5 30.3999C182.5 30.4999 182.6 30.6999 182.7 30.7999L182.6 30.9999L182.8 31.1999C182.9 31.2999 183 31.3999 183.2 31.3999H183.3C183.4 31.4999 183.4 31.5999 183.5 31.6999C183.6 31.7999 183.8 31.8999 184 31.8999C184.1 31.8999 184.2 31.8999 184.3 31.8999C184.4 31.8999 184.6 31.8999 184.7 31.7999C184.9 31.7999 185 31.6999 185.1 31.6999C185.2 31.6999 185.3 31.6999 185.5 31.6999C185.7 31.6999 185.8 31.5999 186 31.4999C186.2 31.4999 186.4 31.3999 186.5 31.2999L186.6 31.1999H186.8V30.9999C186.8 30.5999 186.7 30.2999 186.6 29.8999C186.5 29.5999 186.5 29.3999 186.4 29.1999C186.4 29.1999 186.4 29.1999 186.4 28.9999C186.5 28.7999 186.5 28.5999 186.5 28.3999C186.5 28.1999 186.4 28.0999 186.4 27.8999C186.5 27.7999 186.5 27.6999 186.5 27.5999V27.3999C186.5 27.2999 186.5 27.2999 186.5 27.3999C186.5 27.2999 186.6 27.2999 186.6 26.8999C186.7 26.6999 186.7 26.4999 186.6 26.2999C186.6 26.0999 186.6 25.9999 186.6 25.9999C186.6 25.7999 186.7 25.6999 186.7 25.4999C186.8 25.2999 186.9 25.0999 186.9 24.7999C186.9 24.5999 187 24.3999 187 24.1999H187.1C187.1 24.2999 187.2 24.2999 187.2 24.3999L187.3 24.4999C187.4 24.5999 187.4 24.6999 187.5 24.6999C187.7 24.8999 187.8 25.0999 188 25.1999C188.1 25.2999 188.2 25.2999 188.2 25.3999V25.5999L188.5 25.8999H188.6L188.8 26.0999C188.9 26.1999 189.1 26.2999 189.3 26.2999C189.3 26.3999 189.4 26.4999 189.4 26.5999C189.5 26.6999 189.6 26.7999 189.9 26.7999C190 26.8999 190 26.9999 190.1 26.9999C190.2 27.0999 190.3 27.1999 190.4 27.2999C190.4 27.2999 190.5 27.3999 190.5 27.4999C190.6 27.5999 190.7 27.7999 190.9 27.8999C191 27.9999 191.2 27.9999 191.3 28.0999C191.4 28.0999 191.4 28.1999 191.5 28.1999C191.6 28.3999 191.7 28.3999 191.9 28.4999C192 28.5999 192.1 28.6999 192.2 28.6999C192.3 28.6999 192.4 28.7999 192.5 28.8999C192.6 28.9999 192.7 28.9999 192.7 28.9999L192.8 29.0999C192.9 29.1999 192.9 29.2999 193 29.2999C193.1 29.3999 193.3 29.4999 193.4 29.3999C193.4 29.3999 193.4 29.3999 193.5 29.4999C193.6 29.5999 193.7 29.6999 193.9 29.7999C194 29.8999 194.2 29.9999 194.4 30.0999C194.5 30.0999 194.6 30.1999 194.7 30.1999C194.9 30.2999 195 30.2999 195.1 30.3999H195.2C195.4 30.4999 195.5 30.4999 195.7 30.4999H195.8L195.9 30.6999H196.1C196.6 30.8999 197.2 30.9999 197.9 30.9999H198H198.1C198.4 30.8999 198.6 30.6999 198.7 30.3999C198.7 30.3999 198.7 30.2999 198.8 30.2999L199 30.1999C199.1 30.0999 199.3 29.8999 199.4 29.6999C199.5 29.4999 199.6 29.2999 199.7 28.8999V28.3999H199.4C199.4 28.2999 199.3 28.1999 199.2 28.0999L199.1 27.9999H199C198.7 27.8999 198.4 27.8999 198.2 27.7999C198 27.6999 197.7 27.5999 197.5 27.4999C197.4 27.3999 197.2 27.2999 197 27.2999C197 27.2999 197 27.2999 196.8 27.1999C196.7 27.0999 196.6 27.0999 196.5 26.9999C196.4 26.8999 196.3 26.8999 196.2 26.7999C196 26.5999 195.8 26.3999 195.7 26.3999C195.6 26.2999 195.4 26.1999 195.2 26.0999C195.1 25.9999 195 25.8999 194.9 25.8999L194.7 25.7999C194.6 25.7999 194.6 25.7999 194.6 25.7999C194.4 25.5999 194.2 25.4999 194 25.1999C193.8 24.8999 193.5 24.7999 193.2 24.6999C193.1 24.4999 193 24.3999 192.8 24.2999C192.7 24.1999 192.6 24.1999 192.6 24.0999C192.5 23.9999 192.4 23.7999 192.2 23.6999C192.1 23.5999 192 23.4999 191.9 23.3999C191.7 23.1999 191.4 22.8999 191.2 22.6999C191 22.4999 190.7 22.2999 190.5 22.0999C190.4 21.8999 190.3 21.7999 190.2 21.6999C190.2 21.6999 190.3 21.6999 190.3 21.5999C190.5 21.4999 190.7 21.3999 190.9 21.2999C191.1 21.1999 191.3 21.0999 191.5 20.9999C191.7 20.8999 191.8 20.7999 191.9 20.7999H192C192.2 20.6999 192.4 20.5999 192.4 20.3999C192.6 20.3999 192.8 20.2999 192.9 20.1999C192.9 20.1999 192.9 20.1999 193 20.1999C193.2 20.0999 193.3 19.9999 193.5 19.9999C193.5 19.9999 193.6 19.8999 193.7 19.8999C193.9 19.8999 194 19.8999 194.2 19.7999C194.4 19.6999 194.5 19.5999 194.6 19.3999H194.8C194.8 19.3999 195 19.2999 195 19.1999C195.1 19.0999 195.2 19.0999 195.3 18.9999C195.4 18.8999 195.5 18.8999 195.5 18.7999C195.6 18.6999 195.7 18.6999 195.8 18.5999L196 18.3999C196.1 18.2999 196.2 18.2999 196.3 18.0999C196.4 18.0999 196.4 17.9999 196.5 17.9999C196.7 17.8999 196.8 17.7999 197 17.6999L196.8 17.2999L197.1 17.5999C197.1 17.5999 197 17.5999 196.9 17.5999C197 17.5999 197.2 17.6999 197.5 17.3999L198 16.8999C198.1 16.7999 198.1 16.7999 198.2 16.6999C198.3 16.5999 198.4 16.5999 198.5 16.4999C198.7 16.3999 198.8 16.2999 198.9 16.1999C198.9 16.0999 199 16.0999 199 16.0999L199.3 15.8999C199.4 15.7999 199.5 15.6999 199.6 15.6999L199.8 15.4999H199.9C200 15.4999 200.2 15.3999 200.3 15.2999L200.5 15.0999C200.5 15.0999 200.6 14.9999 200.7 14.9999L200.8 14.8999C201 14.6999 201.1 14.4999 201.1 14.4999C201.2 14.3999 201.3 14.3999 201.4 14.2999C201.5 14.1999 201.5 14.1999 201.6 14.0999C201.7 13.9999 201.9 13.8999 202 13.7999C202.1 13.6999 202.1 13.6999 202.2 13.5999C202.4 13.3999 202.7 13.0999 202.9 12.8999C203.2 12.6999 203.4 12.3999 203.6 12.1999C203.8 12.0999 203.9 11.8999 203.9 11.7999C203.9 11.7999 203.9 11.6999 204 11.5999C204.1 11.4999 204.1 11.4999 204.2 11.3999C204.3 11.2999 204.4 11.1999 204.5 11.0999C204.7 10.8999 204.8 10.6999 205 10.5999C205.1 10.3999 205.3 10.1999 205.5 9.89993C205.6 9.59993 205.7 9.39993 205.8 9.19993C205.9 8.99993 205.9 8.79992 206 8.59993C206.1 8.39993 206.2 8.19992 206.2 8.09993C206.3 7.99993 206.3 7.79993 206.3 7.69993C206.3 7.69993 206.3 7.59993 206.3 7.39993L206.5 6.39993C206 6.19993 206 5.89993 205.9 5.59993ZM189 5.79993C189.3 5.69993 189.6 5.69993 189.9 5.79993H190.1L190.2 5.69993C190.3 5.59993 190.5 5.59993 190.6 5.49993C190.8 5.39993 191 5.39993 191.2 5.29993C191.4 5.19993 191.6 5.19993 191.8 5.09993C192 4.99993 192.2 4.99993 192.3 4.89993C192.4 4.89993 192.6 4.89993 192.7 4.89993C192.9 4.89993 193 4.89993 193.1 4.89993C193.4 4.79993 193.8 4.79993 194.1 4.69993C194.5 4.59993 194.8 4.59993 195.2 4.59993C196.2 4.49993 197.6 4.49993 198.5 4.59993C198.9 4.59993 199.2 4.59993 199.5 4.59993C199.7 4.59993 199.8 4.59993 200 4.59993V4.69993H200.3C200.4 4.79993 200.6 4.79993 200.7 4.79993C200.8 4.79993 200.9 4.89993 201.1 4.89993C201.2 4.89993 201.2 4.99993 201.3 4.99993V5.29993C201.2 5.39993 201.2 5.59993 201.1 5.69993C201.1 5.79993 201.1 5.79993 201.1 5.79993V5.89993C201 5.99993 201 5.99993 201 5.99993C200.9 6.09993 200.8 6.09993 200.8 6.19993L200.7 6.29993V6.39993C200.7 6.39993 200.7 6.39993 200.7 6.49993C200.6 6.49993 200.6 6.59993 200.6 6.59993C200.4 6.79992 200.3 6.99993 200.1 7.19993C200 7.39993 199.8 7.59993 199.7 7.69993C199.5 7.89993 199.2 8.09993 199 8.29993L198.2 8.89993C198.1 8.99993 198 9.09993 197.9 9.29993C197.7 9.29993 197.6 9.39993 197.4 9.49993L197.1 9.79993C197 9.79993 197 9.79993 197 9.89993C196.8 9.89993 196.7 9.99992 196.6 10.0999C196.5 10.1999 196.4 10.2999 196.3 10.3999C196.2 10.4999 196.2 10.4999 196.1 10.5999C196 10.6999 196 10.7999 195.9 10.7999C195.8 10.7999 195.6 10.8999 195.5 11.0999C195.4 11.0999 195.3 11.0999 195.2 11.1999H194.7V11.3999C194.6 11.4999 194.5 11.4999 194.4 11.6999C194.4 11.7999 194.3 11.7999 194.3 11.7999C194.3 11.7999 194.2 11.7999 194.2 11.8999L194.1 11.7999L193.8 12.0999C193.7 12.1999 193.6 12.2999 193.6 12.3999C193.5 12.3999 193.4 12.4999 193.3 12.5999L193.2 12.6999H193.1C192.9 12.7999 192.7 12.9999 192.6 13.1999C192.6 13.2999 192.5 13.2999 192.5 13.2999C192.3 13.2999 192.2 13.3999 192 13.4999H191.9H191.6L191.5 13.6999C191.5 13.7999 191.4 13.8999 191.3 13.9999C191.1 13.9999 190.9 14.0999 190.8 14.2999C190.7 14.2999 190.5 14.3999 190.3 14.6999H190.1L190 15.0999C189.9 15.1999 189.8 15.2999 189.7 15.3999C189.6 15.4999 189.5 15.4999 189.5 15.5999H189.3C189.2 15.6999 189.1 15.7999 189 15.7999C188.9 15.7999 188.9 15.8999 188.7 15.8999V15.1999C188.8 15.0999 188.8 14.8999 188.9 14.7999L189 14.6999V14.5999H189.2V14.2999C189.3 14.1999 189.2 13.9999 189.2 13.9999V13.7999C189.3 13.4999 189.4 13.1999 189.5 12.9999C189.6 12.6999 189.7 12.4999 189.7 12.1999C189.8 11.8999 189.8 11.6999 189.9 11.3999C189.9 11.1999 190 11.1999 190 11.0999L190.1 10.9999H190.3V10.3999C190.4 10.1999 190.4 9.99993 190.4 9.79993C190.4 9.59993 190.5 9.39993 190.5 9.19993C190.6 8.99993 190.6 8.79993 190.7 8.69993L190.9 8.29993C191 8.19993 191 8.09993 191 7.89993C191 7.79993 191 7.79993 191 7.79993V7.69993C191 7.49993 191.1 7.19993 191.1 6.99993C191.1 6.69993 191.1 6.39993 191 6.09993L190.9 5.99993L190.8 5.89993C190.5 5.69993 190.2 5.69993 189.8 5.59993C189.4 5.79993 189.2 5.79993 189 5.79993Z" fill="#F78A33"/>
<path d="M223.5 5.29997C223.5 5.09997 223.5 4.89998 223.5 4.69998C223.5 4.39998 223.5 4.19998 223.4 4.09998L223.3 3.79997H223.2C223.2 3.69997 223.1 3.59998 223 3.49998C223 3.39998 223 3.29998 222.9 3.19998L222.8 3.09998C222.7 2.99998 222.6 2.89997 222.5 2.89997C222.2 2.49997 222 2.09997 221.7 1.89997C221.5 1.69997 221.2 1.39998 220.9 1.19998L220.8 1.09998H220.6C220.3 1.09998 220 0.999975 219.7 0.899975C219.4 0.799975 219 0.699976 218.7 0.599976C218.3 0.599976 217.9 0.599976 217.6 0.699976C217.2 0.799976 216.9 0.799975 216.8 0.899975C216.6 0.799975 216.4 0.899975 216.3 0.899975C216.2 0.899975 216.1 0.999976 216 1.19998L215.9 1.29997C215.8 1.29997 215.7 1.29997 215.7 1.39997L215 1.69998C214.7 1.89998 214.5 1.89997 214.5 1.89997C214.1 1.89997 213.9 2.09997 213.9 2.29997C213.7 2.29997 213.5 2.39998 213.4 2.49998C213.3 2.59998 213.3 2.69997 213.2 2.79997C213 2.79997 212.9 2.89998 212.8 2.99998C212.5 3.19998 212.3 3.39998 212 3.69998C211.8 3.89998 211.6 4.09998 211.4 4.19998C211.2 4.39998 211 4.49998 210.8 4.69998L210.4 5.09998C210.3 5.19998 210.2 5.39998 210.1 5.49998C210.1 5.49998 210.1 5.49998 210 5.49998L209.8 5.59998L209.7 5.69998C209.6 5.79998 209.5 5.89997 209.4 6.09997C209.3 6.19997 209.3 6.29998 209.2 6.39998C209.1 6.49998 209.1 6.49997 209 6.59997C208.8 6.69997 208.7 6.79998 208.6 6.99998C208.5 7.09998 208.4 7.19998 208.3 7.39998C208.3 7.49998 208.2 7.49997 208.2 7.59997H208.1L208 7.69998C208 7.79998 207.9 7.89998 207.8 7.99998C207.7 8.19998 207.6 8.29998 207.6 8.49998C207.5 8.59998 207.4 8.69998 207.3 8.69998L207.2 8.79997V8.99998L207.1 9.09997C207 9.19997 206.9 9.29998 206.9 9.49998C206.9 9.49998 206.9 9.49998 206.8 9.49998L206.6 9.59997L206.3 10.2C206.2 10.4 206.2 10.6 206.2 10.7C206.2 10.8 206.2 10.9 206.1 11.1C206.1 11.2 206 11.3 205.9 11.3L205.7 11.4V11.7V11.8C205.6 11.8 205.6 11.9 205.5 11.9C205.4 12 205.3 12.2 205.3 12.4H205.2C205.1 12.5 205 12.7 204.9 12.9H204.8L204.7 13.1C204.6 13.3 204.6 13.5 204.7 13.7C204.6 13.8 204.5 13.9 204.5 14C204.5 14.1 204.4 14.2 204.3 14.3L204.2 14.4V15.5C204.2 15.6 204.1 15.6 204.1 15.7C204 15.8 204 15.9 203.9 16C203.8 16.2 203.7 16.4 203.8 16.7L203.7 16.8C203.4 17 203.2 17.3 203.4 17.8C203.4 17.9 203.3 17.9 203.3 18C203.2 18.1 203.1 18.3 203.1 18.6V19.2C203.1 19.4 203.1 19.6 203.1 19.8C203.1 20 203.1 20.1 203.1 20.1V20.2C203.1 20.3 203.2 20.5 203.4 20.6V20.7C203.5 20.9 203.5 20.9 203.5 20.9V21C203.5 21.1 203.6 21.2 203.6 21.2C203.6 21.4 203.6 21.6 203.6 21.7C203.7 21.9 203.8 22 204 22C204 22.2 204 22.4 204.1 22.6L204.2 22.7H204.3C204.4 22.7 204.5 22.8 204.6 22.9C204.7 23.1 204.8 23.2 204.9 23.4L205 23.5H205.1C205.2 23.6 205.4 23.6 205.6 23.6C205.6 23.7 205.6 23.8 205.6 23.8C205.5 23.9 205.5 24 205.5 24.1H205.3V24.5C205.2 24.7 205.2 25 205.2 25.2C205.2 25.3 205.2 25.4 205.1 25.6C205 25.8 205 26 204.9 26.3C204.9 26.5 204.9 26.7 204.8 26.9C204.8 27.1 204.7 27.2 204.7 27.4C204.6 27.6 204.6 27.9 204.6 28.1C204.6 28.3 204.6 28.6 204.7 28.8C204.7 28.9 204.7 29.1 204.7 29.2V29.4L204.8 29.6C204.9 29.7 204.9 29.8 205 29.9C205.1 30 205.2 30.1 205.3 30.3C205.4 30.4 205.5 30.5 205.6 30.7V31L205.9 31.1C206.2 31.2 206.4 31.3 206.5 31.5C206.7 31.7 206.8 31.9 207 32.2L207.1 32.3L207.3 32.4C207.6 32.5 207.8 32.6 208 32.8C208.2 33 208.6 33.1 209 33.2C209.2 33.2 209.3 33.2 209.5 33.1H209.6C209.7 33.1 209.8 33.1 209.9 33.1C210.1 33.1 210.2 33.1 210.4 33.1C210.5 33.1 210.6 33 210.7 32.9C210.8 32.9 210.9 32.9 210.9 32.8C211.1 32.8 211.3 32.7 211.4 32.6C211.6 32.5 211.7 32.4 211.8 32.3L212 32.1C212.1 32 212.3 31.8 212.4 31.7C212.5 31.6 212.6 31.6 212.7 31.6L213.1 31.5V31.2C213.2 31.2 213.3 31.1 213.3 31C213.4 30.9 213.5 30.7 213.4 30.6L213.5 30.5C213.6 30.4 213.8 30.2 213.9 30.1C214.1 30 214.2 29.8 214.3 29.6L214.5 29.4H214.7V29.1L214.8 28.9C215 28.8 215 28.7 215.1 28.7C215.2 28.6 215.3 28.4 215.3 28.3C215.5 28.2 215.6 28.1 215.6 28C215.7 27.8 215.8 27.6 215.7 27.4C215.8 27.2 216 26.9 216.1 26.7C216.2 26.5 216.4 26.3 216.5 26C216.6 25.9 216.6 25.9 216.6 25.8L216.7 25.5L217.1 24.9C217.2 24.8 217.3 24.6 217.2 24.5C217.3 24.4 217.4 24.3 217.5 24.2C217.6 24 217.6 23.9 217.6 23.7V23.6C217.6 23.5 217.7 23.5 217.7 23.4C217.8 23.3 217.8 23.2 217.8 23.1C217.9 23 217.9 22.8 218 22.7C218 22.6 218.1 22.5 218.2 22.4L218.3 22.3V22.1C218.3 21.9 218.3 21.8 218.2 21.7C218.4 21.4 218.6 21.1 218.8 20.7C219 20.2 219.2 19.7 219.3 19.3C219.3 19.3 219.3 19.2 219.4 19.2L219.6 19L219.5 18.8C219.5 18.8 219.5 18.8 219.5 18.7C219.6 18.5 219.7 18.3 219.8 18.1C220 17.7 220.1 17.3 220.3 16.8C220.4 16.5 220.5 16.3 220.5 16C220.5 15.8 220.6 15.7 220.6 15.7C220.7 15.6 220.8 15.4 220.8 15C220.8 14.9 220.8 14.8 220.8 14.8C220.9 14.6 220.9 14.4 220.9 14.2L221.2 13.7V13.6C221.3 13.4 221.3 13.3 221.3 13.1C221.4 12.9 221.5 12.6 221.5 12.4C221.6 12.1 221.6 11.8 221.5 11.5C221.7 11.3 221.8 11.1 221.8 10.9H221.9L222 10.6C222 10.4 222.1 10.2 222.1 9.99998C222.1 9.79998 222.1 9.69997 222.1 9.59997L222.2 9.39998C222.2 9.29998 222.2 9.29998 222.3 8.99998V8.79997L222.4 8.69998C222.5 8.49998 222.5 8.19998 222.5 7.99998C222.5 7.89998 222.5 7.79997 222.5 7.79997L222.6 7.69998V7.59997C222.7 6.89997 222.7 6.19997 222.7 5.79997C222.7 5.69997 222.7 5.69998 222.7 5.59998C223.5 5.39998 223.5 5.29997 223.5 5.29997ZM219.6 6.89998C219.6 7.09998 219.5 7.19997 219.4 7.29997L219.3 7.39998V7.49998C219.3 7.69998 219.3 7.79998 219.3 7.99998C219.3 8.09998 219.3 8.19997 219.2 8.29997C219.1 8.39997 219.1 8.59997 219.1 8.79997C219.1 8.79997 219.1 8.89997 219.1 8.99998C219 9.09998 218.9 9.29998 218.9 9.49998H219.1L219.2 9.59997H218.8V9.69998V9.99998H218.9C218.9 9.99998 218.9 9.99997 218.9 10.1L218.8 10.3C218.8 10.4 218.7 10.5 218.7 10.6C218.7 10.7 218.6 10.8 218.6 11C218.6 11.1 218.5 11.2 218.5 11.3L218 11.6L218.4 11.9C218.2 12.1 218.1 12.3 218.1 12.6C218.1 12.8 218.1 12.9 218.1 12.9C218 13 218 13.1 218 13.3C218 13.3 218 13.5 217.8 13.7L217.7 13.8V14.6C217.6 14.7 217.6 14.7 217.5 14.8C217.5 14.9 217.4 14.9 217.4 15L217.2 15.1V15.3C217.2 15.5 217.2 15.6 217.2 15.8C217.2 15.9 217.1 16.1 217 16.3C216.9 16.4 216.9 16.6 216.9 16.8L216.7 17V17.1C216.5 17.2 216.5 17.4 216.4 17.6C216.3 17.8 216.3 17.9 216.3 18.1L216.2 18.2C216.1 18.3 216.1 18.4 216 18.5C215.9 18.7 215.9 18.9 215.9 19.1C215.9 19.2 215.9 19.4 215.8 19.5C215.7 19.7 215.7 19.8 215.6 20L215.4 20.1L215.3 20.2C215.2 20.3 215.2 20.5 215.3 20.7C215.3 20.7 215.3 20.7 215.3 20.8C215.3 20.8 215.3 20.9 215.2 20.9H214.9V21.3C214.9 21.4 214.9 21.5 214.8 21.6C214.6 21.7 214.5 21.8 214.5 21.9C214.4 22 214.4 22.2 214.4 22.3V22.4C214.4 22.4 214.3 22.5 214.4 22.5L214.3 22.6V22.7C214.2 22.9 214.2 23 214.1 23.2H213.7V23.5L213.6 23.6L213.5 23.7V24L213.4 24.1L213.3 24.2V24.4C213.2 24.5 213.2 24.5 213.1 24.6C213.1 24.7 213 24.7 213 24.7C213 24.7 212.9 24.8 212.8 24.9L212.6 25.1V25.3C212.5 25.4 212.4 25.5 212.4 25.5L212.1 25.7L212 26C212 26.1 211.9 26.1 211.9 26.2C211.7 26.3 211.5 26.5 211.4 26.7C211.3 26.8 211.3 27 211.2 27.1C211.1 27.2 211 27.2 210.9 27.3C210.9 27.1 210.9 27 210.9 26.8V26.3V26.2C211.1 26 211.2 25.7 211.1 25.5C211.1 25.4 211.1 25.4 211.1 25.4L211.3 25.2V25.1C211.4 24.8 211.5 24.5 211.6 24.1C211.7 23.8 211.8 23.5 211.8 23.2L212.1 23V22.9H212.2V22.7C212.2 22.3 212.3 22 212.4 21.7C212.5 21.5 212.5 21.3 212.6 21C212.7 20.9 212.8 20.8 212.9 20.6C212.9 20.6 212.9 20.5 213 20.4L213.1 20.2L213.3 19.9V19.8C213.4 19.6 213.5 19.5 213.5 19.2C213.5 19.1 213.5 19 213.5 18.9C213.5 18.8 213.6 18.7 213.6 18.6V18.5H213.7L213.9 18.4L214 18.2C214 18.1 214.1 18 214.1 17.9H214.2V17.6C214.2 17.5 214.2 17.4 214.2 17.3V17.2C214.3 16.9 214.4 16.6 214.4 16.4C214.5 16.1 214.4 15.7 214.2 15.3C214.1 15.2 214.1 15.1 214 15L213.8 14.8C213.5 14.4 213.1 14.2 212.8 14C212.4 13.8 211.9 13.9 211.2 14.2C210.9 14.3 210.7 14.5 210.7 14.8C210.7 14.9 210.7 15 210.6 15C210.4 15.1 210.3 15.2 210.2 15.3C210.2 15.4 210.1 15.4 210.1 15.5C210 15.6 209.9 15.6 209.8 15.7L209.7 15.8V16V16.1C209.7 16.2 209.6 16.3 209.6 16.3C209.6 16.4 209.5 16.5 209.5 16.6C209.4 16.7 209.4 16.7 209.3 16.8C209.2 16.9 209.2 17 209.2 17.2C209.2 17.2 209.1 17.3 209.1 17.4C209 17.5 209 17.6 208.9 17.8L208.5 18.3C208.4 18.4 208.3 18.6 208.4 19C208.3 19 208.3 19.1 208.3 19.1C208.2 19.2 208.2 19.3 208.2 19.5C208 19.7 208 19.9 208.1 20L207.9 20.2C207.8 20.3 207.7 20.4 207.6 20.6C207.6 20.4 207.6 20.3 207.7 20.1C207.8 19.3 208 18.5 208.3 17.6C208.5 17 208.7 16.4 208.9 15.8L209.1 15.7C209.4 15.5 209.6 15.2 209.7 14.6C209.8 14.4 209.8 14.1 209.9 14C210 14 210.1 13.9 210.2 13.6H210.4L210.5 13.3C210.6 13 210.7 12.8 210.8 12.5C210.9 12.2 211 12 211.2 11.7C211.3 11.6 211.3 11.6 211.3 11.5C211.4 11.4 211.4 11.2 211.4 11.1V11H211.5L211.6 10.8C211.7 10.7 211.7 10.6 211.8 10.5C211.8 10.5 211.8 10.5 211.8 10.4C211.8 10.4 211.9 10.4 212 10.3L212.2 10.2V9.99998H212.4V9.59997C212.5 9.49997 212.6 9.49998 212.6 9.39998C212.7 9.29998 212.8 9.09998 212.9 8.99998L213.1 8.59997C213.2 8.39997 213.4 8.29997 213.6 8.09997L213.7 7.99998L213.8 7.89998V7.79997C213.9 7.69997 214 7.59998 214.1 7.49998C214.2 7.29998 214.4 7.09998 214.5 6.99998C214.8 6.69998 215.2 6.49997 215.5 6.29997L216.5 5.49998C216.5 5.49998 216.5 5.49997 216.6 5.39997C216.8 5.29997 216.9 5.19998 217 5.09998L217.3 4.99998L217.4 4.89997C217.6 4.89997 217.7 4.79998 217.9 4.69998C218 4.69998 218.1 4.69998 218.2 4.59998L218.6 4.49998L218.8 4.39997C219 4.39997 219.2 4.39997 219.5 4.39997C219.5 4.59997 219.6 4.89998 219.7 5.09998C219.8 5.29998 219.8 5.39998 219.7 5.59998L219.5 5.89997L219.7 6.09997C219.7 6.19997 219.7 6.29998 219.8 6.39998C219.7 6.59998 219.6 6.79998 219.6 6.89998Z" fill="#F78A33"/>
</svg>
