<svg width="100" height="100" viewBox="0 0 100 100" fill="none" xmlns="http://www.w3.org/2000/svg">
<path d="M80.3399 29.6461L63.845 27.2522L56.4681 12.3241C53.6189 6.55779 45.3799 6.55954 42.5316 12.3239L35.1548 27.252L18.6598 29.6461C12.288 30.5706 9.74451 38.3966 14.3533 42.8838L26.2892 54.5038L23.4716 70.9109C22.3833 77.249 29.0491 82.0832 34.7466 79.0925L49.5001 71.3455L64.2538 79.0925C69.9433 82.0797 76.6168 77.2481 75.5287 70.9109L72.7111 54.5036L84.6472 42.8836C89.2568 38.3948 86.7091 30.5704 80.3399 29.6461ZM79.9972 38.1202L66.8076 50.9606C66.0227 51.7248 65.6646 52.8257 65.8498 53.9047L68.9635 72.0358C69.1198 72.9464 68.1712 73.634 67.3528 73.2046L51.0495 64.6443C50.0794 64.135 48.9201 64.135 47.9501 64.6443L31.6468 73.2046C30.828 73.6344 29.8798 72.9462 30.0361 72.0358L33.1497 53.9047C33.3349 52.8257 32.9768 51.7248 32.192 50.9606L19.0023 38.1202C18.3398 37.4753 18.7022 36.3621 19.6176 36.229L37.8452 33.5837C38.9298 33.4262 39.8676 32.746 40.3527 31.7644L48.5045 15.268C48.9137 14.4401 50.0859 14.4395 50.4953 15.2682L58.647 31.7644C59.1322 32.746 60.07 33.4264 61.1546 33.5837L79.3822 36.229C80.2974 36.3621 80.6595 37.4755 79.9972 38.1202Z" fill="url(#paint0_linear_693_5355)"/>
<path d="M26.3424 8.77428L22.2262 3.35675C21.1086 1.88652 18.9564 1.56023 17.4189 2.62897C15.8812 3.69731 15.5402 5.75552 16.6576 7.22595L20.7738 12.6433C21.8918 14.1143 24.044 14.4392 25.5811 13.3711C27.1188 12.3029 27.4598 10.2447 26.3424 8.77428Z" fill="url(#paint1_linear_693_5355)"/>
<path d="M12.839 58.3548C12.2812 56.5659 10.4361 55.5859 8.71792 56.1679L2.26064 58.3532C0.542833 58.9346 -0.397129 60.856 0.160908 62.6454C0.719903 64.4375 2.56802 65.4131 4.28199 64.8323L10.7393 62.647C12.4573 62.0656 13.3972 60.1439 12.839 58.3548Z" fill="url(#paint2_linear_693_5355)"/>
<path d="M82.5812 2.62887C81.0437 1.5605 78.8913 1.88622 77.7738 3.35666L73.6576 8.77408C72.5402 10.2445 72.8812 12.303 74.4189 13.3711C75.9572 14.4399 78.1094 14.1132 79.2262 12.6433L83.3424 7.22592C84.4597 5.75547 84.1189 3.69704 82.5812 2.62887Z" fill="url(#paint3_linear_693_5355)"/>
<path d="M97.7393 58.3533L91.2821 56.168C89.5643 55.5856 87.7192 56.5658 87.161 58.3549C86.6028 60.144 87.5427 62.0659 89.2607 62.6471L95.718 64.8324C97.4321 65.413 99.28 64.4374 99.839 62.6455C100.397 60.8564 99.4571 58.9347 97.7393 58.3533Z" fill="url(#paint4_linear_693_5355)"/>
<path d="M50.5 84C48.5671 84 47 85.4444 47 87.2261V93.7739C47 95.5556 48.5671 97 50.5 97C52.4329 97 54 95.5556 54 93.7739V87.2261C54.0002 85.4442 52.4331 84 50.5 84Z" fill="url(#paint5_linear_693_5355)"/>
<defs>
<linearGradient id="paint0_linear_693_5355" x1="84.3935" y1="92.1925" x2="18.0016" y2="5.46806" gradientUnits="userSpaceOnUse">
<stop stop-color="#00A39C"/>
<stop offset="1" stop-color="#7DF4CD"/>
</linearGradient>
<linearGradient id="paint1_linear_693_5355" x1="84.3935" y1="92.1925" x2="18.0016" y2="5.46806" gradientUnits="userSpaceOnUse">
<stop stop-color="#00A39C"/>
<stop offset="1" stop-color="#7DF4CD"/>
</linearGradient>
<linearGradient id="paint2_linear_693_5355" x1="84.3935" y1="92.1925" x2="18.0016" y2="5.46806" gradientUnits="userSpaceOnUse">
<stop stop-color="#00A39C"/>
<stop offset="1" stop-color="#7DF4CD"/>
</linearGradient>
<linearGradient id="paint3_linear_693_5355" x1="84.3935" y1="92.1925" x2="18.0016" y2="5.46806" gradientUnits="userSpaceOnUse">
<stop stop-color="#00A39C"/>
<stop offset="1" stop-color="#7DF4CD"/>
</linearGradient>
<linearGradient id="paint4_linear_693_5355" x1="84.3935" y1="92.1925" x2="18.0016" y2="5.46806" gradientUnits="userSpaceOnUse">
<stop stop-color="#00A39C"/>
<stop offset="1" stop-color="#7DF4CD"/>
</linearGradient>
<linearGradient id="paint5_linear_693_5355" x1="84.3935" y1="92.1925" x2="18.0016" y2="5.46806" gradientUnits="userSpaceOnUse">
<stop stop-color="#00A39C"/>
<stop offset="1" stop-color="#7DF4CD"/>
</linearGradient>
</defs>
</svg>
