<svg width="120" height="120" viewBox="0 0 120 120" fill="none" xmlns="http://www.w3.org/2000/svg">
<path d="M88.4453 62.578L89.5757 58.0644H69.1329L70.2634 62.578C71.3066 66.7586 75.046 69.6775 79.3543 69.6775C83.6626 69.6773 87.402 66.7586 88.4453 62.578ZM74.0994 61.9354H84.609C83.8986 64.2309 81.7794 65.8063 79.3541 65.8063C76.929 65.8063 74.8098 64.2309 74.0994 61.9354Z" fill="url(#paint0_linear_574_1495)"/>
<path d="M69.6795 50.3224H73.5505V48.387C73.5505 45.1856 70.9454 42.5806 67.744 42.5806C64.5427 42.5806 61.9376 45.1856 61.9376 48.387V50.3224H65.8086V48.387C65.8086 47.3206 66.6758 46.4515 67.744 46.4515C68.8123 46.4515 69.6795 47.3206 69.6795 48.387V50.3224Z" fill="url(#paint1_linear_574_1495)"/>
<path d="M89.0274 48.387C89.0274 47.3206 89.8946 46.4515 90.9628 46.4515C92.0311 46.4515 92.8983 47.3206 92.8983 48.387V50.3224H96.7693V48.387C96.7693 45.1856 94.1642 42.5806 90.9628 42.5806C87.7615 42.5806 85.1564 45.1856 85.1564 48.387V50.3224H89.0274V48.387Z" fill="url(#paint2_linear_574_1495)"/>
<path d="M108.387 69.6773H97.4693C101.402 65.5896 103.959 60.1856 104.418 54.1934H106.452C109.653 54.1934 112.258 51.5883 112.258 48.387C112.258 46.1243 110.946 44.183 109.053 43.2251L109.593 41.876C111.362 37.4534 112.258 32.7947 112.258 27.8766C112.258 19.4494 109.359 11.1811 104.092 4.59657L103.115 3.37524L101.714 4.07392C96.9175 6.47392 91.5464 7.74165 86.1831 7.74165H69.4837C56.785 7.74165 46.4513 18.0752 46.4513 30.7758C46.4513 33.7177 47.0049 36.5958 48.0985 39.3307L49.6567 43.2248C48.3348 43.8945 47.3108 45.0422 46.8095 46.4513H30.9676V50.3222H46.8076C47.6089 52.5694 49.738 54.1931 52.258 54.1931H54.2921C55.0876 64.5731 62.189 73.2131 71.7794 76.2481C70.1188 77.7598 68.9322 79.8017 68.5375 82.1707L68.0361 85.1611H52.258C49.0567 85.1611 46.4516 87.7662 46.4516 90.9675C46.4516 94.1688 49.0567 96.7739 52.258 96.7739H54.1935C54.1935 98.9088 55.9295 100.645 58.0644 100.645H67.7418V104.516H15.484V58.0645H7.74189C5.60696 58.0645 3.87095 56.3285 3.87095 54.1936C3.87095 52.0587 5.60696 50.3227 7.74189 50.3227H19.3547V46.4517H7.74189C3.47227 46.4517 0 49.924 0 54.1936V104.516C0 108.786 3.47227 112.258 7.74189 112.258H15.4838V108.387H67.742V120H100.645V112.258H110.323C115.659 112.258 120 107.917 120 102.581V81.2904C120 74.8859 114.792 69.6773 108.387 69.6773ZM54.1937 92.9032H52.2582C51.1899 92.9032 50.3228 92.0341 50.3228 90.9677C50.3228 89.9013 51.1899 89.0323 52.2582 89.0323H54.1937V92.9032ZM11.6128 108.387H7.74189C5.60696 108.387 3.87095 106.651 3.87095 104.516V60.896C5.01095 61.5579 6.33283 61.9355 7.74189 61.9355H11.6128V108.387ZM116.129 81.2904V89.0323H112.258C112.258 86.8973 110.522 85.1613 108.387 85.1613H104.516C102.382 85.1613 100.646 86.8973 100.646 89.0323H96.7746V77.8763C96.7746 76.3376 96.3351 74.8645 95.6018 73.5485H108.388C112.657 73.5483 116.129 77.0205 116.129 81.2904ZM108.389 92.9032H104.516V89.0323H108.387L108.389 92.9032ZM89.0324 79.3549C89.0324 77.3477 90.0562 75.5768 91.6085 74.5336C92.4234 75.4549 92.9034 76.6317 92.9034 77.8763V96.7744H89.0324V79.3549ZM89.0324 100.645H92.9034V108.031C90.6562 107.23 89.0324 105.101 89.0324 102.581V100.645ZM106.452 50.3227H104.516V46.4517H106.452C107.52 46.4517 108.387 47.3208 108.387 48.3872C108.387 49.4536 107.52 50.3227 106.452 50.3227ZM50.3228 48.3872C50.3228 47.3208 51.1899 46.4517 52.2582 46.4517H54.1937V50.3227H52.2582C51.1897 50.3227 50.3228 49.4536 50.3228 48.3872ZM54.1937 40.6027V42.5808H53.5686L51.6931 37.8931C50.7835 35.6189 50.3228 33.2248 50.3228 30.7763C50.3228 20.2085 58.9182 11.6131 69.4841 11.6131H86.1836C91.6087 11.6131 97.0396 10.4459 101.993 8.22587C106.127 13.9142 108.388 20.8432 108.388 28.0336C108.388 32.3013 107.584 36.4741 105.999 40.4363L105.142 42.5808H104.517C104.517 38.3112 101.045 34.8389 96.775 34.8389H78.1654C72.6318 34.8389 67.7235 31.5176 65.6699 26.377L62.0757 27.8152C62.579 29.0693 63.212 30.2402 63.959 31.3146L58.8899 33.4863C56.0361 34.7072 54.1937 37.5 54.1937 40.6027ZM58.0647 52.2581V40.6027C58.0647 39.0523 58.986 37.6549 60.4105 37.0453L66.6641 34.3666C69.7609 37.1149 73.81 38.7117 78.1628 38.7117H96.7746C98.9095 38.7117 100.646 40.4477 100.646 42.5827V52.26C100.646 63.9987 91.0938 73.5504 79.3551 73.5504C67.6164 73.5504 58.0647 63.9968 58.0647 52.2581ZM58.0647 89.0323H71.3188L72.3543 82.8077C72.8748 79.6859 75.5498 77.4195 78.7143 77.4195C82.2698 77.4195 85.1615 80.3112 85.1615 83.8666C85.1615 90.9834 79.3724 96.7744 72.2537 96.7744H58.0647V89.0323ZM96.7743 116.129H71.613V100.645H72.2535C77.4386 100.645 82.0818 98.28 85.1613 94.5715V102.581C85.1613 107.917 89.5026 112.258 94.8386 112.258H96.7741L96.7743 116.129ZM110.323 108.387H96.7746V92.9032H100.646C100.646 95.0381 102.382 96.7741 104.516 96.7741H108.387C110.522 96.7741 112.258 95.0381 112.258 92.9032H116.129V102.581C116.129 105.782 113.524 108.387 110.323 108.387Z" fill="url(#paint3_linear_574_1495)"/>
<path d="M25.1618 27.0969C30.4978 27.0969 34.8391 22.7555 34.8391 17.4195C34.8391 12.0835 30.4978 7.74219 25.1618 7.74219C19.8257 7.74219 15.4844 12.0835 15.4844 17.4195C15.4844 22.7555 19.8255 27.0969 25.1618 27.0969ZM25.1618 11.6129C28.3631 11.6129 30.9682 14.218 30.9682 17.4193C30.9682 20.6206 28.3631 23.2257 25.1618 23.2257C21.9604 23.2257 19.3554 20.6206 19.3554 17.4195C19.3554 14.2184 21.9604 11.6129 25.1618 11.6129Z" fill="url(#paint4_linear_574_1495)"/>
<path d="M25.1617 52.2891L40.3108 25.7787C41.7972 23.1792 42.5812 20.2237 42.5812 17.2277C42.5809 7.72828 34.8526 0 25.3532 0H24.9718C15.4707 0 7.7422 7.72828 7.7422 17.2296C7.7422 20.2237 8.52619 23.1792 10.0126 25.7768L25.1617 52.2891ZM24.97 3.87094H25.3513C32.7177 3.87094 38.71 9.8632 38.71 17.2296C38.71 19.5523 38.1023 21.8419 36.9505 23.8547L25.1615 44.4851L13.3724 23.8547C12.2206 21.8419 11.6129 19.5502 11.6129 17.2275C11.6131 9.8632 17.6054 3.87094 24.97 3.87094Z" fill="url(#paint5_linear_574_1495)"/>
<path d="M29.7225 52.707L25.1566 56.5121L20.5907 52.707L18.1094 55.6798L22.1334 59.0321L18.1094 62.3844L20.5907 65.3572L25.1566 61.5521L29.7225 65.3572L32.2036 62.3844L28.1798 59.0321L32.2036 55.6798L29.7225 52.707Z" fill="url(#paint6_linear_574_1495)"/>
<path d="M50.3235 81.2904V73.5485C50.3235 69.2789 46.8512 65.8066 42.5816 65.8066C38.312 65.8066 34.8397 69.2789 34.8397 73.5485V89.0325C34.8397 91.1674 33.1037 92.9034 30.9687 92.9034C28.8338 92.9034 27.0978 91.1674 27.0978 89.0325V65.8066H23.2266V89.0325C23.2266 93.3021 26.6989 96.7744 30.9685 96.7744C35.2381 96.7744 38.7104 93.3021 38.7104 89.0325V73.5485C38.7104 71.4136 40.4464 69.6776 42.5813 69.6776C44.7163 69.6776 46.4523 71.4136 46.4523 73.5485V81.2904H50.3235Z" fill="url(#paint7_linear_574_1495)"/>
<defs>
<linearGradient id="paint0_linear_574_1495" x1="111.301" y1="116.414" x2="-10.1185" y2="28.2555" gradientUnits="userSpaceOnUse">
<stop stop-color="#00A39C"/>
<stop offset="1" stop-color="#7DF4CD"/>
</linearGradient>
<linearGradient id="paint1_linear_574_1495" x1="111.301" y1="116.414" x2="-10.1185" y2="28.2555" gradientUnits="userSpaceOnUse">
<stop stop-color="#00A39C"/>
<stop offset="1" stop-color="#7DF4CD"/>
</linearGradient>
<linearGradient id="paint2_linear_574_1495" x1="111.301" y1="116.414" x2="-10.1185" y2="28.2555" gradientUnits="userSpaceOnUse">
<stop stop-color="#00A39C"/>
<stop offset="1" stop-color="#7DF4CD"/>
</linearGradient>
<linearGradient id="paint3_linear_574_1495" x1="111.301" y1="116.414" x2="-10.1185" y2="28.2555" gradientUnits="userSpaceOnUse">
<stop stop-color="#00A39C"/>
<stop offset="1" stop-color="#7DF4CD"/>
</linearGradient>
<linearGradient id="paint4_linear_574_1495" x1="111.301" y1="116.414" x2="-10.1185" y2="28.2555" gradientUnits="userSpaceOnUse">
<stop stop-color="#00A39C"/>
<stop offset="1" stop-color="#7DF4CD"/>
</linearGradient>
<linearGradient id="paint5_linear_574_1495" x1="111.301" y1="116.414" x2="-10.1185" y2="28.2555" gradientUnits="userSpaceOnUse">
<stop stop-color="#00A39C"/>
<stop offset="1" stop-color="#7DF4CD"/>
</linearGradient>
<linearGradient id="paint6_linear_574_1495" x1="111.301" y1="116.414" x2="-10.1185" y2="28.2555" gradientUnits="userSpaceOnUse">
<stop stop-color="#00A39C"/>
<stop offset="1" stop-color="#7DF4CD"/>
</linearGradient>
<linearGradient id="paint7_linear_574_1495" x1="111.301" y1="116.414" x2="-10.1185" y2="28.2555" gradientUnits="userSpaceOnUse">
<stop stop-color="#00A39C"/>
<stop offset="1" stop-color="#7DF4CD"/>
</linearGradient>
</defs>
</svg>
